<?xml version="1.0" standalone="no"?>
<!DOCTYPE svg PUBLIC "-//W3C//DTD SVG 1.1//EN" "http://www.w3.org/Graphics/SVG/1.1/DTD/svg11.dtd" >
<svg xmlns="http://www.w3.org/2000/svg" xmlns:xlink="http://www.w3.org/1999/xlink" version="1.1">
<metadata>
Created by FontForge 20150804 at Sat Jun  1 20:06:46 2019
 By cloudconvert
Copyright 1996 TypeMarket, (095)142-77-12, Designer: S. Shanovich
</metadata>
<defs>
<font id="HeliosExtBlackC" horiz-adv-x="960" >
  <font-face 
    font-family="HeliosExtBlackC"
    font-weight="900"
    font-stretch="normal"
    units-per-em="1000"
    panose-1="0 0 10 0 0 0 0 0 0 0"
    ascent="763"
    descent="-237"
    x-height="562"
    cap-height="726"
    bbox="-60 -237 1642 953"
    underline-thickness="162"
    underline-position="-291"
    unicode-range="U+0020-2122"
  />
<missing-glyph horiz-adv-x="500" 
 />
    <glyph glyph-name=".notdef" horiz-adv-x="500" 
 />
    <glyph glyph-name=".null" horiz-adv-x="0" 
 />
    <glyph glyph-name="nonmarkingreturn" horiz-adv-x="333" 
 />
    <glyph glyph-name="space" unicode=" " horiz-adv-x="481" 
 />
    <glyph glyph-name="space" unicode="&#xa0;" horiz-adv-x="481" 
 />
    <glyph glyph-name="exclam" unicode="!" horiz-adv-x="442" 
d="M89 0v232h264v-232h-264zM106 283l-26 443h281l-25 -443h-230z" />
    <glyph glyph-name="quotedbl" unicode="&#x22;" horiz-adv-x="372" 
d="M160 707v-277h-127v277h127zM339 707v-277h-128v277h128z" />
    <glyph glyph-name="numbersign" unicode="#" horiz-adv-x="773" 
d="M460 722l-63 -180h112l63 180h142l-64 -180h126l-49 -133h-124l-37 -104h127l-50 -133h-124l-65 -180h-141l64 180h-112l-64 -180h-142l65 180h-127l49 133h125l36 104h-127l49 133h126l64 180h141zM464 409h-117l-38 -104h117z" />
    <glyph glyph-name="dollar" unicode="$" 
d="M427 -74v73h-18q-156 0 -244.5 61t-100.5 176h300q9 -65 81 -67v105q-204 16 -290.5 61t-86.5 148q0 102 92.5 161.5t266.5 63.5v65h103v-65q163 -3 248.5 -57.5t95.5 -164.5h-287q-10 60 -76 64v-97q205 -12 295 -59t90 -155q0 -232 -366 -240v-73h-103zM511 167
q84 2 84 49q0 51 -80 51h-4v-100zM445 461v93q-83 0 -83 -47q0 -45 83 -46z" />
    <glyph glyph-name="percent" unicode="%" horiz-adv-x="1138" 
d="M37 532q0 92 65.5 143t185.5 51q119 0 184 -51t65 -143q0 -93 -65 -144t-184 -51q-120 0 -185.5 51t-65.5 144zM287 627q-44 0 -69.5 -26t-25.5 -70t25.5 -69.5t69.5 -25.5t69.5 25.5t25.5 69.5t-25.5 70t-69.5 26zM205 -19l602 745h126l-602 -745h-126zM601 176
q0 93 65 144t185 51t185 -51t65 -144q0 -92 -65 -143.5t-185 -51.5q-119 0 -184.5 51.5t-65.5 143.5zM850 272q-43 0 -68.5 -26t-25.5 -70t25 -69.5t69 -25.5t70 25.5t26 69.5t-26 70t-70 26z" />
    <glyph glyph-name="ampersand" unicode="&#x26;" horiz-adv-x="1054" 
d="M725 0l-57 56q-127 -78 -309 -78q-142 0 -227 67t-85 171q0 87 53.5 147t148.5 76q-62 43 -62 121q0 86 76 132.5t220 46.5q148 0 227 -47.5t79 -131.5q0 -65 -45.5 -105t-133.5 -50l123 -108q78 47 151 140l122 -109q-56 -79 -141 -146l202 -182h-342zM537 176l-166 152
q-49 -28 -49 -79q0 -41 35.5 -71t86.5 -30q47 0 93 28zM502 502q67 22 67 63q0 19 -17 31t-46 12q-63 0 -63 -38q0 -32 59 -68z" />
    <glyph glyph-name="quotesingle" unicode="'" horiz-adv-x="192" 
d="M159 707v-277h-126v277h126z" />
    <glyph glyph-name="parenleft" unicode="(" horiz-adv-x="516" 
d="M492 -208q-4 0 -14 -0.5t-14 -0.5q-210 0 -320 119.5t-110 350.5t110 351t320 120q4 0 14 -0.5t14 -0.5v-204h-15q-94 0 -139 -66t-45 -200t45 -199.5t139 -65.5h15v-204z" />
    <glyph glyph-name="parenright" unicode=")" horiz-adv-x="516" 
d="M24 731q4 0 14 0.5t14 0.5q210 0 320 -120t110 -351t-110 -350.5t-320 -119.5q-4 0 -14 0.5t-14 0.5v204h15q94 0 139 65.5t45 199.5t-45 200t-139 66h-15v204z" />
    <glyph glyph-name="asterisk" unicode="*" horiz-adv-x="652" 
d="M326 390l-89 -123l-107 76l90 125l-145 47l40 125l146 -48v153h130v-153l146 48l40 -125l-144 -47l89 -125l-107 -76z" />
    <glyph glyph-name="plus" unicode="+" horiz-adv-x="837" 
d="M487 598v-232h225v-133h-225v-233h-137v233h-225v133h225v232h137z" />
    <glyph glyph-name="comma" unicode="," horiz-adv-x="480" 
d="M108 0v232h264v-154q0 -57 -12 -91.5t-49 -63.5q-62 -49 -169 -80l-23 92q65 22 66 65h-77z" />
    <glyph glyph-name="hyphen" unicode="-" horiz-adv-x="488" 
d="M62 183v196h365v-196h-365z" />
    <glyph glyph-name="hyphen" unicode="&#xad;" horiz-adv-x="488" 
d="M62 183v196h365v-196h-365z" />
    <glyph glyph-name="period" unicode="." horiz-adv-x="480" 
d="M108 0v233h264v-233h-264z" />
    <glyph glyph-name="slash" unicode="/" horiz-adv-x="479" 
d="M-36 -93l393 838h124l-390 -838h-127z" />
    <glyph glyph-name="zero" unicode="0" 
d="M480 544q-78 0 -124 -51t-46 -139t46 -139.5t124 -51.5t124 51t46 140t-46 139.5t-124 50.5zM35 354q0 177 115.5 274.5t329.5 97.5t329.5 -97.5t115.5 -274.5t-116 -275t-329 -98t-329 98t-116 275z" />
    <glyph glyph-name="one" unicode="1" horiz-adv-x="675" 
d="M279 0v458q-72 -24 -138 -27v178q131 22 187 99h202v-708h-251z" />
    <glyph glyph-name="two" unicode="2" 
d="M18 0q8 173 90.5 263t266.5 133q36 9 85 19t72 15t47.5 13.5t33.5 19.5t9 27q0 57 -120 57q-79 0 -117 -23t-38 -74v-2h-303q12 278 436 278q437 0 437 -232q0 -90 -56.5 -139.5t-182.5 -77.5q-48 -11 -117 -23.5t-105 -19.5t-74 -21t-58 -33h578v-180h-884z" />
    <glyph glyph-name="three" unicode="3" 
d="M28 240h291q21 -73 160 -73q144 0 144 63q0 35 -31 48t-103 13h-156v167h144q70 0 98.5 8.5t28.5 37.5q0 54 -131 54q-103 0 -113 -38h-306q8 109 109 157.5t306 48.5q223 0 328 -46.5t105 -150.5q0 -118 -124 -144q145 -28 145 -165q0 -120 -109 -178.5t-331 -58.5
q-229 0 -339 60t-116 197z" />
    <glyph glyph-name="four" unicode="4" 
d="M547 0v112h-511v183l405 413h357v-422h127v-174h-127v-112h-251zM550 282v263l-259 -263h259z" />
    <glyph glyph-name="five" unicode="5" 
d="M29 235h296q7 -67 154 -67q148 0 148 80q0 82 -156 82q-72 0 -131 -23h-278l71 401h745v-171h-564l-14 -78q91 28 217 28q198 0 300.5 -62.5t102.5 -180.5q0 -127 -114 -194t-335 -67q-226 0 -331.5 58.5t-110.5 193.5z" />
    <glyph glyph-name="six" unicode="6" 
d="M322 424q96 43 217 43q188 0 286 -61t98 -177q0 -249 -408 -249q-244 0 -357 88t-113 284q0 191 111 283t338 92q393 0 420 -225h-285q-13 48 -126 48q-160 0 -181 -126zM348 229q0 -71 142 -71q141 0 141 71q0 72 -141 72q-142 0 -142 -72z" />
    <glyph glyph-name="seven" unicode="7" 
d="M146 0q8 103 48 165q33 53 77.5 94t115.5 95q18 13 62.5 46t63 47.5t44 38.5t41.5 45h-553v177h888q-2 -119 -52 -208q-18 -32 -49.5 -66.5t-51 -52.5t-70.5 -61q-5 -4 -21.5 -18.5t-23 -20t-21 -18.5t-22.5 -21t-19 -20t-20 -23.5t-17 -23.5q-51 -77 -54 -175h-366z" />
    <glyph glyph-name="eight" unicode="8" 
d="M127 376q-76 35 -76 131q0 112 105.5 165t323.5 53t323.5 -53t105.5 -165q0 -96 -76 -131q84 -43 84 -150q0 -127 -106.5 -185t-330.5 -58t-330.5 58t-106.5 185q0 107 84 150zM341 498q0 -28 33.5 -40t105.5 -12t105.5 12t33.5 40t-33.5 39.5t-105.5 11.5t-105.5 -11.5
t-33.5 -39.5zM332 223q0 -33 35 -46t113 -13t113 13t35 46t-35.5 46.5t-112.5 13.5t-112.5 -13.5t-35.5 -46.5z" />
    <glyph glyph-name="nine" unicode="9" 
d="M46 205h284q12 -47 127 -47q160 0 180 125q-97 -42 -217 -42q-188 0 -285.5 60.5t-97.5 176.5q0 249 407 249q244 0 357.5 -88t113.5 -284q0 -191 -111 -283t-338 -92q-393 0 -420 225zM328 478q0 -71 142 -71q141 0 141 71t-141 71q-142 0 -142 -71z" />
    <glyph glyph-name="colon" unicode=":" horiz-adv-x="442" 
d="M89 0v232h264v-232h-264zM89 330v232h264v-232h-264z" />
    <glyph glyph-name="semicolon" unicode=";" horiz-adv-x="442" 
d="M89 0v232h264v-154q0 -57 -12 -91.5t-49 -62.5q-61 -50 -169 -81l-23 93q34 11 49.5 25.5t16.5 38.5h-77zM89 331v232h264v-232h-264z" />
    <glyph glyph-name="less" unicode="&#x3c;" horiz-adv-x="837" 
d="M707 460l-393 -161l393 -161v-147l-577 240v137l577 240v-148z" />
    <glyph glyph-name="equal" unicode="=" horiz-adv-x="837" 
d="M712 482v-134h-587v134h587zM712 251v-134h-587v134h587z" />
    <glyph glyph-name="greater" unicode="&#x3e;" horiz-adv-x="837" 
d="M707 368v-137l-577 -240v147l393 161l-393 161v148z" />
    <glyph glyph-name="question" unicode="?" horiz-adv-x="856" 
d="M288 282v12q0 50 24.5 80.5t80.5 53.5q21 9 57.5 20t47.5 18q36 23 36 58q0 59 -104 59q-132 0 -132 -113v-5h-283q0 147 97.5 214t306.5 67q208 0 308.5 -53t100.5 -166q0 -66 -33.5 -103.5t-114.5 -69.5q-15 -6 -44 -16.5t-40.5 -15.5t-25 -15.5t-19.5 -24.5h-263z
M288 0v232h264v-232h-264z" />
    <glyph glyph-name="at" unicode="@" horiz-adv-x="1004" 
d="M552 242l23 95q-4 34 -21 52.5t-44 18.5q-47 0 -82.5 -57.5t-35.5 -134.5q0 -36 15.5 -55.5t42.5 -19.5q35 0 63 27t39 74zM609 447l24 40h118l-76 -308q-2 -10 -2 -15q0 -24 23 -24q61 0 112.5 69t51.5 163q0 115 -85 187t-228 72q-142 0 -241 -70q-75 -53 -116.5 -132
t-41.5 -171q0 -144 98 -230t263 -86q159 0 287 92l57 -79q-158 -117 -355 -117q-189 0 -319 103q-145 118 -145 314q0 175 107 302q74 87 177.5 133.5t226.5 46.5q190 0 307.5 -101.5t117.5 -261.5q0 -84 -33.5 -154.5t-95.5 -118.5q-71 -55 -161 -55q-106 0 -115 75
q-55 -74 -141 -74q-169 0 -169 172q0 121 70.5 201.5t174.5 80.5q74 0 109 -54z" />
    <glyph glyph-name="A" unicode="A" horiz-adv-x="907" 
d="M-29 0l314 726h357l293 -726h-304l-24 72h-309l-26 -72h-301zM365 250h179l-87 256z" />
    <glyph glyph-name="B" unicode="B" horiz-adv-x="1012" 
d="M664 726q147 0 212.5 -40t65.5 -141q0 -109 -96 -159q126 -41 126 -179q0 -207 -271 -207h-621v726h584zM361 556v-103h189q55 0 76.5 9.5t21.5 42.5q0 34 -21 42.5t-77 8.5h-189zM361 181h199q62 0 86 10.5t24 48.5t-24 49.5t-86 11.5h-199v-120z" />
    <glyph glyph-name="C" unicode="C" horiz-adv-x="1034" 
d="M685 421q-7 67 -47.5 102.5t-111.5 35.5q-91 0 -138.5 -50.5t-47.5 -145.5t47.5 -145t138.5 -50q133 0 158 118h324q-22 -150 -144 -227.5t-338 -77.5q-242 0 -365 96.5t-123 285.5t123 285.5t365 96.5q227 0 349.5 -84t130.5 -240h-321z" />
    <glyph glyph-name="D" unicode="D" horiz-adv-x="1047" 
d="M80 727h465q227 0 344.5 -93.5t117.5 -270.5t-117 -270t-345 -93h-465v727zM361 547v-354h140q107 0 155.5 40.5t48.5 136.5q0 95 -48.5 136t-155.5 41h-140z" />
    <glyph glyph-name="E" unicode="E" horiz-adv-x="883" 
d="M79 0v726h769v-178h-488v-87h395v-178h-395v-96h512v-187h-793z" />
    <glyph glyph-name="F" unicode="F" horiz-adv-x="814" 
d="M79 0v726h725v-178h-443v-99h361v-178h-361v-271h-282z" />
    <glyph glyph-name="G" unicode="G" horiz-adv-x="1057" 
d="M844 65q-96 -84 -318 -84q-242 0 -365 96.5t-123 285.5t123 285.5t365 96.5q207 0 328 -70t137 -191h-308q-44 87 -149 87q-88 0 -141 -56t-53 -152q0 -97 52 -150t146 -53q72 0 118 26t56 69h-117v157h405v-412h-126z" />
    <glyph glyph-name="H" unicode="H" horiz-adv-x="1043" 
d="M80 0v726h281v-251h321v251h281v-726h-281v294h-321v-294h-281z" />
    <glyph glyph-name="I" unicode="I" horiz-adv-x="439" 
d="M79 0v726h282v-726h-282z" />
    <glyph glyph-name="J" unicode="J" horiz-adv-x="814" 
d="M17 311h282v-10q0 -129 86 -129q55 0 72 34t17 118v402h282v-374q0 -73 -2 -110t-13.5 -81t-34.5 -75q-80 -106 -305 -106q-204 0 -294.5 68.5t-90.5 229.5q0 21 1 33z" />
    <glyph glyph-name="K" unicode="K" horiz-adv-x="982" 
d="M80 0v726h281v-251l258 251h380l-302 -262l332 -464h-349l-196 295l-123 -100v-195h-281z" />
    <glyph glyph-name="L" unicode="L" horiz-adv-x="813" 
d="M79 0v726h282v-527h443v-199h-725z" />
    <glyph glyph-name="M" unicode="M" horiz-adv-x="1242" 
d="M79 0v726h417l123 -442l133 442h411v-726h-261v567l-172 -567h-220l-170 567v-567h-261z" />
    <glyph glyph-name="N" unicode="N" horiz-adv-x="1044" 
d="M79 0v726h332l281 -418v418h272v-726h-315l-305 425v-425h-265z" />
    <glyph glyph-name="O" unicode="O" horiz-adv-x="1052" 
d="M38 363q0 189 123 285.5t365 96.5t365 -96.5t123 -285.5t-123 -285.5t-365 -96.5t-365 96.5t-123 285.5zM340 363q0 -95 47.5 -145t138.5 -50t138.5 50t47.5 145t-47.5 145.5t-138.5 50.5t-138.5 -50.5t-47.5 -145.5z" />
    <glyph glyph-name="P" unicode="P" 
d="M80 0v726h543q155 0 238 -62t83 -173q0 -112 -83 -174t-238 -62h-262v-255h-281zM515 570h-154v-157h154q66 0 94 16.5t28 62.5q0 45 -28 61.5t-94 16.5z" />
    <glyph glyph-name="Q" unicode="Q" horiz-adv-x="1052" 
d="M705 -4q-70 -16 -171 -16q-496 0 -496 382q0 189 122.5 285.5t365.5 96.5t365.5 -96.5t122.5 -285.5q0 -192 -127 -287l87 -89l-132 -129zM537 167l-47 49l131 129l75 -76q16 36 16 93q0 95 -47.5 145.5t-138.5 50.5t-138.5 -50.5t-47.5 -145.5q0 -94 47.5 -144.5
t135.5 -50.5h14z" />
    <glyph glyph-name="R" unicode="R" horiz-adv-x="996" 
d="M365 412h164q61 0 89 14.5t28 52.5q0 39 -28.5 51t-95.5 12h-157v-130zM633 726q179 0 240 -37q83 -51 83 -158q0 -65 -31.5 -113.5t-87.5 -70.5q54 -23 70.5 -55t19.5 -100q6 -121 14 -148q9 -24 25 -33v-11h-312q-10 16 -13 38t-3.5 56t-2.5 55q-4 40 -27 56t-75 16
h-168v-221h-285v726h553z" />
    <glyph glyph-name="S" unicode="S" horiz-adv-x="983" 
d="M34 221h340q4 -29 37 -45t90 -16q114 0 114 52q0 46 -101 58l-210 26q-262 32 -262 216q0 123 101 178t317 55q224 0 335.5 -55t120.5 -175h-327q-11 69 -141 69q-49 0 -75.5 -13t-26.5 -35q0 -23 24 -33t84 -18l256 -37q239 -34 239 -212q0 -135 -120 -196.5t-373 -61.5
q-205 0 -312.5 63.5t-109.5 179.5z" />
    <glyph glyph-name="T" unicode="T" horiz-adv-x="811" 
d="M264 0v542h-262v184h807v-184h-263v-542h-282z" />
    <glyph glyph-name="U" unicode="U" horiz-adv-x="1017" 
d="M361 726v-355q0 -106 31.5 -150t116.5 -44t116 44t31 150v355h281v-381q0 -190 -103.5 -277.5t-324.5 -87.5q-220 0 -324.5 88.5t-104.5 276.5v381h281z" />
    <glyph glyph-name="V" unicode="V" horiz-adv-x="859" 
d="M276 0l-320 726h317l154 -486l162 486h314l-333 -726h-294z" />
    <glyph glyph-name="W" unicode="W" horiz-adv-x="1232" 
d="M188 0l-248 726h302l126 -507l134 507h233l135 -507l119 507h303l-249 -726h-305l-123 470l-125 -470h-302z" />
    <glyph glyph-name="X" unicode="X" horiz-adv-x="907" 
d="M-25 0l323 383l-277 343h340l99 -157l108 157h335l-281 -343l317 -383h-351l-130 195l-133 -195h-350z" />
    <glyph glyph-name="Y" unicode="Y" horiz-adv-x="837" 
d="M275 0v205l-318 521h330l131 -299l139 299h323l-323 -521v-205h-282z" />
    <glyph glyph-name="Z" unicode="Z" horiz-adv-x="857" 
d="M25 0v161l425 383h-400v182h782v-165l-423 -370h409v-191h-793z" />
    <glyph glyph-name="bracketleft" unicode="[" horiz-adv-x="516" 
d="M62 -185v916h432v-193h-176v-530h176v-193h-432z" />
    <glyph glyph-name="backslash" unicode="\" horiz-adv-x="479" 
d="M481 -93h-127l-390 838h124z" />
    <glyph glyph-name="bracketright" unicode="]" horiz-adv-x="516" 
d="M454 731v-916h-432v193h176v530h-176v193h432z" />
    <glyph glyph-name="asciicircum" unicode="^" horiz-adv-x="1005" 
d="M584 718l217 -278h-148l-151 152l-152 -152h-148l217 278h165z" />
    <glyph glyph-name="underscore" unicode="_" horiz-adv-x="502" 
d="M502 -99v-138h-502v138h502z" />
    <glyph glyph-name="grave" unicode="`" horiz-adv-x="503" 
d="M140 638l-149 153h296l92 -153h-239z" />
    <glyph glyph-name="a" unicode="a" horiz-adv-x="895" 
d="M579 77q-50 -52 -117 -73.5t-166 -21.5q-276 0 -276 184q0 63 30 101q25 31 67 48t79 21.5t113 9.5q32 2 69 4t59.5 2.5t46.5 2t37.5 4t25 6.5t16 10.5t4.5 16.5q0 23 -29.5 37t-82.5 14q-64 0 -94 -12t-35 -44h-259q8 105 99.5 147.5t286.5 42.5q222 0 301 -61
q45 -36 61 -84t16 -128v-217q0 -56 25 -75v-12h-261q-14 33 -16 77zM578 262q-18 -9 -41.5 -14.5t-39 -7t-49.5 -4t-47 -3.5q-53 -5 -74.5 -15.5t-21.5 -35.5q0 -26 24 -41t68 -15q84 0 133 33.5t49 88.5q0 9 -1 14z" />
    <glyph glyph-name="b" unicode="b" horiz-adv-x="872" 
d="M68 0v732h251v-215q91 60 209 60q144 0 228.5 -80t84.5 -215q0 -134 -84 -215t-225 -81q-132 0 -223 69l-2 -55h-239zM319 282q0 -57 35.5 -91t93.5 -34t93.5 34t35.5 91t-35.5 90.5t-93.5 33.5t-93.5 -34t-35.5 -90z" />
    <glyph glyph-name="c" unicode="c" horiz-adv-x="867" 
d="M835 247q-27 -266 -402 -266q-194 0 -298.5 79t-104.5 221t104.5 221t298.5 79q362 0 397 -243h-269q-30 78 -122 78q-67 0 -105.5 -36t-38.5 -98q0 -61 37.5 -97t100.5 -36q53 0 89 26.5t45 71.5h268z" />
    <glyph glyph-name="d" unicode="d" horiz-adv-x="872" 
d="M804 732v-732h-239l-2 55q-92 -69 -223 -69q-141 0 -225 81t-84 215q0 135 84.5 215t228.5 80q118 0 209 -60v215h251zM553 282q0 56 -35.5 90t-93.5 34t-93.5 -33.5t-35.5 -90.5t35.5 -91t93.5 -34t93.5 34t35.5 91z" />
    <glyph glyph-name="e" unicode="e" horiz-adv-x="871" 
d="M838 171q-57 -190 -408 -190q-193 0 -296.5 79t-103.5 221t103.5 221t296.5 79q204 0 308.5 -88.5t104.5 -259.5v-10h-544q0 -45 38 -70.5t108 -25.5q93 0 120 44h273zM286 343h299q-5 47 -42 72.5t-99 25.5q-138 0 -158 -98z" />
    <glyph glyph-name="f" unicode="f" horiz-adv-x="468" 
d="M98 0v402l-98 -2v158h99q-1 10 -1 29q0 88 45.5 123.5t155.5 35.5q43 0 150 -5v-133h-54q-27 0 -38.5 -9.5t-11.5 -33.5v-7h104v-158h-100v-400h-251z" />
    <glyph glyph-name="g" unicode="g" horiz-adv-x="872" 
d="M804 125q0 -125 -22 -162q-48 -80 -137 -115t-234 -35q-168 0 -257 45t-107 142h337q11 -36 64 -36q57 0 81.5 24.5t24.5 80.5q0 19 -1 31q-84 -63 -221 -63q-138 0 -219.5 74t-81.5 196t82 196t220 74q142 0 230 -68l2 54h239v-438zM295 302q0 -49 35 -77.5t94 -28.5
t94 28.5t35 77.5q0 48 -35.5 77t-93.5 29t-93.5 -29t-35.5 -77z" />
    <glyph glyph-name="h" unicode="h" horiz-adv-x="844" 
d="M68 0v732h251v-227q100 69 223 69q125 0 182 -63.5t57 -198.5v-312h-251v264q0 61 -20 86t-72 25q-55 0 -87 -26.5t-32 -72.5v-276h-251z" />
    <glyph glyph-name="i" unicode="i" horiz-adv-x="406" 
d="M81 609v143h251v-143h-251zM81 0v563h251v-563h-251z" />
    <glyph glyph-name="j" unicode="j" horiz-adv-x="401" 
d="M82 563h253v-500q0 -77 -10.5 -121.5t-37.5 -70.5q-51 -50 -187 -50q-62 0 -125 12v180h37q48 0 59 22.5t11 95.5v432zM82 610v142h253v-142h-253z" />
    <glyph glyph-name="k" unicode="k" horiz-adv-x="835" 
d="M68 0v732h251v-346l181 177h337l-222 -195l248 -368h-302l-134 219l-108 -92v-127h-251z" />
    <glyph glyph-name="l" unicode="l" horiz-adv-x="406" 
d="M75 0v732h257v-732h-257z" />
    <glyph glyph-name="m" unicode="m" horiz-adv-x="1270" 
d="M66 0v562h249v-58q98 69 216 69q68 0 114 -24t79 -77q108 101 252 101q121 0 175.5 -63.5t54.5 -198.5v-311h-248v264q0 60 -18.5 85t-68.5 25q-53 0 -82.5 -26.5t-29.5 -72.5v-275h-245v264q0 60 -18.5 85t-67.5 25q-53 0 -83 -26.5t-30 -72.5v-275h-249z" />
    <glyph glyph-name="n" unicode="n" horiz-adv-x="842" 
d="M66 0v562h251v-58q100 69 223 69q125 0 181.5 -63.5t56.5 -198.5v-311h-251v264q0 60 -19.5 85t-71.5 25q-55 0 -87 -26.5t-32 -72.5v-275h-251z" />
    <glyph glyph-name="o" unicode="o" horiz-adv-x="851" 
d="M30 281q0 142 102.5 221t293.5 79q190 0 292.5 -79t102.5 -221t-102.5 -221t-292.5 -79q-191 0 -293.5 79t-102.5 221zM295 281q0 -58 35.5 -92.5t94.5 -34.5t94.5 34.5t35.5 92.5t-35.5 92.5t-94.5 34.5t-94.5 -34.5t-35.5 -92.5z" />
    <glyph glyph-name="p" unicode="p" horiz-adv-x="872" 
d="M68 -182v745h239l2 -54q90 68 223 68q141 0 225 -81t84 -215q0 -135 -84.5 -215t-228.5 -80q-118 0 -209 60v-228h-251zM319 281q0 -56 35.5 -90t93.5 -34t93.5 33.5t35.5 90.5t-35.5 91t-93.5 34t-93.5 -34t-35.5 -91z" />
    <glyph glyph-name="q" unicode="q" horiz-adv-x="872" 
d="M553 46q-91 -60 -209 -60q-144 0 -228.5 80t-84.5 215q0 134 84 215t225 81q133 0 223 -68l2 54h239v-745h-251v228zM295 281q0 -57 35.5 -90.5t93.5 -33.5t93.5 34t35.5 90q0 57 -35.5 91t-93.5 34t-93.5 -34t-35.5 -91z" />
    <glyph glyph-name="r" unicode="r" horiz-adv-x="689" 
d="M70 0v562h249l3 -43q57 57 156 57q98 0 142.5 -53t44.5 -166v-49h-222v4q0 85 -59 85q-33 0 -46 -25.5t-13 -81.5v-290h-255z" />
    <glyph glyph-name="s" unicode="s" horiz-adv-x="842" 
d="M25 179h307q3 -30 26.5 -42.5t72.5 -12.5q87 0 87 38q0 24 -24 31.5t-91 13.5q-7 0 -11 0.5t-10.5 1t-12.5 1.5q-67 6 -100 10t-76.5 13.5t-74.5 23.5q-79 35 -79 137q0 99 91 143t283 44q183 0 274 -45.5t97 -142.5h-290q-2 29 -26.5 41.5t-75.5 12.5q-87 0 -87 -39
q0 -26 34 -34q11 -2 96 -10q222 -20 255 -31q64 -22 91 -55t27 -93q0 -110 -97 -157t-309 -47q-189 0 -281 47t-96 151z" />
    <glyph glyph-name="t" unicode="t" horiz-adv-x="467" 
d="M446 1q-66 -11 -124 -11q-93 0 -150 23q-47 19 -62 55t-15 103v220h-89v158h89v184h254v-184h90v-158h-90v-116q0 -74 9 -96.5t52 -22.5h36v-155z" />
    <glyph glyph-name="u" unicode="u" horiz-adv-x="842" 
d="M525 58q-100 -69 -223 -69q-125 0 -181.5 63.5t-56.5 198.5v311h251v-264q0 -60 19.5 -85t71.5 -25q55 0 87 26.5t32 72.5v275h251v-562h-251v58z" />
    <glyph glyph-name="v" unicode="v" horiz-adv-x="768" 
d="M241 0l-262 562h289l90 -251q15 -41 23 -88q8 40 24 83l90 256h286l-262 -562h-278z" />
    <glyph glyph-name="w" unicode="w" horiz-adv-x="1176" 
d="M184 0l-191 562h272l67 -241q12 -45 24 -120q7 29 36 103l100 258h187l103 -256q12 -30 30 -90q5 33 26 105l72 241h273l-195 -562h-288l-93 229q-15 35 -24 77q-9 -43 -22 -73l-95 -233h-282z" />
    <glyph glyph-name="x" unicode="x" horiz-adv-x="775" 
d="M-51 0l261 295l-236 267h315l68 -105q20 -31 26 -50q9 23 27 49l76 106h308l-238 -266l259 -296h-323l-80 114q-22 32 -28 53q-11 -29 -24 -47l-87 -120h-324z" />
    <glyph glyph-name="y" unicode="y" horiz-adv-x="726" 
d="M60 -8h56q53 0 77.5 18t36.5 68l-259 485h274l92 -200q23 -48 32 -90q8 34 26 76l91 214h267l-238 -488q-75 -153 -115 -193q-33 -32 -70.5 -43t-94.5 -11h-175v164z" />
    <glyph glyph-name="z" unicode="z" horiz-adv-x="710" 
d="M12 0v148l310 243h-276v171h633v-147l-303 -237h296v-178h-660z" />
    <glyph glyph-name="braceleft" unicode="{" horiz-adv-x="502" 
d="M444 585q-4 0 -11 0.5t-10 0.5q-45 0 -59 -16t-14 -62v-117q0 -63 -21.5 -91.5t-84.5 -39.5q63 -12 84.5 -39.5t21.5 -90.5v-118q0 -45 14 -61t58 -16q3 0 10.5 0.5t11.5 0.5v-139h-39q-120 0 -163 22q-33 17 -43 46t-10 86v127q0 61 -22.5 87.5t-78.5 26.5q-2 0 -8 -0.5
t-9 -0.5v138q3 0 9 -0.5t8 -0.5q56 0 78.5 26.5t22.5 87.5v127q0 57 10 86.5t43 46.5q44 22 163 22h39v-139z" />
    <glyph glyph-name="bar" unicode="|" horiz-adv-x="502" 
d="M320 767v-1004h-137v1004h137z" />
    <glyph glyph-name="braceright" unicode="}" horiz-adv-x="502" 
d="M314 569v-127q0 -61 22.5 -87.5t78.5 -26.5q2 0 8 0.5t9 0.5v-138q-3 0 -9 0.5t-8 0.5q-56 0 -78.5 -26.5t-22.5 -87.5v-127q0 -56 -10.5 -86t-43.5 -47q-42 -21 -155 -21h-46v138h21q45 0 59 15.5t14 61.5v118q0 63 21.5 90.5t84.5 39.5q-63 11 -84.5 39t-21.5 91v118
q0 46 -14 62t-59 16q-3 0 -10 -0.5t-11 -0.5v139h39q119 0 162 -22q33 -17 43.5 -47t10.5 -86z" />
    <glyph glyph-name="asciitilde" unicode="~" horiz-adv-x="837" 
d="M751 266q-98 -65 -182 -65q-51 0 -131 28q-100 34 -163 34q-79 0 -188 -78v147q114 71 200 71q52 0 137 -27q10 -3 35 -12t38 -13t34 -8t40 -4q82 0 180 74v-147z" />
    <glyph glyph-name="sterling" unicode="&#xa3;" horiz-adv-x="961" 
d="M185 -15l-84 181q62 49 62 109q0 13 -3 28h-59v120h49q-4 25 -4 56q0 244 367 244q198 0 293 -61t96 -191h-292q-5 71 -84 71q-80 0 -80 -80q0 -7 2 -39h185v-120h-189q0 -38 -38 -85q41 7 76 7q36 0 106 -12t104 -12q88 0 160 58l58 -197q-97 -78 -227 -78
q-47 0 -125 13q-31 5 -108.5 22t-109.5 17q-69 0 -155 -51z" />
    <glyph glyph-name="currency" unicode="&#xa4;" horiz-adv-x="610" 
d="M189 615q52 33 117 33q66 0 116 -33l97 97l65 -66l-96 -99q32 -53 32 -113t-32 -113l96 -98l-65 -67l-97 98q-52 -34 -116 -34t-117 34l-97 -98l-65 67l96 98q-32 51 -32 114q0 60 32 112l-96 99l65 66zM426 434q0 48 -36 84t-84 36q-49 0 -85 -36t-36 -84t36 -84t85 -36
t84.5 36t35.5 84z" />
    <glyph glyph-name="brokenbar" unicode="&#xa6;" horiz-adv-x="502" 
d="M320 702v-372h-137v372h137zM320 200v-372h-137v372h137z" />
    <glyph glyph-name="section" unicode="&#xa7;" horiz-adv-x="954" 
d="M68 65h270q10 -67 133 -67q128 0 128 37q0 14 -13 20t-45 12q-7 1 -11 2l-200 39q-140 28 -193 49q-118 47 -118 174q0 114 101 148q-28 35 -28 81q0 184 360 184q387 0 400 -208h-269q-5 35 -34.5 47t-95.5 12q-52 0 -75.5 -7.5t-23.5 -27.5q0 -13 13 -19t46 -12
l237 -44q126 -24 170 -39q115 -40 115 -162q0 -115 -95 -145q42 -36 42 -97q0 -102 -99 -149.5t-305 -47.5q-192 0 -295.5 56t-114.5 164zM692 220q9 34 9 39q0 21 -14 31.5t-47 16.5l-325 63q-37 7 -53 13q-10 -21 -10 -39q0 -21 14 -31t49 -17l325 -63q28 -5 52 -13z" />
    <glyph glyph-name="copyright" unicode="&#xa9;" horiz-adv-x="837" 
d="M418 733q157 0 263 -108q107 -105 107 -261t-107 -258q-111 -111 -263 -111q-151 0 -259 110q-109 107 -109 259q0 153 110 263q103 106 258 106zM712 365q0 122 -85 207q-86 86 -208 86q-124 0 -206 -84q-87 -89 -87 -209q0 -121 86 -207t207 -86q120 0 209 87
q84 82 84 206zM484 433q-1 31 -18 49t-46 18q-35 0 -55.5 -35t-20.5 -99q0 -129 80 -129q59 0 62 71h122q-3 -74 -53.5 -117t-133.5 -43q-96 0 -150.5 57t-54.5 157q0 99 54.5 159t141.5 60q88 0 137.5 -39t53.5 -109h-119z" />
    <glyph glyph-name="guillemotleft" unicode="&#xab;" horiz-adv-x="685" 
d="M367 348l248 195v-204l-79 -58l79 -58v-204l-248 195v134zM65 348l248 195v-204l-80 -58l80 -58v-204l-248 195v134z" />
    <glyph glyph-name="logicalnot" unicode="&#xac;" horiz-adv-x="837" 
d="M712 427v-247h-133v116h-454v131h587z" />
    <glyph glyph-name="registered" unicode="&#xae;" horiz-adv-x="837" 
d="M418 733q157 0 263 -108q107 -105 107 -261t-107 -258q-111 -111 -263 -111q-151 0 -259 110q-109 107 -109 259q0 153 110 263q103 106 258 106zM712 365q0 122 -85 207q-86 86 -208 86q-124 0 -206 -84q-87 -89 -87 -209q0 -121 86 -207t207 -86q120 0 209 87
q84 82 84 206zM423 572q175 0 175 -118q0 -79 -81 -107l88 -174h-137l-71 153h-12v-153h-126v399h164zM404 494h-19v-95h26q58 0 58 48q0 47 -65 47z" />
    <glyph glyph-name="degree" unicode="&#xb0;" horiz-adv-x="331" 
d="M166 723q65 0 111.5 -46.5t46.5 -112.5q0 -64 -46.5 -111t-112.5 -47q-65 0 -111.5 46t-46.5 112t47 112.5t112 46.5zM240 565q0 30 -22 52t-53 22q-30 0 -51.5 -21.5t-21.5 -52.5t21.5 -53t52.5 -22q30 0 52 22.5t22 52.5z" />
    <glyph glyph-name="plusminus" unicode="&#xb1;" horiz-adv-x="837" 
d="M487 619v-152h225v-134h-225v-152h-137v152h-225v134h225v152h137zM712 113v-134h-587v134h587z" />
    <glyph glyph-name="mu" unicode="&#xb5;" horiz-adv-x="674" 
d="M296 534l-41 -302q-2 -18 -2 -26q0 -65 62 -65q75 0 90 104l42 289h205l-78 -534h-181l9 65q-35 -67 -92 -67q-60 0 -86 61l-36 -266h-202l103 741h207z" />
    <glyph glyph-name="mu" unicode="&#x3bc;" horiz-adv-x="674" 
d="M296 534l-41 -302q-2 -18 -2 -26q0 -65 62 -65q75 0 90 104l42 289h205l-78 -534h-181l9 65q-35 -67 -92 -67q-60 0 -86 61l-36 -266h-202l103 741h207z" />
    <glyph glyph-name="paragraph" unicode="&#xb6;" horiz-adv-x="502" 
d="M497 656h-49v-656h-100v656h-68v-656h-99v385q-81 4 -128.5 50.5t-47.5 119.5q0 76 52 123.5t139 47.5h301v-70z" />
    <glyph glyph-name="periodcentered" unicode="&#xb7;" horiz-adv-x="480" 
d="M98 354q0 59 41.5 100.5t100.5 41.5t100.5 -41.5t41.5 -100.5t-41.5 -100.5t-100.5 -41.5t-100.5 41.5t-41.5 100.5z" />
    <glyph glyph-name="periodcentered" unicode="&#x2219;" horiz-adv-x="480" 
d="M98 354q0 59 41.5 100.5t100.5 41.5t100.5 -41.5t41.5 -100.5t-41.5 -100.5t-100.5 -41.5t-100.5 41.5t-41.5 100.5z" />
    <glyph glyph-name="guillemotright" unicode="&#xbb;" horiz-adv-x="685" 
d="M317 214l-247 -195v204l79 58l-79 58v204l247 -195v-134zM619 214l-247 -195v204l80 58l-80 58v204l247 -195v-134z" />
    <glyph glyph-name="afii10023" unicode="&#x401;" horiz-adv-x="883" 
d="M79 0v725h769v-178h-488v-86h395v-179h-395v-95h512v-187h-793zM180 805v142h200v-142h-200zM540 805v142h200v-142h-200z" />
    <glyph glyph-name="afii10051" unicode="&#x402;" horiz-adv-x="1147" 
d="M618 -1v153q101 -15 144 -15q32 0 52.5 18.5t20.5 45.5q0 85 -142 85q-74 0 -147 -25v-262h-282v542h-262v184h833v-184h-289v-118q138 29 218 29q55 0 102.5 -6t95 -22t81 -41.5t54 -67.5t20.5 -97q0 -99 -85 -168.5t-197 -69.5q-144 0 -217 19z" />
    <glyph glyph-name="afii10052" unicode="&#x403;" horiz-adv-x="813" 
d="M79 726h725v-181h-443v-545h-282v726zM319 800l92 153h296l-149 -153h-239z" />
    <glyph glyph-name="afii10053" unicode="&#x404;" horiz-adv-x="1034" 
d="M673 421q-7 67 -47.5 102.5t-111.5 35.5q-70 0 -116 -31.5t-63 -90.5h249v-161h-244q30 -108 174 -108q133 0 158 118h324q-22 -150 -144 -227.5t-338 -77.5q-242 0 -365 96.5t-123 285.5t123 285.5t365 96.5q227 0 349.5 -84t130.5 -240h-321z" />
    <glyph glyph-name="afii10054" unicode="&#x405;" horiz-adv-x="983" 
d="M34 221h340q4 -29 37 -45t90 -16q114 0 114 52q0 46 -101 58l-210 26q-262 32 -262 216q0 123 101 178t317 55q224 0 335.5 -55t120.5 -175h-327q-11 69 -141 69q-49 0 -75.5 -13t-26.5 -35q0 -23 24 -33t84 -18l256 -37q239 -34 239 -212q0 -135 -120 -196.5t-373 -61.5
q-205 0 -312.5 63.5t-109.5 179.5z" />
    <glyph glyph-name="afii10055" unicode="&#x406;" horiz-adv-x="439" 
d="M79 0v726h282v-726h-282z" />
    <glyph glyph-name="afii10056" unicode="&#x407;" horiz-adv-x="439" 
d="M79 0v725h282v-725h-282zM-12 805v142h200v-142h-200zM251 805v142h200v-142h-200z" />
    <glyph glyph-name="afii10057" unicode="&#x408;" horiz-adv-x="814" 
d="M17 311h282v-10q0 -129 86 -129q55 0 72 34t17 118v402h282v-374q0 -73 -2 -110t-13.5 -81t-34.5 -75q-80 -106 -305 -106q-204 0 -294.5 68.5t-90.5 229.5q0 21 1 33z" />
    <glyph glyph-name="afii10058" unicode="&#x409;" horiz-adv-x="1572" 
d="M692 0v545h-245l2 -197q0 -202 -83 -293q-65 -68 -200 -68q-82 0 -166 15v169q24 -7 70 -7q28 0 46 9.5t28 22.5t15 41t6 50.5t1 65.5v373h807v-270h277q150 0 228 -58.5t78 -167.5q0 -108 -81 -169t-231 -61h-552zM973 156h164q61 0 87 15t26 57q0 43 -26 58t-87 15
h-164v-145z" />
    <glyph glyph-name="afii10059" unicode="&#x40a;" horiz-adv-x="1562" 
d="M80 726h281v-251h321v251h281v-270h277q150 0 228 -58.5t78 -167.5q0 -108 -81 -169t-231 -61h-552v294h-321v-294h-281v726zM1127 156q61 0 87 15t26 57q0 43 -26 58t-87 15h-164v-145h164z" />
    <glyph glyph-name="afii10060" unicode="&#x40b;" horiz-adv-x="1162" 
d="M264 0v542h-262v184h833v-184h-289v-118q13 2 59 10.5t84 13.5t75 5q70 0 128 -10.5t110.5 -35t82.5 -72.5t30 -116v-219h-281v164q0 72 -37 97.5t-104 25.5q-74 0 -147 -25v-262h-282z" />
    <glyph glyph-name="afii10061" unicode="&#x40c;" horiz-adv-x="982" 
d="M80 0v726h281v-251l258 251h380l-302 -262l332 -464h-349l-196 295l-123 -100v-195h-281zM381 800l92 153h296l-149 -153h-239z" />
    <glyph glyph-name="afii10062" unicode="&#x40e;" horiz-adv-x="1044" 
d="M285 953h161q1 -70 94 -73q94 3 95 73h161q0 -77 -68.5 -121.5t-186.5 -45.5q-118 1 -187 45t-69 122zM246 0v173q125 -41 160 45l-344 508h330l141 -319l129 319h323l-300 -526q-58 -101 -104 -151q-61 -68 -185 -68q-60 0 -150 19z" />
    <glyph glyph-name="afii10145" unicode="&#x40f;" horiz-adv-x="1061" 
d="M80 725h281v-534h321v534h281v-725h-307v-142h-268v142h-308v725z" />
    <glyph glyph-name="afii10017" unicode="&#x410;" horiz-adv-x="907" 
d="M-29 0l314 726h357l293 -726h-304l-24 72h-309l-26 -72h-301zM365 250h179l-87 256z" />
    <glyph glyph-name="afii10018" unicode="&#x411;" 
d="M80 726h772v-156h-491v-114h277q150 0 228 -58.5t78 -167.5q0 -108 -81 -169t-231 -61h-552v726zM525 156q61 0 87 15t26 57q0 43 -26 58t-87 15h-164v-145h164z" />
    <glyph glyph-name="afii10019" unicode="&#x412;" horiz-adv-x="1012" 
d="M664 726q147 0 212.5 -40t65.5 -141q0 -109 -96 -159q126 -41 126 -179q0 -207 -271 -207h-621v726h584zM361 556v-103h189q55 0 76.5 9.5t21.5 42.5q0 34 -21 42.5t-77 8.5h-189zM361 181h199q62 0 86 10.5t24 48.5t-24 49.5t-86 11.5h-199v-120z" />
    <glyph glyph-name="afii10020" unicode="&#x413;" horiz-adv-x="813" 
d="M79 726h725v-181h-443v-545h-282v726z" />
    <glyph glyph-name="afii10021" unicode="&#x414;" horiz-adv-x="1053" 
d="M955 726v-553h80v-315h-268v142h-489v-142h-268v315h48q33 0 57 25t36 67.5t17 86t5 92.5v282h782zM674 173v372h-220v-98q0 -161 -50 -274h270z" />
    <glyph glyph-name="afii10022" unicode="&#x415;" horiz-adv-x="883" 
d="M79 0v726h769v-178h-488v-87h395v-178h-395v-96h512v-187h-793z" />
    <glyph glyph-name="afii10024" unicode="&#x416;" horiz-adv-x="1450" 
d="M584 726h282v-251l237 251h365l-290 -263l319 -465h-336l-177 308l-118 -111v-195h-282v195l-118 111l-177 -308h-336l319 465l-290 263h365l237 -251v251z" />
    <glyph glyph-name="afii10025" unicode="&#x417;" 
d="M28 240h291q21 -73 160 -73q144 0 144 63q0 35 -31 48t-103 13h-132v167h120q70 0 98.5 8.5t28.5 37.5q0 54 -131 54q-103 0 -113 -38h-306q8 109 109 157.5t306 48.5q223 0 328 -46.5t105 -150.5q0 -118 -124 -144q145 -28 145 -165q0 -120 -109 -178.5t-331 -58.5
q-229 0 -339 60t-116 197z" />
    <glyph glyph-name="afii10026" unicode="&#x418;" horiz-adv-x="1044" 
d="M963 0h-265v432l-305 -432h-315v726h272v-418l295 418h318v-726z" />
    <glyph glyph-name="afii10027" unicode="&#x419;" horiz-adv-x="1044" 
d="M280 953h161q1 -70 94 -73q94 3 95 73h161q0 -77 -68.5 -121.5t-186.5 -45.5q-118 1 -187 45t-69 122zM963 0h-265v432l-305 -432h-315v726h272v-418l295 418h318v-726z" />
    <glyph glyph-name="afii10028" unicode="&#x41a;" horiz-adv-x="982" 
d="M80 0v726h281v-251l258 251h380l-302 -262l332 -464h-349l-196 295l-123 -100v-195h-281z" />
    <glyph glyph-name="afii10029" unicode="&#x41b;" horiz-adv-x="1053" 
d="M166 353v373h807v-726h-281v545h-245l-1 -198q0 -204 -80 -292q-65 -68 -200 -68q-82 0 -166 15v169q24 -7 70 -7q28 0 46 9.5t28 22.5t15 41t6 50.5t1 65.5z" />
    <glyph glyph-name="afii10030" unicode="&#x41c;" horiz-adv-x="1242" 
d="M79 0v726h417l123 -442l133 442h411v-726h-261v567l-172 -567h-220l-170 567v-567h-261z" />
    <glyph glyph-name="afii10031" unicode="&#x41d;" horiz-adv-x="1043" 
d="M80 0v726h281v-251h321v251h281v-726h-281v294h-321v-294h-281z" />
    <glyph glyph-name="afii10032" unicode="&#x41e;" horiz-adv-x="1052" 
d="M38 363q0 189 123 285.5t365 96.5t365 -96.5t123 -285.5t-123 -286.5t-365 -97.5t-365 97.5t-123 286.5zM340 363q0 -95 47.5 -145t138.5 -50t138.5 50t47.5 145t-47.5 145.5t-138.5 50.5t-138.5 -50.5t-47.5 -145.5z" />
    <glyph glyph-name="afii10033" unicode="&#x41f;" horiz-adv-x="1043" 
d="M80 0v726h883v-726h-281v545h-321v-545h-281z" />
    <glyph glyph-name="afii10034" unicode="&#x420;" 
d="M80 0v726h543q155 0 238 -62t83 -173q0 -112 -83 -174t-238 -62h-262v-255h-281zM515 570h-154v-157h154q66 0 94 16.5t28 62.5q0 45 -28 61.5t-94 16.5z" />
    <glyph glyph-name="afii10035" unicode="&#x421;" horiz-adv-x="1034" 
d="M685 421q-7 67 -47.5 102.5t-111.5 35.5q-91 0 -138.5 -50.5t-47.5 -145.5t47.5 -145t138.5 -50q133 0 158 118h324q-22 -150 -144 -227.5t-338 -77.5q-242 0 -365 96.5t-123 285.5t123 285.5t365 96.5q227 0 349.5 -84t130.5 -240h-321z" />
    <glyph glyph-name="afii10036" unicode="&#x422;" horiz-adv-x="811" 
d="M264 0v542h-262v184h807v-184h-263v-542h-282z" />
    <glyph glyph-name="afii10037" unicode="&#x423;" horiz-adv-x="837" 
d="M141 0v173q125 -41 160 45l-344 508h330l141 -319l129 319h323l-300 -526q-58 -101 -104 -151q-61 -68 -185 -68q-60 0 -150 19z" />
    <glyph glyph-name="afii10038" unicode="&#x424;" horiz-adv-x="1374" 
d="M827 727v-122l214 -1q153 0 231 -62.5t78 -175.5t-77.5 -172.5t-231.5 -59.5l-214 1v-135h-281v135h-214q-153 0 -231 61.5t-78 174.5t77.5 173.5t231.5 60.5h214v122h281zM827 449v-156h106q66 0 94 16.5t28 61.5t-28 61.5t-94 16.5h-106zM546 293v156h-108
q-66 0 -93 -16t-27 -61t28.5 -62t93.5 -17h106z" />
    <glyph glyph-name="afii10039" unicode="&#x425;" horiz-adv-x="907" 
d="M-25 0l323 383l-277 343h340l99 -157l108 157h335l-281 -343l317 -383h-351l-130 195l-133 -195h-350z" />
    <glyph glyph-name="afii10040" unicode="&#x426;" horiz-adv-x="1061" 
d="M80 725h281l-1 -534h321l1 534h281l1 -534h80l-1 -333h-268v142h-695v725z" />
    <glyph glyph-name="afii10041" unicode="&#x427;" horiz-adv-x="1043" 
d="M963 726v-726h-281v302q-106 -29 -218 -29q-70 0 -128 10.5t-110.5 35t-82.5 72.5t-30 116v219h281v-164q0 -72 37 -97.5t104 -25.5q74 0 147 25v262h281z" />
    <glyph glyph-name="afii10042" unicode="&#x428;" horiz-adv-x="1425" 
d="M576 726h272v-535h218v535h271v-726h-1250v726h271v-535h218v535z" />
    <glyph glyph-name="afii10043" unicode="&#x429;" horiz-adv-x="1435" 
d="M1149 0h-1062v726h271v-535h218v535h272v-535h218v535h271v-553h80v-315h-268v142z" />
    <glyph glyph-name="afii10044" unicode="&#x42a;" horiz-adv-x="1159" 
d="M279 0v570h-287v156h568v-270h276q150 0 228.5 -58.5t78.5 -167.5q0 -108 -82 -169t-232 -61h-550zM724 156q61 0 86.5 15t25.5 57q0 43 -25.5 58t-86.5 15h-164v-145h164z" />
    <glyph glyph-name="afii10045" unicode="&#x42b;" horiz-adv-x="1441" 
d="M80 726h281v-270h277q150 0 228 -58.5t78 -167.5t-78.5 -169.5t-227.5 -60.5h-558v726zM525 156q61 0 87 15t26 57q0 43 -26 58t-87 15h-164v-145h164zM1079 0v726h281v-726h-281z" />
    <glyph glyph-name="afii10046" unicode="&#x42c;" 
d="M80 726h281v-270h277q150 0 228 -58.5t78 -167.5q0 -108 -81 -169t-231 -61h-552v726zM525 156q61 0 87 15t26 57q0 43 -26 58t-87 15h-164v-145h164z" />
    <glyph glyph-name="afii10047" unicode="&#x42d;" horiz-adv-x="1034" 
d="M349 421h-321q8 156 130.5 240t349.5 84q242 0 365 -96.5t123 -285.5t-123 -285.5t-365 -96.5q-216 0 -338 77.5t-144 227.5h324q25 -118 158 -118q144 0 174 108h-244v161h249q-17 59 -63 90.5t-116 31.5q-71 0 -111.5 -35.5t-47.5 -102.5z" />
    <glyph glyph-name="afii10048" unicode="&#x42e;" horiz-adv-x="1496" 
d="M495 475q67 270 475 270q242 0 365 -96.5t123 -285.5t-123 -285.5t-365 -96.5q-439 0 -483 313h-123v-294h-281v726h281v-251h131zM784 363q0 -95 47.5 -145t138.5 -50t138.5 50t47.5 145t-47.5 145.5t-138.5 50.5t-138.5 -50.5t-47.5 -145.5z" />
    <glyph glyph-name="afii10049" unicode="&#x42f;" horiz-adv-x="966" 
d="M903 0h-281v270h-121l-155 -270h-336l197 287q-168 47 -168 209q0 108 81 169t231 61h552v-726zM458 570q-61 0 -87 -15t-26 -57q0 -43 26 -58t87 -15h164v145h-164z" />
    <glyph glyph-name="afii10065" unicode="&#x430;" horiz-adv-x="895" 
d="M579 77q-50 -52 -117 -73.5t-166 -21.5q-276 0 -276 184q0 63 30 101q25 31 67 48t79 21.5t113 9.5q32 2 69 4t59.5 2.5t46.5 2t37.5 4t25 6.5t16 10.5t4.5 16.5q0 23 -29.5 37t-82.5 14q-64 0 -94 -12t-35 -44h-259q8 105 99.5 147.5t286.5 42.5q222 0 301 -61
q45 -36 61 -84t16 -128v-217q0 -56 25 -75v-12h-261q-14 33 -16 77zM578 262q-18 -9 -41.5 -14.5t-39 -7t-49.5 -4t-47 -3.5q-53 -5 -74.5 -15.5t-21.5 -35.5q0 -26 24 -41t68 -15q84 0 133 33.5t49 88.5q0 9 -1 14z" />
    <glyph glyph-name="afii10066" unicode="&#x431;" horiz-adv-x="851" 
d="M248 395q28 44 96.5 70.5t142.5 26.5q335 0 335 -249q0 -123 -116 -194q-108 -68 -280 -68q-185 0 -290.5 91t-105.5 237q0 153 78 241q45 51 78 73q81 51 177 67q118 20 142 31q20 9 31 24h266q-21 -91 -93 -130q-28 -14 -195.5 -45t-196.5 -49q-66 -44 -69 -126z
M422 124q61 0 97 29t36 77q0 116 -133 116q-60 0 -93.5 -30.5t-33.5 -85.5q0 -43 37 -74.5t90 -31.5z" />
    <glyph glyph-name="afii10067" unicode="&#x432;" horiz-adv-x="822" 
d="M66 0v562h477q112 0 161 -36.5t49 -114.5q0 -36 -26 -72t-55 -46q51 -14 81.5 -50.5t30.5 -81.5q0 -95 -66 -128t-217 -33h-435zM317 228v-88h154q30 0 43 10.5t13 33.5q0 44 -56 44h-154zM317 428v-80h134q28 0 39 9.5t11 30.5t-11 30.5t-39 9.5h-134z" />
    <glyph glyph-name="afii10068" unicode="&#x433;" horiz-adv-x="665" 
d="M67 0v562h588v-178h-337v-384h-251z" />
    <glyph glyph-name="afii10069" unicode="&#x434;" horiz-adv-x="865" 
d="M527 384h-141v-43q0 -63 -11.5 -97t-43.5 -65h196v205zM25 179h68q34 39 48 85.5t14 135.5v163h623v-384h74v-324h-231v145h-365v-145h-231v324z" />
    <glyph glyph-name="afii10070" unicode="&#x435;" horiz-adv-x="871" 
d="M838 171q-57 -190 -408 -190q-193 0 -296.5 79t-103.5 221t103.5 221t296.5 79q202 0 307.5 -93t105.5 -265h-544q0 -45 38 -70.5t108 -25.5q93 0 120 44h273zM286 343h299q-5 47 -42 72.5t-99 25.5q-138 0 -158 -98z" />
    <glyph glyph-name="afii10072" unicode="&#x436;" horiz-adv-x="1282" 
d="M515 562h252v-193l158 193h333l-218 -197l242 -365h-299l-127 217l-89 -75v-142h-252v142l-89 75l-127 -217h-299l242 365l-218 197h333l158 -193v193z" />
    <glyph glyph-name="afii10073" unicode="&#x437;" horiz-adv-x="822" 
d="M414 229h-126v111h112q43 0 71.5 17.5t28.5 43.5q0 21 -26 35t-67 14q-85 0 -100 -40h-254q18 92 121 134q87 33 246 33q59 0 111.5 -6.5t104.5 -22t83.5 -47t32.5 -75.5q3 -118 -129 -135q163 -29 163 -150q0 -66 -74 -110q-41 -26 -133 -37.5t-170 -11.5
q-191 0 -278 33q-108 42 -108 157h253q0 -26 39 -45t88 -19q56 0 88.5 17t32.5 47q0 57 -110 57z" />
    <glyph glyph-name="afii10074" unicode="&#x438;" horiz-adv-x="842" 
d="M46 0v562h251v-173l-8 -134l219 307h289v-562h-251v173l11 154l-225 -327h-286z" />
    <glyph glyph-name="afii10075" unicode="&#x439;" horiz-adv-x="842" 
d="M233 789h128q-2 -25 17 -43.5t56 -18.5q35 0 53.5 18.5t17.5 43.5h133q0 -75 -61 -115q-58 -38 -143 -38q-95 0 -144 34q-57 39 -57 119zM46 0v562h251v-173l-8 -134l219 307h289v-562h-251v173l11 154l-225 -327h-286z" />
    <glyph glyph-name="afii10076" unicode="&#x43a;" horiz-adv-x="852" 
d="M66 -1v560h251v-179l184 179h335l-221 -194l247 -365h-300l-134 217l-111 -91v-127h-251z" />
    <glyph glyph-name="afii10077" unicode="&#x43b;" horiz-adv-x="860" 
d="M118 562h678v-562h-251v386h-174v-174q0 -95 -62 -161q-57 -61 -175 -61q-90 0 -134 13v147q23 -4 49 -4q42 0 55.5 35t13.5 140v241z" />
    <glyph glyph-name="afii10078" unicode="&#x43c;" horiz-adv-x="1012" 
d="M66 562h334l106 -292l106 292h334v-562h-251v211l32 221l-150 -432h-142l-150 432l32 -221v-211h-251v562z" />
    <glyph glyph-name="afii10079" unicode="&#x43d;" horiz-adv-x="842" 
d="M66 0v562h251v-192h210v192h251v-562h-251v192h-210v-192h-251z" />
    <glyph glyph-name="afii10080" unicode="&#x43e;" horiz-adv-x="851" 
d="M30 281q0 142 102.5 221t293.5 79q190 0 292.5 -79t102.5 -221t-102.5 -221t-292.5 -79q-191 0 -293.5 79t-102.5 221zM295 281q0 -58 35.5 -92.5t94.5 -34.5t94.5 34.5t35.5 92.5t-35.5 92.5t-94.5 34.5t-94.5 -34.5t-35.5 -92.5z" />
    <glyph glyph-name="afii10081" unicode="&#x43f;" horiz-adv-x="842" 
d="M66 0v562h712v-562h-251v384h-210v-384h-251z" />
    <glyph glyph-name="afii10082" unicode="&#x440;" horiz-adv-x="872" 
d="M68 -182v745h239l2 -54q90 68 223 68q141 0 225 -81t84 -215q0 -135 -84.5 -215t-228.5 -80q-118 0 -209 60v-228h-251zM319 281q0 -56 35.5 -90t93.5 -34t93.5 33.5t35.5 90.5t-35.5 91t-93.5 34t-93.5 -34t-35.5 -91z" />
    <glyph glyph-name="afii10083" unicode="&#x441;" horiz-adv-x="867" 
d="M835 247q-27 -266 -402 -266q-194 0 -298.5 79t-104.5 221t104.5 221t298.5 79q362 0 397 -243h-269q-30 78 -122 78q-67 0 -105.5 -36t-38.5 -98q0 -61 37.5 -97t100.5 -36q53 0 89 26.5t45 71.5h268z" />
    <glyph glyph-name="afii10084" unicode="&#x442;" horiz-adv-x="683" 
d="M216 0v384h-210v178h672v-178h-210v-384h-252z" />
    <glyph glyph-name="afii10085" unicode="&#x443;" horiz-adv-x="726" 
d="M60 -8h56q53 0 77.5 18t36.5 68l-259 485h274l92 -200q23 -48 32 -90q8 34 26 76l91 214h267l-238 -488q-75 -153 -115 -193q-33 -32 -70.5 -43t-94.5 -11h-175v164z" />
    <glyph glyph-name="afii10086" unicode="&#x444;" horiz-adv-x="1357" 
d="M804 281q0 -57 35.5 -91t93.5 -34t93.5 34t35.5 91t-36 91t-93 34t-93 -34t-36 -91zM553 517v214h251v-214q95 60 212 60q142 0 226 -80.5t84 -215.5t-84.5 -215t-228.5 -80q-118 0 -209 60v-228h-251v228q-91 -60 -209 -60q-144 0 -228.5 80t-84.5 215t84 215.5
t226 80.5q117 0 212 -60zM553 281q0 57 -36 91t-93 34t-93 -34t-36 -91t35.5 -91t93.5 -34t93.5 34t35.5 91z" />
    <glyph glyph-name="afii10087" unicode="&#x445;" horiz-adv-x="775" 
d="M-51 0l261 295l-236 267h315l68 -105q20 -31 26 -50q9 23 27 49l76 106h308l-238 -266l259 -296h-323l-80 114q-22 32 -28 53q-11 -29 -24 -47l-87 -120h-324z" />
    <glyph glyph-name="afii10088" unicode="&#x446;" horiz-adv-x="862" 
d="M66 0v563h251v-384h209v384h251v-384h75v-324h-231v145h-555z" />
    <glyph glyph-name="afii10089" unicode="&#x447;" horiz-adv-x="813" 
d="M747 562v-562h-252v202q-74 -29 -193 -29q-125 0 -181.5 64t-56.5 199v126h252v-93q0 -60 19 -85.5t71 -25.5q56 0 89 17v187h252z" />
    <glyph glyph-name="afii10090" unicode="&#x448;" horiz-adv-x="1125" 
d="M445 562h232v-384h147v384h231v-562h-988v562h231v-384h147v384z" />
    <glyph glyph-name="afii10091" unicode="&#x449;" horiz-adv-x="1147" 
d="M445 563h231v-384h148v384h231v-384h75v-324h-232v145h-832v563h232v-384h147v384z" />
    <glyph glyph-name="afii10092" unicode="&#x44a;" horiz-adv-x="947" 
d="M446 562v-194h177q143 0 209.5 -43.5t66.5 -133.5q0 -101 -67 -146t-209 -45h-428v419h-222v143h473zM446 234v-94h132q36 0 49.5 11t13.5 37q0 23 -14.5 34.5t-50.5 11.5h-130z" />
    <glyph glyph-name="afii10093" unicode="&#x44b;" horiz-adv-x="1200" 
d="M70 0v562h252v-194h176q143 0 210 -43.5t67 -133.5q0 -101 -67 -146t-210 -45h-428zM322 234v-94h131q36 0 49.5 11t13.5 37q0 23 -14.5 34.5t-50.5 11.5h-129zM873 0v562h257v-562h-257z" />
    <glyph glyph-name="afii10094" unicode="&#x44c;" horiz-adv-x="822" 
d="M70 0v562h252v-194h176q143 0 210 -43.5t67 -133.5q0 -101 -67 -146t-210 -45h-428zM322 234v-94h131q36 0 49.5 11t13.5 37q0 23 -14.5 34.5t-50.5 11.5h-129z" />
    <glyph glyph-name="afii10095" unicode="&#x44d;" horiz-adv-x="867" 
d="M329 340h227q-2 41 -40.5 71t-87.5 30q-104 0 -133 -54h-266q30 96 132.5 145t266.5 49q189 0 289.5 -79t100.5 -221t-104.5 -221t-298.5 -79q-316 0 -386 190h268q31 -44 122 -44q123 0 134 93h-224v120z" />
    <glyph glyph-name="afii10096" unicode="&#x44e;" horiz-adv-x="1245" 
d="M439 379q32 97 129.5 149.5t251.5 52.5q190 0 292.5 -79t102.5 -221t-102.5 -221t-292.5 -79q-162 0 -261.5 57t-125.5 163h-97v-201h-251v562h251v-183h103zM689 281q0 -58 35.5 -92.5t94.5 -34.5t94 34.5t35 92.5t-35 92.5t-94 34.5t-94.5 -34.5t-35.5 -92.5z" />
    <glyph glyph-name="afii10097" unicode="&#x44f;" horiz-adv-x="808" 
d="M739 562v-562h-251v194h-63l-134 -194h-264l158 206q-68 20 -107 64t-39 108q0 100 67.5 142t212.5 42h420zM488 328v94h-134q-36 0 -49.5 -11t-13.5 -37q0 -23 14.5 -34.5t50.5 -11.5h132z" />
    <glyph glyph-name="afii10071" unicode="&#x451;" horiz-adv-x="871" 
d="M838 172q-57 -191 -408 -191q-192 0 -296 79t-104 221t103.5 221.5t296.5 79.5q204 0 308.5 -89t104.5 -260v-10h-544q0 -45 38 -70t108 -25q93 0 120 44h273zM286 344h299q-5 46 -42 71.5t-99 25.5q-138 0 -158 -97zM147 642v143h200v-143h-200zM526 642v143h200v-143
h-200z" />
    <glyph glyph-name="afii10099" unicode="&#x452;" horiz-adv-x="844" 
d="M319 0h-251v562h-89v141h89v65h251v-65h153v-141h-153v-94q100 69 223 69q125 0 182 -63.5t57 -198.5v-233q0 -221 -235 -221q-62 0 -125 12v180h37q21 0 34 4.5t20.5 10.5t11 23.5t4.5 31.5t2 47v97q0 61 -20 86t-72 25q-55 0 -87 -26.5t-32 -72.5v-239z" />
    <glyph glyph-name="afii10100" unicode="&#x453;" horiz-adv-x="665" 
d="M67 0v562h588v-178h-337v-384h-251zM265 614l79 129h269l-167 -129h-181z" />
    <glyph glyph-name="afii10101" unicode="&#x454;" horiz-adv-x="867" 
d="M519 340v-120h-224q11 -93 134 -93q91 0 122 44h268q-70 -190 -386 -190q-194 0 -298.5 79t-104.5 221t100.5 221t289.5 79q164 0 266.5 -49t132.5 -145h-266q-29 54 -133 54q-49 0 -87.5 -30t-40.5 -71h227z" />
    <glyph glyph-name="afii10102" unicode="&#x455;" horiz-adv-x="842" 
d="M25 179h307q3 -30 26.5 -42.5t72.5 -12.5q87 0 87 38q0 24 -24 31.5t-91 13.5q-7 0 -11 0.5t-10.5 1t-12.5 1.5q-67 6 -100 10t-76.5 13.5t-74.5 23.5q-79 35 -79 137q0 99 91 143t283 44q183 0 274 -45.5t97 -142.5h-290q-2 29 -26.5 41.5t-75.5 12.5q-87 0 -87 -39
q0 -26 34 -34q11 -2 96 -10q222 -20 255 -31q64 -22 91 -55t27 -93q0 -110 -97 -157t-309 -47q-189 0 -281 47t-96 151z" />
    <glyph glyph-name="afii10103" unicode="&#x456;" horiz-adv-x="406" 
d="M75 609v143h257v-143h-257zM75 0v563h257v-563h-257z" />
    <glyph glyph-name="afii10104" unicode="&#x457;" horiz-adv-x="406" 
d="M76 0v563h251v-563h-251zM-29 642v143h200v-143h-200zM234 642v143h200v-143h-200z" />
    <glyph glyph-name="afii10105" unicode="&#x458;" horiz-adv-x="401" 
d="M-25 12h37q48 0 59 22.5t11 95.5v432h253v-551q0 -40 -2 -60t-12.5 -44t-32.5 -43q-53 -44 -188 -44q-62 0 -125 12v180zM82 609v142h253v-142h-253z" />
    <glyph glyph-name="afii10106" unicode="&#x459;" horiz-adv-x="1296" 
d="M544 0v386h-173v-174q0 -95 -62 -161q-57 -61 -175 -61q-90 0 -134 13v147q23 -4 49 -4q42 0 55.5 35t13.5 140v241h678v-194h176q143 0 210 -43.5t67 -133.5q0 -101 -67 -146t-210 -45h-428zM796 234v-94h131q36 0 49.5 11t13.5 37q0 23 -14.5 34.5t-50.5 11.5h-129z
" />
    <glyph glyph-name="afii10107" unicode="&#x45a;" horiz-adv-x="1278" 
d="M527 0v192h-210v-192h-251v562h251v-192h210v192h251v-194h176q143 0 210 -43.5t67 -133.5q0 -101 -67 -146t-210 -45h-427zM778 234v-94h131q36 0 49.5 11t13.5 37q0 23 -14.5 34.5t-50.5 11.5h-129z" />
    <glyph glyph-name="afii10108" unicode="&#x45b;" horiz-adv-x="844" 
d="M319 562v-94q100 69 223 69q125 0 182 -63.5t57 -198.5v-275h-251v227q0 61 -20 86t-72 25q-55 0 -87 -26.5t-32 -72.5v-239h-251v562h-89v141h89v65h251v-65h153v-141h-153z" />
    <glyph glyph-name="afii10109" unicode="&#x45c;" horiz-adv-x="835" 
d="M65 1v560h251v-179l184 179h335l-221 -194l247 -366h-300l-134 218l-111 -91v-127h-251zM325 614l79 129h269l-167 -129h-181z" />
    <glyph glyph-name="afii10110" unicode="&#x45e;" horiz-adv-x="726" 
d="M60 -8h56q53 0 77.5 18t36.5 68l-259 485h274l92 -200q23 -48 32 -90q8 34 26 76l91 214h267l-238 -488q-75 -153 -115 -193q-33 -32 -70.5 -43t-94.5 -11h-175v164zM166 789h128q-2 -25 17 -43.5t56 -18.5q35 0 53.5 18.5t17.5 43.5h133q0 -75 -61 -115
q-58 -38 -143 -38q-95 0 -144 34q-57 39 -57 119z" />
    <glyph glyph-name="afii10193" unicode="&#x45f;" horiz-adv-x="862" 
d="M66 0v563h251v-384h209v384h251v-563h-239v-145h-231v145h-241z" />
    <glyph glyph-name="afii10050" unicode="&#x490;" horiz-adv-x="813" 
d="M79 726h444v130h281v-311h-443v-545h-282v726z" />
    <glyph glyph-name="afii10098" unicode="&#x491;" horiz-adv-x="665" 
d="M67 0v562h369v114h219v-292h-337v-384h-251z" />
    <glyph glyph-name="endash" unicode="&#x2013;" horiz-adv-x="502" 
d="M0 206v162h502v-162h-502z" />
    <glyph glyph-name="emdash" unicode="&#x2014;" horiz-adv-x="1004" 
d="M0 206v162h1004v-162h-1004z" />
    <glyph glyph-name="quoteleft" unicode="&#x2018;" horiz-adv-x="419" 
d="M341 588v-233h-264v154q0 57 12 92t49 64q62 49 169 80l23 -92q-65 -22 -66 -65h77z" />
    <glyph glyph-name="quoteright" unicode="&#x2019;" horiz-adv-x="419" 
d="M78 494v232h263v-154q0 -57 -11.5 -91.5t-48.5 -63.5q-62 -49 -169 -80l-23 91q64 22 65 66h-76z" />
    <glyph glyph-name="quotesinglbase" unicode="&#x201a;" horiz-adv-x="419" 
d="M78 0v232h263v-154q0 -57 -11.5 -91.5t-48.5 -63.5q-62 -49 -169 -80l-23 92q34 11 49 26t16 39h-76z" />
    <glyph glyph-name="quotedblleft" unicode="&#x201c;" horiz-adv-x="761" 
d="M341 588v-233h-264v154q0 56 12 91.5t49 64.5q62 49 170 80l22 -92q-33 -12 -49 -27t-17 -38h77zM683 588v-233h-263v154q0 57 11.5 92t47.5 64q64 49 170 80l22 -92q-63 -22 -64 -65h76z" />
    <glyph glyph-name="quotedblright" unicode="&#x201d;" horiz-adv-x="761" 
d="M418 494v232h263v-154q0 -57 -12 -91.5t-48 -63.5q-62 -49 -170 -80l-22 91q64 22 65 66h-76zM75 494v232h264v-154q0 -57 -12 -91.5t-48 -63.5q-64 -50 -169 -80l-22 91q63 22 64 66h-77z" />
    <glyph glyph-name="quotedblbase" unicode="&#x201e;" horiz-adv-x="761" 
d="M418 0v232h263v-154q0 -57 -12 -91.5t-48 -63.5q-62 -49 -170 -80l-22 92q64 22 65 65h-76zM75 0v232h264v-154q0 -57 -12 -91.5t-48 -63.5q-64 -50 -169 -80l-22 92q63 22 64 65h-77z" />
    <glyph glyph-name="dagger" unicode="&#x2020;" horiz-adv-x="954" 
d="M608 -154h-261v475h-249v230h249v174h261v-174h249v-230h-249v-475z" />
    <glyph glyph-name="bullet" unicode="&#x2022;" horiz-adv-x="592" 
d="M150 374q0 60 43 102.5t103 42.5q59 0 102 -42.5t43 -102.5q0 -59 -43 -102.5t-103 -43.5t-102.5 43t-42.5 103z" />
    <glyph glyph-name="ellipsis" unicode="&#x2026;" horiz-adv-x="1005" 
d="M-2 0v233h263v-233h-263zM332 0v233h264v-233h-264zM668 0v233h263v-233h-263z" />
    <glyph glyph-name="perthousand" unicode="&#x2030;" horiz-adv-x="1679" 
d="M37 532q0 92 65 143t185 51t184.5 -51t64.5 -143q0 -93 -64.5 -144t-184.5 -51t-185 51t-65 144zM286 627q-43 0 -68.5 -26t-25.5 -70t25 -69.5t69 -25.5t70 25.5t26 69.5t-26 70t-70 26zM214 -19l593 745h116l-593 -745h-116zM601 176q0 93 65 144t185 51t184.5 -51
t64.5 -144q0 -92 -64.5 -143.5t-184.5 -51.5t-185 51.5t-65 143.5zM850 272q-43 0 -68.5 -26t-25.5 -70t25 -69.5t69 -25.5t70 25.5t26 69.5t-26 70t-70 26zM1143 176q0 93 64.5 144t184.5 51t185 -51t65 -144q0 -92 -65 -143.5t-185 -51.5t-184.5 51.5t-64.5 143.5z
M1392 272q-44 0 -69.5 -26t-25.5 -70t25.5 -69.5t69.5 -25.5t69 25.5t25 69.5t-25.5 70t-68.5 26z" />
    <glyph glyph-name="guilsinglleft" unicode="&#x2039;" horiz-adv-x="384" 
d="M67 348l248 195v-204l-80 -58l80 -58v-204l-248 195v134z" />
    <glyph glyph-name="guilsinglright" unicode="&#x203a;" horiz-adv-x="384" 
d="M317 214l-248 -195v204l80 58l-80 58v204l248 -195v-134z" />
    <glyph glyph-name="Euro" unicode="&#x20ac;" horiz-adv-x="860" 
d="M772 677v-172q-59 40 -203 40q-165 0 -206 -96h345l-45 -87h-309q-1 -6 -1 -20q0 -18 3 -29h282l-44 -86h-218q35 -65 192 -65q58 0 118.5 14.5t85.5 33.5v-185q-74 -43 -211 -43t-228.5 31t-137 82.5t-67.5 131.5h-114l45 86h57q-1 9 -1 24t1 25h-102l45 87h66
q17 62 45 108.5t76.5 86.5t127.5 61t186 21q78 0 134 -15t78 -34z" />
    <glyph glyph-name="afii61352" unicode="&#x2116;" horiz-adv-x="1665" 
d="M60 0v726h332l281 -418v418h272v-726h-315l-305 425v-425h-265zM1017 488q0 100 76.5 155t219.5 55t219.5 -55t76.5 -155t-76.5 -155t-219.5 -55t-219.5 55t-76.5 155zM1197 488q0 -49 31 -77.5t84 -28.5t84.5 28.5t31.5 77.5t-31.5 77.5t-84.5 28.5t-84 -28.5t-31 -77.5
zM1545 191v-134h-466v134h466z" />
    <glyph glyph-name="trademark" unicode="&#x2122;" horiz-adv-x="837" 
d="M339 721v-75h-80v-200h-99v200h-80v75h259zM513 721l48 -131l48 131h126v-275h-90v180l-67 -180h-34l-68 180v-180h-89v275h126z" />
    </font>
</defs>
</svg>
