<?xml version="1.0" standalone="no"?>
<!DOCTYPE svg PUBLIC "-//W3C//DTD SVG 1.1//EN" "http://www.w3.org/Graphics/SVG/1.1/DTD/svg11.dtd" >
<svg xmlns="http://www.w3.org/2000/svg" xmlns:xlink="http://www.w3.org/1999/xlink" version="1.1">
<metadata>
Created by FontForge 20150804 at Fri Jul 12 12:11:32 2019
 By cloudconvert
</metadata>
<defs>
<font id="Montresor" horiz-adv-x="634" >
  <font-face 
    font-family="Montresor"
    font-weight="400"
    font-stretch="normal"
    units-per-em="1000"
    panose-1="2 0 5 0 0 0 0 0 0 0"
    ascent="800"
    descent="-200"
    x-height="652"
    cap-height="759"
    bbox="-208.6 -305 1092.7 957"
    underline-thickness="50"
    underline-position="-100"
    unicode-range="U+0020-2122"
  />
<missing-glyph horiz-adv-x="300" 
 />
    <glyph glyph-name=".notdef" horiz-adv-x="300" 
 />
    <glyph glyph-name="A" unicode="A" horiz-adv-x="598" 
d="M598 -65v-27q-18 1 -34 5t-31 9t-31 9t-34 4t-34 -4t-31.5 -9t-31.5 -9t-34 -5v27h5q9 1 18.5 7t16.5 17.5t9.5 29t-1.5 41.5l-2 8l-64 309h-103l-49 -293q0 -1 -1.5 -19.5t3.5 -40.5t21.5 -40.5t51.5 -18.5v-27q-41 0 -70 -9.5t-52.5 -24t-45 -31t-47 -31t-58.5 -24
t-79 -9.5v25q35 0 72 13.5t69.5 41t57.5 69t36 97.5l54 322h-22q-13 0 -21.5 -12.5t-15 -32t-12.5 -44.5t-15 -50t-21.5 -47.5t-31.5 -37.5h-6q21 21 34.5 60t17.5 85t-2 92.5t-24 81.5h9q12 -21 26 -37q12 -14 27.5 -25t33.5 -11h27l43 257q6 31 2 51.5t-12 32t-18 16
t-17 5.5q-9 1 -20 -2t-20.5 -10t-15.5 -19t-6 -29q0 -25 17.5 -42.5t42.5 -17.5q11 0 23 5q-8 -20 -26 -32.5t-41 -12.5q-19 0 -34.5 9t-25.5 24q-2 3 -3.5 6.5t-3.5 6.5q-1 0 -1 1q-7 15 -7 38q0 31 13 50.5t32 30.5t39.5 15.5t35.5 4.5q17 0 32 -4t29.5 -8.5t29.5 -8.5
t32 -5h15q16 1 31 5t29.5 8.5t30 8.5t32.5 4v-26h-1q-7 -1 -17.5 -5.5t-18.5 -16.5t-11 -32t4 -51l-1 5l123 -592l6 -26q8 -33 23 -55t47 -23h3zM314 369l-52 251l-43 -251h95z" />
    <glyph glyph-name="B" unicode="B" 
d="M586 352q6 -35 8 -80t-1.5 -92.5t-13 -93.5t-25.5 -83q-20 -47 -46 -73t-50 -40q-28 -16 -57 -20q-23 17 -52.5 34.5t-58.5 24.5q-8 2 -15.5 3.5t-15.5 1.5q-32 0 -59 -8q-11 -3 -21.5 -6.5t-21.5 -6.5q-20 -5 -37 -5v27h1q7 0 17.5 4.5t20.5 15.5t17.5 29.5t8.5 46.5
v603q-1 28 -8.5 46.5t-17.5 29.5t-20.5 15.5t-17.5 4.5h-1q-8 0 -18.5 -3t-19.5 -9.5t-15.5 -18t-6.5 -28.5q0 -25 17 -42.5t42 -17.5q11 0 23 5q-8 -20 -26 -32.5t-41 -12.5q-19 0 -34.5 9t-25.5 24q-2 3 -3.5 6.5t-3.5 6.5q-8 19 -8 39q0 31 13 50.5t32 30.5t39.5 15.5
t35.5 4.5q18 0 34 -4.5t31.5 -9t31.5 -8.5t34 -4t34 4t31 8.5t31 9t34 4.5h35q27 0 51.5 -5t44 -17t31 -33t11.5 -53q0 -48 -12.5 -80t-31 -53t-39.5 -32.5t-39 -18.5q19 1 42.5 -2.5t46 -15.5t40 -34.5t25.5 -60.5zM316 469q39 0 64 16.5t39 42t19 55t4 56.5q-1 12 -3.5 27
t-9.5 26.5t-19.5 18t-33.5 2.5q-7 -1 -16.5 -4t-19.5 -6q-11 -4 -24 -9v-225v0zM316 -13q10 -2 29 -3.5t40 7.5t40.5 33t32.5 72q5 30 6.5 62.5t1.5 77.5q0 35 -2.5 67.5t-8 59t-14.5 45.5t-23 27q-11 8 -28 7t-34 -5q-19 -4 -40 -13v-437z" />
    <glyph glyph-name="C" unicode="C" horiz-adv-x="469" 
d="M315 444q2 -13 6.5 -26t11.5 -23.5t16.5 -17t21.5 -6.5q-12 0 -21.5 -6.5t-16.5 -17t-11.5 -23.5t-6.5 -26v-210q-4 0 -5 -1v211q-2 13 -6.5 26t-11.5 23.5t-16.5 17t-21.5 6.5q12 0 21.5 6.5t16.5 17t11.5 23.5t6.5 26v82q-2 41 -10 76t-20 60.5t-26.5 40.5t-29.5 16h-4
q-15 0 -25 -31.5t-16.5 -85t-9.5 -123.5t-3 -148t3 -148.5t9.5 -124t16.5 -84.5t25 -31q17 0 27.5 35.5t17.5 98.5q16 -2 35.5 -0.5t40 8.5t40.5 21.5t37 38.5q-3 -17 -7 -33t-9 -28q-34 -90 -84 -133t-98 -43q-36 0 -75 25.5t-71 77.5t-53 131.5t-21 188.5q0 133 30 223
t74 140q20 23 45 40l5 3q2 2 4 2q15 9 24 11q8 4 19 6.5t19 1.5q16 -1 28.5 -7t32 -9.5t51 -1t87.5 17.5v-27q-19 -2 -37.5 -21t-33 -49.5t-23.5 -70t-9 -81.5h-1v-65z" />
    <glyph glyph-name="D" unicode="D" horiz-adv-x="631" 
d="M598 249q0 -19 -0.5 -36.5t-1.5 -34.5q-3 -47 -12.5 -84.5t-23 -68t-30.5 -53.5t-34 -40q-40 -40 -90 -60q-24 18 -58.5 34.5t-64.5 24.5q-5 1 -11 2t-13 1h-1q-25 0 -48 -5q-17 -5 -33 -10t-33 -9q-5 -1 -11 -1.5t-12 -0.5h-1v27h1q7 0 17.5 4.5t20.5 15.5t17.5 29.5
t8.5 46.5v603q-1 28 -8.5 46.5t-17.5 29.5t-20.5 15.5t-17.5 4.5h-1q-8 0 -18.5 -3t-19.5 -9.5t-15.5 -18t-6.5 -28.5q0 -25 17 -42.5t42 -17.5q11 0 23 5q-8 -20 -26 -32.5t-41 -12.5q-19 0 -34.5 9t-25.5 24q-2 3 -3.5 6.5t-3.5 6.5q-8 19 -8 39q0 31 13 50.5t32 30.5
t39.5 15.5t35.5 4.5q18 -1 34 -5t31.5 -8.5t31.5 -8.5t34 -4t34 4t31 8.5t31 8.5t34 5h35q63 0 98.5 -24t53.5 -59.5t23 -77t6 -76.5q1 -29 1.5 -66.5t0.5 -75t-1 -72t-1 -57.5h1zM480 254q1 19 1 42.5t-0.5 47.5t-0.5 47.5v44.5q0 63 -5.5 120t-21 94.5t-44.5 49.5t-77 -15
q-4 -2 -6.5 -3.5t-4.5 -3.5q-3 -2 -4 -3v-679q26 -4 53.5 1t51 30.5t39.5 79t19 147.5z" />
    <glyph glyph-name="E" unicode="E" 
d="M507 613q0 -2 -1 -3q-5 -39 4.5 -78t31.5 -69q-39 8 -57.5 29.5t-26 49.5t-8.5 58t-5.5 55t-17 41.5t-42.5 16.5q-22 0 -35.5 -8.5t-21 -20.5t-10 -26t-2.5 -25v-213q13 -2 28.5 -2h29.5q14 2 28.5 9t25.5 16q7 5 13 11l12 12q1 -1 2 -1t2.5 -0.5t3.5 -0.5
q-14 -17 -25 -37q-19 -35 -29 -76t-11 -80q-5 -66 19 -104l-5 1q-1 0 -2.5 3t-2.5 4l-5 8q-2 5 -4 9t-4 9q-7 17 -9.5 35t-4.5 35q-2 19 -2 37t-5 36q-3 10 -7 20t-12 17q-3 4 -14 4h-22v-352q0 -14 3.5 -28.5t11.5 -26.5q10 -14 25.5 -20t32.5 -6q1 1 4 1q27 2 38 19
t14.5 41.5t5 54t9 56.5t26 48.5t56.5 30.5q-22 -31 -31.5 -70t-4.5 -78q1 -1 1 -3q3 -23 12.5 -51.5t28.5 -47.5q16 -17 36 -18v-27h-209q-2 1 -8 1l-4 1q-2 0 -12 2q-7 2 -13 3.5t-13 3.5q-8 3 -16.5 5.5t-16.5 4.5q-21 6 -41 6q-18 0 -34 -4t-31.5 -8.5t-31.5 -9t-34 -5.5
v27h1q7 0 17.5 4.5t20.5 16t17.5 30t8.5 45.5v603q-1 28 -8.5 46.5t-17.5 29.5t-20.5 16t-17.5 5h-1q-8 0 -18.5 -3t-19.5 -10t-15.5 -18.5t-6.5 -28.5q0 -25 17 -42t42 -17q15 0 23 4q-8 -20 -26 -32t-41 -12q-39 0 -60 32q-2 3 -3.5 6.5t-3.5 6.5v1q-8 19 -8 38
q0 31 13 50.5t32 31t39.5 16t35.5 4.5q18 -1 34 -5.5t31.5 -9t31.5 -8.5t34 -4t34 4t31 8.5t31 9t34 5.5h203v-27q-20 -3 -36 -18q-19 -19 -28.5 -48t-12.5 -52z" />
    <glyph glyph-name="F" unicode="F" 
d="M583 730q-33 -13 -51 -44.5t-21 -74t8.5 -92.5t37.5 -99q-38 32 -55.5 65.5t-24.5 65.5t-8.5 60.5t-8 50t-23 35.5t-52.5 16h-6q-1 0 -2 -1h-7l-1 -1h-3q-1 0 -2 -1h-1q-1 0 -2 -1q-14 -4 -23 -13t-13.5 -20t-6.5 -23t-2 -21v-213q13 -1 33.5 -0.5t34.5 0.5
q14 2 28.5 9.5t25.5 16.5q13 11 25 23h2l6 -2q-7 -8 -13 -17t-12 -20q-19 -34 -28.5 -75t-11.5 -80q-2 -32 3.5 -59.5t16.5 -45.5l-6 1q-1 1 -2.5 4t-2.5 4l-5 8q-2 5 -4 8.5t-4 8.5q-11 33 -13 71q-2 19 -2.5 37t-5.5 36q-5 20 -18 35q-4 3 -20 3h-27v-354q1 -28 8.5 -46.5
t17.5 -29.5t20.5 -16t17.5 -5h2v-26h-4q-29 0 -52.5 -6t-43 -15.5t-37 -21t-34.5 -23.5q-25 -17 -52.5 -33t-65.5 -24q-29 -6 -64 -6v24q47 0 76.5 21t46.5 52t24 66.5t9 63.5v628q-1 28 -8.5 46t-17.5 29t-20.5 16t-17.5 5h-1q-8 0 -18.5 -3t-19.5 -9.5t-15.5 -18
t-6.5 -28.5q0 -25 17 -42.5t42 -17.5q11 0 23 5q-8 -20 -26 -32.5t-41 -12.5q-19 0 -34.5 9t-25.5 24q-4 5 -7 13q-8 19 -8 39q0 31 13 50.5t32 30.5t39.5 15.5t35.5 4.5q18 -1 34 -5t31.5 -9t31.5 -9t34 -4t33.5 4t30.5 8.5t30.5 9t32.5 5.5h205v-27v0z" />
    <glyph glyph-name="G" unicode="G" horiz-adv-x="508" 
d="M343 364q32 8 55 5t38 -11t23 -19t10 -20q-12 5 -19 3.5t-11 -6.5t-5 -12.5t-1 -14.5q1 -32 -2.5 -62t-8.5 -53q-2 -11 -3.5 -19.5t-3.5 -14.5q-2 -7 -4 -13q-5 -20 -11 -36q-17 -45 -38.5 -78t-45.5 -54.5t-49 -32.5t-49 -11q-36 0 -75 25.5t-71 77.5t-53 131.5
t-21 188.5q0 133 30.5 223t74.5 140q16 20 37 35.5t46 23.5q8 2 16.5 4t15.5 1h1l1 -1q11 0 20 -3.5t19.5 -7t25 -6t35.5 -0.5q15 1 31.5 3.5t31 5.5t24 6t10.5 3v-27q-20 -3 -38.5 -22t-32.5 -49.5t-23 -69.5t-9 -81h-1v-60h-5v77q-2 41 -9.5 76t-19.5 60.5t-27 40.5
t-30 16h-7v-1h-2l-1 -1h-1q0 -1 -1 -1l-1 -1q-1 0 -1 -1h-1q0 -1 -1 -1v-1q-1 0 -1 -1l-2 -2q0 -1 -0.5 -1t-0.5 -1q-2 -3 -3.5 -6l-3.5 -7q-8 -21 -14 -57.5t-10 -84t-5.5 -104t-1.5 -117.5q0 -78 3 -148.5t9.5 -124t16.5 -84.5t25 -31q6 0 15.5 6t19 24t19.5 51.5t18 88.5
q1 13 4 38t5.5 54.5t3.5 60.5t0 56q-10 -1 -23 -5q-8 -3 -15 -13.5t-12.5 -23t-9.5 -25t-5 -19.5q-3 -15 -7.5 -30t-11.5 -29l-9 -14q-4 -4 -5 -6q-1 -1 -2.5 -3.5t-3.5 -2.5h-4q23 30 28 87q3 33 -1 69t-16 67q-6 19 -17 34l7 1h1q0 -1 7 -10q7 -8 18.5 -19t28.5 -19
q14 -8 31 -11t37 2q7 2 13 2.5t11 2.5z" />
    <glyph glyph-name="H" unicode="H" horiz-adv-x="667" 
d="M551 31q0 -26 5 -64.5t21 -74.5t47 -62t83 -26v-24q-45 0 -77 9.5t-58 24t-48.5 31t-46.5 31t-53.5 24t-68.5 9.5v26h1q7 0 17.5 5t20.5 16t17.5 29.5t8.5 46.5v321h-54q2 2 3.5 2.5t3.5 2.5h47v11h-47q-18 -7 -28 -28t-14 -43v-186q2 -9 7.5 -16.5t14.5 -7.5
q-14 0 -19.5 -15.5t-5.5 -26.5q0 11 -5 26.5t-19 15.5q9 0 14.5 7.5t7.5 16.5v186q-4 22 -14 43t-28 28h-47v-11h47q4 -2 7 -5h-54v-321q1 -28 8.5 -46.5t17.5 -29.5t20.5 -16t17.5 -5h1v-26q-39 0 -68.5 -9.5t-53.5 -24t-46.5 -31t-48.5 -31t-58.5 -24t-76.5 -9.5v24
q52 0 83 26t47 62t21 74.5t5 64.5v1v603q-1 28 -8.5 46.5t-17.5 29.5t-20.5 15.5t-17.5 4.5h-1v27q18 -1 34 -5t31.5 -9t31.5 -9t34 -4t34 4t31 9t31 9t34 5v-27h-1q-7 0 -17.5 -4.5t-20.5 -15.5t-17.5 -29.5t-8.5 -46.5v-261h47q12 4 20.5 16t13.5 26t7.5 29t2.5 27
q0 -12 2.5 -27t8 -29t14 -26t20.5 -16h47v261q-1 28 -8.5 46.5t-17.5 29.5t-20.5 15.5t-17.5 4.5h-1v27q18 -1 34 -5t31 -9t31 -9t34 -4t34 4t31.5 9t31.5 9t34 5v-27h-1q-7 0 -17.5 -4.5t-20.5 -15.5t-17.5 -29.5t-8.5 -46.5v-603v-1v0z" />
    <glyph glyph-name="I" unicode="I" horiz-adv-x="431" 
d="M380 731q-7 0 -17.5 -5t-20.5 -16t-17.5 -29.5t-8.5 -46.5v-603q1 -27 8.5 -45.5t17.5 -30t20.5 -16t17.5 -4.5h1v-27q-18 1 -34 5.5t-31 9t-31 8.5t-34 4t-34 -4t-31.5 -8.5t-31.5 -9t-34 -5.5v27h1q7 0 17.5 4.5t20.5 16t17.5 30t8.5 45.5v603q-1 28 -8.5 46.5
t-17.5 29.5t-20.5 16t-17.5 5h-1q-8 0 -18.5 -3t-19.5 -10t-15.5 -18.5t-6.5 -28.5q0 -25 17 -42t42 -17q15 0 23 4q-8 -20 -26 -32t-41 -12q-39 0 -60 32q-2 3 -3.5 6.5t-3.5 6.5v1q-8 19 -8 38q0 31 13 50.5t32 31t39.5 16t35.5 4.5q18 -1 34 -5.5t31.5 -9t31.5 -8.5
t34 -4t34 4t31 8.5t31 9t34 5.5v-27h-1z" />
    <glyph glyph-name="J" unicode="J" horiz-adv-x="605" 
d="M424 731q18 0 34 4t31.5 9t31.5 9t34 5v-27h-2q-7 0 -17 -5t-20 -16t-17.5 -29t-8.5 -46v-515q0 -77 -16 -140t-48.5 -108t-82.5 -70t-118 -25q-10 0 -15 1q-18 0 -32 3t-27 8q-131 44 -144 175q-4 30 4 59.5t25 50t43.5 25.5t59.5 -15q-23 -20 -36.5 -50t-13.5 -65
q0 -26 8 -51t24 -47q18 -23 44 -37.5t61 -14.5q40 0 66 20t41 48.5t20.5 61t5.5 58.5v627q-1 9 -1.5 16.5t-2.5 14.5q-5 23 -14.5 36t-20.5 20q-8 5 -14.5 7.5t-11.5 2.5q-9 0 -19.5 -3t-19.5 -9.5t-15.5 -18t-6.5 -29.5q0 -24 17.5 -41.5t42.5 -17.5q11 0 23 5
q-8 -20 -26 -32.5t-41 -12.5q-19 0 -35 9t-26 23l-3.5 7l-3.5 7q-7 17 -7 38q0 31 13 50.5t32 31t39.5 16t35.5 4.5q21 -1 39.5 -6.5t36.5 -11.5h1q13 -4 26 -6.5t27 -2.5zM227 565q2 -1 3 -1t3 -1v-123q2 -13 6 -26.5t11 -25t16.5 -18.5t22.5 -7q-13 0 -22.5 -7t-16.5 -18
t-11 -24.5t-6 -26.5v-290q2 -9 7.5 -16.5t14.5 -7.5q-14 0 -19.5 -15.5t-5.5 -26.5q0 11 -5.5 26.5t-19.5 15.5q9 0 14.5 7.5t7.5 16.5v296q-5 26 -18 48t-37 22q24 0 37 22.5t18 47.5v132v0z" />
    <glyph glyph-name="K" unicode="K" horiz-adv-x="721" 
d="M578 -3q1 -29 10 -62.5t28.5 -62.5t50.5 -48.5t76 -19.5v-24q-45 0 -74.5 9.5t-51 24t-38.5 31t-37 31t-46.5 24t-65.5 9.5v26h1q7 1 17.5 6t20.5 16t17.5 29t8.5 46q-5 105 -24 189q-9 36 -22 70t-31.5 61t-43.5 44t-58 18v-382q1 -28 8.5 -46.5t17.5 -30t20.5 -16
t17.5 -4.5h1v-26q-40 0 -69 -9.5t-53.5 -24t-46.5 -31t-48 -31t-58.5 -24t-76.5 -9.5v24q52 0 83 26t47 62t21 74.5t5 64.5v604q-1 28 -8.5 46.5t-17.5 29.5t-20.5 15.5t-17.5 4.5h-1q-9 0 -19.5 -3t-19.5 -9.5t-15 -18t-6 -28.5q0 -25 17 -42.5t42 -17.5q10 0 23 5
q-8 -20 -26 -32.5t-41 -12.5q-19 0 -34.5 9t-25.5 24q-3 3 -7 13q-8 21 -8 39q0 31 13 50.5t32 30.5t39.5 15.5t35.5 4.5q18 -1 34 -5.5t31.5 -9t31.5 -8.5t34 -4t34 4t31 8.5t31 9t34 5.5v-27h-1q-7 0 -17.5 -4.5t-20.5 -15.5t-17.5 -29.5t-8.5 -46.5v-133q23 0 39.5 14
t30 35.5t25 47.5t25 51t29.5 45t38 30q23 10 43.5 16t45.5 6q-22 0 -36.5 -18t-26.5 -46t-24.5 -62t-29.5 -65t-42 -56t-62 -35q69 -13 108.5 -55t59.5 -105t27 -142t12 -166z" />
    <glyph glyph-name="L" unicode="L" horiz-adv-x="552" 
d="M534 163q-21 -46 -20.5 -91.5t8.5 -81.5q10 -43 30 -82h-172q-18 1 -33.5 5.5t-30.5 9t-31 8.5t-34 4t-34 -4t-31.5 -8.5t-31.5 -9t-34 -5.5v27h1q7 0 17.5 4.5t20.5 16t17.5 30t8.5 45.5v603q-1 28 -8.5 46.5t-17.5 29.5t-20.5 16t-17.5 5h-1q-8 0 -18.5 -3t-19.5 -10
t-15.5 -18.5t-6.5 -28.5q0 -25 17 -42t42 -17q15 0 23 4q-8 -20 -26 -32t-41 -12q-39 0 -60 32q-2 3 -3.5 6.5t-3.5 6.5v1q-8 19 -8 38q0 31 13 50.5t32 31t39.5 16t35.5 4.5q18 -1 34 -5.5t31.5 -9t31.5 -8.5t34 -4t34 4t31 8.5t31 9t34 5.5v-27h-1q-7 0 -17.5 -5
t-20.5 -16t-17.5 -29.5t-8.5 -46.5v-603q2 -34 12.5 -54t22.5 -30q24 -14 44.5 -13t35.5 8q16 7 33 22q0 51 9 88.5t20 62.5q13 28 30 48h11z" />
    <glyph glyph-name="M" unicode="M" horiz-adv-x="910" 
d="M859 732q-7 0 -17.5 -4.5t-20.5 -15.5t-17.5 -29.5t-8.5 -46.5v-603q1 -29 8.5 -47t17.5 -29t20.5 -15.5t17.5 -5.5h1v-26q-18 0 -34 4t-31.5 9t-31.5 9t-34 4t-34 -4t-31 -9t-31 -9t-34 -4v26h1q7 1 17.5 5.5t20.5 15.5t17.5 29t8.5 47v594l-180 -717l-219 657v-518
q1 -7 1.5 -15.5t2.5 -17.5q3 -14 8.5 -28t15.5 -25.5t24 -19t35 -7.5v-26q-41 0 -70 -9.5t-52.5 -24t-45 -31t-47 -31t-58.5 -24t-79 -9.5v24q48 0 96 29t84 84q17 26 27 52q2 6 5.5 13.5t5.5 16.5q5 14 8 32t3 42v554q0 48 -20.5 76t-45.5 28q-9 0 -19.5 -3t-19.5 -9.5
t-15.5 -18t-6.5 -28.5q0 -25 17.5 -42.5t42.5 -17.5q10 0 23 5q-8 -20 -26 -32.5t-41 -12.5q-19 0 -34.5 9t-25.5 24h-1q-2 3 -3.5 6l-3.5 7q-7 15 -7 39q0 31 13 50.5t32 30.5t39.5 15.5t35.5 4.5q15 -1 26 -5.5t20.5 -9t18.5 -8.5t19 -4q13 0 24 3t22 8q5 2 9 3.5t9 3.5
q8 4 18 5l193 -542l135 535l18 -6t18 -5q20 -5 36 -5q18 0 34 4t31.5 8.5t31.5 9t34 5.5v-27h-1z" />
    <glyph glyph-name="N" unicode="N" horiz-adv-x="767" 
d="M613 733q15 0 27.5 4t25 8.5l25 9t26.5 4.5v-27q-6 0 -20.5 -8t-29 -21.5t-25.5 -32.5t-11 -42v-587q0 -23 11 -42t25.5 -32.5t29 -21.5t20.5 -8v-27q-14 1 -26.5 5t-25 8.5t-25 8.5t-27.5 4t-27.5 -4t-25 -8.5t-25 -8.5t-27.5 -5v27h1q8 0 29 13.5t38 36.5q12 20 5.5 52
t-19.5 62q-15 35 -39 74l-258 405v-531q0 -7 1 -15.5t3 -17.5q3 -14 8.5 -28t15.5 -25t24 -18.5t35 -7.5v-27h-1q-41 0 -70 -9.5t-52.5 -24t-45 -31t-46.5 -31t-58 -24t-79 -9.5v25q48 0 96 28.5t83 83.5q16 23 28 52q2 6 5 13.5t6 16.5q5 14 8 32.5t3 41.5v554
q0 47 -20.5 76t-45.5 29q-9 0 -19.5 -3t-19.5 -10t-15.5 -18.5t-6.5 -28.5q0 -25 17.5 -42.5t42.5 -17.5q11 0 23 5q-8 -20 -26 -32.5t-41 -12.5q-19 0 -35 9t-26 24l-7 13v1q-8 18 -8 38q0 31 13.5 50.5t32 30.5t39.5 15.5t36 4.5q14 0 25 -4.5t21 -9t19 -8.5t19 -4
q26 0 49 10t33 13l265 -420v292q0 23 -11 42t-25.5 32.5t-28.5 21.5t-20 8q-1 0 -1 1v26q15 0 27.5 -4.5l25 -9t25 -8.5t27.5 -4z" />
    <glyph glyph-name="O" unicode="O" horiz-adv-x="511" 
d="M240 757q36 0 75 -25.5t71.5 -77.5t53.5 -131.5t21 -187.5q0 -109 -21 -188.5t-53.5 -131.5t-71.5 -77.5t-75 -25.5t-75 25.5t-71 77.5t-53 131.5t-21 188.5q0 108 21 187.5t53 131.5t71 77.5t75 25.5zM240 -54q15 0 29.5 31.5t26.5 84.5t19 124t7 149q0 77 -7 146.5
t-18 122.5t-25.5 85t-29.5 34v-280q2 -13 6.5 -26.5t11.5 -24.5t16.5 -18t22.5 -7q-13 0 -22.5 -7t-16.5 -18.5t-11.5 -25t-6.5 -26.5v-209q2 -8 7 -14.5t13 -6.5q-12 0 -17 -13.5t-5 -24.5q0 11 -5 24.5t-17 13.5q8 0 12.5 6.5t6.5 14.5v216q-5 25 -18 47.5t-37 22.5
q24 0 37 22t18 48v285q-15 -3 -29 -35.5t-25 -85t-17.5 -121.5t-6.5 -145q0 -78 7 -149t18.5 -124t26 -84.5t29.5 -31.5z" />
    <glyph glyph-name="P" unicode="P" horiz-adv-x="616" 
d="M316 30q1 -27 8.5 -45.5t17.5 -30t20.5 -16t17.5 -4.5h1v-27q-40 0 -69 -9.5t-53.5 -24t-46.5 -31t-48 -31t-58.5 -24t-76.5 -9.5v25q52 0 83 26t47 62t21 74.5t5 63.5v604q-1 28 -8.5 46.5t-17.5 29.5t-20.5 16t-17.5 5h-1q-12 0 -27.5 -6t-25.5 -22q-7 -13 -7 -32v-3
q1 -23 18 -39.5t41 -16.5h6q5 1 9 1.5t8 2.5q-5 -14 -16.5 -24.5t-25.5 -15.5q-9 -4 -25 -4q-5 0 -10 0.5t-10 1.5q-27 8 -40 30q-2 3 -3.5 6.5t-3.5 6.5v1q-8 19 -8 38q0 13 3 25q5 23 19 38t31.5 23.5t35.5 12t31 3.5q18 -1 34 -5.5t31.5 -9t31.5 -8.5t34 -4t34 4t31 8.5
t31 9t34 5.5h35q25 0 51.5 -10.5t48.5 -32.5t36 -54.5t14 -76.5q0 -83 -24 -135.5t-61 -83t-81 -42t-84 -11.5v-281zM316 369q40 0 68.5 26.5t44.5 65.5t19.5 84.5t-6.5 83.5t-34 62.5t-62 21.5q-14 -3 -21 -6q-2 -1 -4.5 -2t-4.5 -2v-334z" />
    <glyph glyph-name="Q" unicode="Q" horiz-adv-x="511" 
d="M370 -97q68 -42 123.5 -45.5t112.5 22.5q-15 -20 -33 -33.5t-36 -21t-34 -10.5t-28 -3q-42 0 -72.5 11.5t-58.5 25.5q-26 12 -53 25t-59 13q-35 0 -66 -12.5t-63 -40.5q12 31 28.5 56.5t46.5 38.5l-16 10h1q-28 19 -54 53.5t-45.5 83.5t-31.5 113.5t-12 145.5
q0 109 21 188.5t53 131.5t71 77.5t75 25.5t75 -25.5t71.5 -77.5t53.5 -131.5t21 -188.5q0 -86 -13.5 -153.5t-35.5 -118t-50.5 -83.5t-58.5 -50q19 -5 35.5 -12.5t31.5 -14.5zM237 723q-15 -3 -29 -35.5t-25 -85.5t-17.5 -122t-6.5 -145q0 -78 7 -148.5t18.5 -124t26 -84.5
t29.5 -31t29.5 31t26.5 84.5t19 124t7 148.5q0 77 -7 146.5t-18.5 122.5t-25.5 85t-29 34v-279q2 -13 6.5 -26.5t11.5 -25t16.5 -18.5t22.5 -7q-13 0 -22.5 -7t-16.5 -18t-11.5 -24.5t-6.5 -26.5v-210q2 -8 7 -14t13 -6q-12 0 -17 -14t-5 -24q0 10 -5 24t-17 14q8 0 12.5 6
t6.5 14v216q-5 26 -18 48t-37 22q24 0 37 22.5t18 47.5v286v0z" />
    <glyph glyph-name="R" unicode="R" horiz-adv-x="656" 
d="M536 219q0 -35 0.5 -79t4.5 -90t13.5 -90.5t27.5 -79.5t46 -56t70 -21v-24q-74 0 -121.5 27.5t-76 70.5t-41 96.5t-16 106t-2 98.5t1.5 74q0 38 -12 53t-29 19q-16 -5 -31 -7.5t-29 -3.5q-7 -1 -13.5 -1h-12.5v-281q1 -27 8.5 -45.5t17.5 -30t20.5 -16t17.5 -4.5h1v-27
q-40 0 -69 -9.5t-53.5 -24t-46.5 -31t-48 -31t-58.5 -24t-76.5 -9.5v25q52 0 83 26t47 62t21 74.5t5 63.5v604q-1 28 -8.5 46.5t-17.5 29.5t-20.5 16t-17.5 5h-1q-12 0 -27.5 -6t-25.5 -22q-7 -13 -7 -32v-3q1 -23 18 -39.5t41 -16.5h6q5 1 9 1.5t8 2.5q-5 -14 -16.5 -24.5
t-25.5 -15.5q-9 -4 -25 -4q-5 0 -10 0.5t-10 1.5q-27 8 -40 30q-2 3 -3.5 6.5t-3.5 6.5v1q-8 19 -8 38q0 13 3 25q5 23 19 38t31.5 23.5t35.5 12t31 3.5q18 -1 34 -5.5t31.5 -9t31.5 -8.5t34 -4t34 4t31 8.5t31 9t34 5.5h35q25 0 51.5 -10.5t48.5 -32.5t36 -54.5t14 -76.5
q0 -49 -9 -87.5t-24.5 -68t-36 -50t-44.5 -33.5q15 -5 30 -13.5t27 -23.5t19.5 -36.5t7.5 -52.5zM316 370q40 0 68.5 26.5t44.5 65.5t19.5 84.5t-6.5 83.5t-34 62.5t-62 21.5q-14 -3 -21 -6q-2 -1 -4.5 -2t-4.5 -2v-334z" />
    <glyph glyph-name="S" unicode="S" horiz-adv-x="707" 
d="M390 474l-12 -32q49 -30 97 -62t86 -71t61 -88.5t22 -114.5v-2q-3 -67 -30 -116.5t-69.5 -82t-95.5 -48t-108 -14.5q-24 0 -47.5 4t-44.5 11l2 -1q-19 9 -49 13.5t-63.5 3t-67.5 -10.5t-62 -29q-30 -21 -68.5 -37t-100.5 -16v24q62 0 119 45q16 13 37 34.5t39 51.5
t30.5 68t12.5 85q-2 54 19 93.5t53.5 64t72 34t75.5 3.5l16 46q-1 1 -2 1q-39 26 -74.5 53t-61.5 58t-40.5 68t-12.5 84v2q0 -1 1 11t7 30.5t18.5 40.5t35.5 41.5t58.5 34t86.5 17.5q35 2 68 -5t63 -22q37 -17 63 -17t47.5 6.5t41.5 15t44 8.5v-26q-21 -5 -37.5 -23.5
t-28.5 -44t-19.5 -53.5t-10.5 -51h-1q-8 -28 -25 -47.5t-40 -30.5t-49.5 -13t-53.5 6h-2zM357 455q3 7 5.5 14t5.5 15q-33 17 -47.5 45.5t-12.5 56.5t19.5 50t49.5 27q11 2 23 2t24 1.5t24 6.5t23 18l7 9q-26 20 -56 27t-63 5q-34 -2 -61 -15t-44.5 -32.5t-25 -44.5
t-2.5 -50q4 -21 18.5 -40.5t33.5 -37t40 -32t39 -25.5zM521 542q7 11 9.5 22.5t3.5 20.5q2 9 0 14q0 4 -3 27t-35 58q-26 -33 -50 -81t-47 -105q33 -9 67.5 1.5t54.5 42.5zM368 640q-19 -7 -29 -24t-9.5 -37.5t12 -40t35.5 -32.5q7 19 14 36t15 34q8 28 -5 48t-33 16z
M523 77q2 41 -9 72t-35 58t-60.5 53t-84.5 57q-2 -8 -5.5 -18t-7.5 -20q60 -17 93 -60.5t33 -106.5q-1 -19 -8.5 -42.5t-25 -43.5t-46.5 -31t-72 -4q-30 1 -48.5 -1t-30.5 -8t-20 -15t-16 -21q43 -32 91 -43t92.5 -3t81.5 33t58 66q10 19 14.5 38.5t5.5 39.5zM292 266
q-42 5 -76.5 -7.5t-59.5 -36.5t-39 -56.5t-14.5 -68t13.5 -71t46 -65.5q36 58 68 137.5t62 167.5zM263 16q46 -21 81 -14.5t57.5 30t30 58t-1.5 69t-37 63t-77 40.5q-17 -48 -33.5 -93t-34.5 -88q-8 -26 -4 -41.5t19 -23.5z" />
    <glyph glyph-name="T" unicode="T" horiz-adv-x="579" 
d="M579 730q-29 0 -47.5 -24t-29 -59.5t-14.5 -76.5t-4 -75v-51q3 -13 7.5 -26t11 -23.5t16 -17t21.5 -6.5q-12 0 -21.5 -6.5t-16 -17t-11 -23.5t-7.5 -26v-213q3 -8 7.5 -14t12.5 -6q-12 0 -17 -14t-5 -24q0 10 -5 24t-17 14q8 0 12.5 6t6.5 14v213q-2 13 -6.5 26
t-11.5 23.5t-16.5 17t-21.5 6.5q12 0 21.5 6.5t16.5 17t11.5 23.5t6.5 26v53q0 45 -3.5 89.5t-13.5 78.5q-8 27 -24.5 43t-39.5 16q-19 0 -31 -13.5t-12 -44.5v-635q1 -28 8.5 -46.5t17.5 -29.5t20.5 -16t17.5 -5h1v-26q-39 0 -68.5 -9.5t-53.5 -24t-46.5 -31t-48.5 -31
t-58.5 -24t-76.5 -9.5v24q52 0 83 26t47 62t21 74.5t5 64.5v638q-1 29 -12.5 42.5t-30.5 13.5q-23 0 -39.5 -16t-24.5 -43q-10 -34 -13.5 -78.5t-3.5 -89.5v-53q2 -13 6.5 -26t11.5 -23.5t16.5 -17t21.5 -6.5q-12 0 -21.5 -6.5t-16.5 -17t-11.5 -23.5t-6.5 -26v-213
q2 -8 6.5 -14t12.5 -6q-12 0 -17 -14t-5 -24q0 10 -5 24t-17 14q8 0 12.5 6t6.5 14v213q-2 13 -6.5 26t-11.5 23.5t-16.5 17t-21.5 6.5q12 0 21.5 6.5t16.5 17t11.5 23.5t6.5 26v51q0 34 -3.5 75t-14 76.5t-29 59.5t-47.5 24v27h155q20 0 36 -4t30.5 -8.5t28 -8.5t29.5 -5
h21q16 1 29.5 5t28 8.5t30.5 8.5t36 4h155v-27v0z" />
    <glyph glyph-name="U" unicode="U" horiz-adv-x="696" 
d="M561 730q15 0 27.5 4t25 8.5l25 9t27.5 5.5v-27h-1q-9 0 -28 -13q-20 -13 -39 -36t-19 -55v-432q0 -16 -1 -43.5t-6 -59t-15 -64t-27.5 -59t-44.5 -43t-65 -16.5q-56 0 -101 14.5t-77 49t-49 93t-17 146.5v422q-1 27 -8.5 45.5t-17.5 29.5t-20.5 16t-17.5 5h-2
q-8 0 -18.5 -3t-19.5 -9.5t-15.5 -18t-6.5 -29.5q0 -24 17 -41.5t42 -17.5q9 0 24 5q-8 -20 -26 -32.5t-41 -12.5q-20 0 -35.5 9t-25.5 23q-4 7 -7 14q-8 21 -8 38q0 31 13 50.5t32 31t39.5 16t35.5 4.5q18 -1 34 -5.5t31.5 -9t31.5 -8.5t34 -4t34 4t31.5 8.5t31.5 9t34 5.5
v-27h-2q-7 0 -17.5 -5t-20.5 -16t-17.5 -29.5t-8.5 -45.5v-445q-1 -32 2 -61.5t8 -55.5q4 -22 12 -43.5t20 -38.5t29 -28t39 -12v350q-5 25 -18.5 47.5t-37.5 22.5q24 0 37.5 22t18.5 48v165q-3 9 -8 16.5t-14 7.5q7 0 11.5 4.5t7.5 11t4 13.5t1 13q0 -6 1 -13t4 -13.5
t8 -11t12 -4.5q-9 0 -14.5 -7.5t-7.5 -16.5v-159q2 -13 6 -26.5t10.5 -24.5t16.5 -18t23 -7q-13 0 -23 -7t-16.5 -18.5t-10.5 -25t-6 -26.5v-343h1q30 0 50.5 14t34 36.5t21 50t11 54t4 48.5t0.5 34v439q0 22 -11.5 41.5t-26 33t-29 21.5t-20.5 8v27q15 -1 27.5 -5.5l25 -9
t25 -8.5t27.5 -4z" />
    <glyph glyph-name="V" unicode="V" horiz-adv-x="636" 
d="M531 730q15 0 27.5 4t25 8.5l25 9t27.5 5.5v-27h-1q-6 0 -20 -6t-29 -19t-28.5 -32.5t-17.5 -46.5v1l-98 -588q-6 -32 -2.5 -52t12 -32t18.5 -16.5t17 -4.5h1v-27q-17 1 -32 5t-29.5 8.5t-29.5 8.5t-32 5h-15q-17 -1 -32 -5t-29.5 -8.5t-29.5 -8.5t-32 -5v27h1
q7 0 17 4.5t18 16.5t11.5 32t-3.5 51l1 -5l-129 619q-8 33 -24 55t-48 23h-1q-9 0 -19.5 -3t-19.5 -9.5t-15.5 -18t-6.5 -29.5q0 -25 17.5 -42t42.5 -17q15 0 23 4q-8 -20 -26 -32t-41 -12q-40 0 -61 32q-2 3 -3.5 6.5t-3.5 7.5q-7 15 -7 38q0 31 13 50.5t32 31t39.5 16
t35.5 4.5q18 -1 34 -5.5t31 -9t31 -8.5t34 -4t34 4t31.5 8.5t31.5 9t34 5.5v-27h-1q-3 0 -4 -1q-9 -1 -18.5 -7t-16.5 -17.5t-10 -29t2 -41.5l2 -8l121 -582l98 583q5 30 -4 50t-23 31.5t-28.5 16.5t-21.5 5h-1v27q15 -1 27.5 -5.5l25 -9t25 -8.5t27.5 -4z" />
    <glyph glyph-name="W" unicode="W" horiz-adv-x="1030" 
d="M925 730q15 0 27.5 4t25 9t25 9t27.5 5v-27h-1q-6 0 -20 -6t-29 -19t-28 -32.5t-17 -46.5v2l-79 -589q-5 -32 -1.5 -52t11.5 -31.5t18 -16t17 -5.5h2v-26q-17 0 -32.5 4t-30 8.5t-29.5 8.5t-32 5h-14q-17 -1 -32 -5t-29.5 -8.5t-30 -8.5t-32.5 -4v26h2q7 1 17 5.5
t18 16.5t11 32t-4 51l-102 446l-91 -446q-6 -32 -2 -52t12 -31.5t18 -16t17 -5.5h1v-26q-17 0 -32 4t-29.5 8.5t-29.5 8.5t-32 5h-15q-17 -1 -32 -5t-29.5 -8.5t-29.5 -8.5t-32 -4v26h1q7 1 17.5 5.5t18.5 16.5t11 32t-4 51l-128 613q-8 34 -24 56t-48 22h-1q-9 0 -19.5 -3
t-19.5 -9.5t-15.5 -18t-6.5 -28.5q0 -25 17.5 -42.5t42.5 -17.5q11 0 23 5q-8 -20 -26 -32.5t-41 -12.5q-19 0 -34.5 9t-25.5 24q-6 8 -8 13q-7 17 -7 39q0 31 13 50.5t32 30.5t39.5 15.5t35.5 4.5q18 -1 34 -5t31 -9t31 -9t34 -4t34 4t31.5 9t31.5 9t34 5v-27h-5
q-9 -1 -18.5 -7t-16.5 -17.5t-10 -29t2 -41.5l2 -8l121 -582l99 526l-17 81q-8 34 -24 56t-48 22h-2v27q18 -1 34 -5t31.5 -9t31.5 -9t34 -4t34 4t31.5 9t31.5 9t34 5v-27h-5q-9 -1 -18.5 -7t-16.5 -17.5t-10 -29t2 -41.5l143 -590l78 582q5 31 -4 50.5t-23 31t-29 16.5
t-21 5h-1v27q14 -1 26.5 -5t25 -9t25 -9t27.5 -4zM648 37q-13 0 -22.5 -7t-16.5 -18.5t-11.5 -25t-6.5 -26.5v-103q3 -10 8.5 -17t13.5 -7q-13 0 -18.5 -15.5t-5.5 -26.5q0 11 -5.5 26.5t-19.5 15.5q9 0 14.5 7t7.5 17v104q-2 13 -6.5 26.5t-11.5 24.5t-16 18t-21 7
q12 0 21 7t16 18t11.5 24t6.5 26v120q-2 9 -7.5 16.5t-14.5 7.5q14 0 19.5 15.5t5.5 26.5q0 -11 5.5 -26.5t18.5 -15.5q-8 0 -13.5 -7.5t-8.5 -16.5v-119q2 -13 6.5 -26.5t11.5 -24.5t16.5 -18t22.5 -7z" />
    <glyph glyph-name="X" unicode="X" horiz-adv-x="711" 
d="M606 730q15 0 27.5 4t25 8.5l25 9t27.5 5.5v-27h-1q-6 0 -22 -6.5t-36 -20.5t-40.5 -35t-35.5 -50l-98 -222l118 -362q11 -32 22 -51.5t21 -30.5t18.5 -14.5t14.5 -3.5h3v-26q-17 0 -32.5 3.5t-30 8t-29.5 9t-32 5.5h-14q-17 -1 -32 -5.5t-29.5 -9t-30 -8t-32.5 -3.5v26
h2q7 0 15.5 4.5t15 16.5t8.5 32t-5 51v1l-55 202l-74 -176q-7 -21 -12.5 -45t-3.5 -44q2 -18 12.5 -29.5t33.5 -11.5h2v-27h7q-40 0 -69.5 -9.5t-54 -24t-47 -31t-49 -31t-60 -24t-79.5 -9.5v25q42 0 84.5 18t77.5 56q47 46 77 101t58 119l84 193l-2 5l-121 335
q-12 31 -23 50.5t-20.5 30.5t-18 14.5t-15.5 3.5h-2q-8 0 -18.5 -3t-19.5 -9.5t-15.5 -18t-6.5 -28.5q0 -25 17 -42.5t42 -17.5q9 0 24 5q-8 -20 -26 -32.5t-41 -12.5q-20 0 -35.5 9t-25.5 24q-3 3 -7 13q-8 21 -8 39q0 31 13 50.5t32 30.5t39.5 15.5t35.5 4.5
q17 -1 32.5 -5t30 -8t29.5 -8t32 -5h14q17 1 32 5.5t29.5 9t30 8t32.5 3.5v-27h-2q-7 0 -17 -5t-17 -17t-8.5 -32t8.5 -50l59 -186l80 186q13 27 10 46.5t-13 32.5t-22 19t-18 6v27q15 -1 27.5 -5.5l25 -9t25 -8.5t27.5 -4z" />
    <glyph glyph-name="Y" unicode="Y" horiz-adv-x="692" 
d="M588 732q15 0 27.5 3.5t25 8t25 8.5t26.5 5v-27h-1q-12 0 -25 -11t-25.5 -27t-24 -34t-19.5 -32l-107 -236v-359q1 -28 8.5 -46.5t17.5 -29.5t20.5 -16t17.5 -5h2v-27q-40 0 -69 -9.5t-53.5 -23.5t-47 -31t-48.5 -31t-58.5 -23.5t-76.5 -9.5v24q35 0 60 12t42.5 31.5
t28 44.5t16.5 50t8 48.5t2 40.5v351l-184 318q-17 28 -50 31h-6q-8 0 -18.5 -3t-19.5 -9.5t-15.5 -18t-6.5 -28.5q0 -25 17 -42.5t42 -17.5q11 0 23 5q-8 -20 -26 -32.5t-41 -12.5q-19 0 -34.5 9t-25.5 23q-4 7 -7 14q-8 19 -8 38q0 31 13 50.5t32 31t39.5 16t35.5 4.5
q18 -1 35 -5t33.5 -9t33.5 -9t35 -4t34 4t31.5 9t31.5 9t34 5v-27h-5q-9 -1 -20.5 -8.5t-19.5 -21t-10 -32t9 -42.5l120 -214l99 214q9 19 7 38t-13 34t-29 24t-41 8h-2v27q15 -1 27.5 -5t25 -8.5t25 -8t27.5 -3.5z" />
    <glyph glyph-name="Z" unicode="Z" horiz-adv-x="512" 
d="M499 757q3 0 6 0.5t7 0.5v-27q-10 0 -15 -1q-8 -2 -15.5 -7t-15 -16.5t-16.5 -30.5t-20 -49l-208 -584q-3 -14 -2.5 -30t8 -29.5t22.5 -22t41 -8.5h6q31 2 41.5 19.5t14.5 46.5q1 11 1.5 23.5t2.5 25.5l3 33q5 32 20 58.5t52 39.5q1 0 2 1h3q1 1 2 1t1.5 0.5t1.5 0.5
q2 0 3 1h3q-22 -31 -31.5 -69.5t-4.5 -78.5v-2q4 -23 13 -52t29 -48q13 -15 36 -18v-27q0 1 -8 3.5t-18.5 4.5t-20 3.5t-11.5 2.5q-17 2 -33.5 4t-33.5 0q-16 -2 -30 -7t-29 -9q-11 -2 -21 -2h-20h-2q-23 2 -42.5 8t-39.5 12q-11 3 -22.5 5t-24.5 2q-27 0 -50 -7.5
t-47 -13.5q-6 -2 -12 -3t-13 -2q-3 0 -6 -0.5t-6 -0.5v27q10 0 15 1q8 1 15 6t15 16.5t16.5 30.5t19.5 48l209 586q3 14 2 30t-8.5 29.5t-22.5 22t-40 8.5h-5q-32 -2 -43 -19.5t-14 -46.5q-2 -11 -2.5 -23.5t-1.5 -25.5q-1 -8 -1.5 -16.5t-2.5 -16.5q-5 -35 -23 -63.5
t-64 -38.5q22 30 31.5 69t4.5 78q-1 1 -1 3q-4 23 -13 52t-28 48q-15 15 -36 18v27q14 -4 27.5 -7.5t27.5 -5.5q16 -3 32 -5t33 0q17 1 31.5 6t30.5 9q11 3 21.5 3h21.5h2q23 -2 42.5 -8t39.5 -12q11 -3 22.5 -5t24.5 -2q26 0 49.5 8t47.5 13q6 2 12 3z" />
    <glyph glyph-name="a" unicode="a" horiz-adv-x="465" 
d="M435 21v-21q-14 0 -26 3.5t-24 7.5t-24 7t-26 3t-26.5 -3t-24 -7t-24 -7.5t-26.5 -3.5v21h4q7 1 14 5.5t12.5 13.5t7.5 22t-1 32l-35 167l-32 -10t-34 -7q-13 -2 -24 -1.5t-21 2.5l-24 -145q-4 -24 3 -39t18 -24t22 -12.5t16 -3.5h1v-21q-11 0 -21 3.5t-19 7.5t-19 7
t-21 3t-21 -3t-19.5 -7t-19.5 -7.5t-21 -3.5v21h1q4 0 15 5t22.5 14.5t21.5 24.5t13 36v-1l26 152q-16 4 -24.5 14t-13 20.5t-5.5 20t-1 12.5q6 -11 18.5 -19t31.5 -11l44 263q4 24 1 39.5t-9 24.5t-13.5 13t-12.5 4h-2v21q27 -2 48 -10.5t47 -10.5h12q26 2 47 10.5t47 10.5
v-21h-1q-5 0 -13 -3.5t-14 -12.5t-8.5 -24.5t3.5 -39.5l-1 4l44 -214q18 3 36.5 -1t33.5 -15t24.5 -28t9.5 -38q-6 8 -17.5 14t-24 9t-26 3t-23.5 -3l42 -203q6 -26 18 -43t37 -17h1zM133 288q32 5 53 15t37 19l-47 226l-43 -260v0z" />
    <glyph glyph-name="b" unicode="b" horiz-adv-x="405" 
d="M354 325q2 -68 0 -127t-16.5 -103t-46.5 -69.5t-90 -25.5q-14 0 -26 3.5t-24 7.5t-24 7t-26 3t-26.5 -3t-24.5 -7t-24 -7.5t-26 -3.5v21h1q5 0 13 3.5t16 12t13.5 22.5t6.5 36v464q-1 21 -6.5 35.5t-13.5 22.5t-16 12t-13 4h-1v21q14 -1 26 -4.5l24 -7t24.5 -6.5t26.5 -3
t26 3t24 6.5l24 7t26 4.5h27q21 0 41.5 -3.5t37 -13t26.5 -25.5t10 -41q0 -27 -8.5 -47t-23 -34.5t-33 -23.5t-38.5 -15q17 1 36.5 -2.5t36.5 -16.5t28.5 -38.5t12.5 -68.5zM151 486q36 11 54 30.5t22.5 39t-1 36t-15.5 22.5q-8 5 -18.5 6t-18.5 0q-10 -1 -17 -5l-6 -3v-126
zM151 91q33 -7 53 3.5t31 35t15 61.5t4 85q0 106 -42 132q-15 8 -26 7t-19 -6q-9 -5 -16 -14v-75q10 10 23 14t25.5 2t23 -9.5t15.5 -19.5q-8 7 -21.5 1t-27.5 -26.5t-25 -55.5t-13 -84v-51v0z" />
    <glyph glyph-name="c" unicode="c" horiz-adv-x="352" 
d="M242 462v-50q4 -20 14 -38t29 -18q-19 0 -29 -18t-14 -38v-161q-3 0 -4 -1v162q-3 20 -13.5 38t-29.5 18q19 0 29.5 18t13.5 38v64q-1 31 -7 58t-15.5 46.5t-20.5 31t-23 12.5h-3q-12 0 -21 -30q-11 -38 -15.5 -110t-4.5 -159q0 -60 2 -114t7 -95t13 -65t20 -24
t20.5 27.5t13.5 75.5q12 -2 27 -0.5t31 7t31.5 16.5t28.5 29q-2 -13 -5.5 -25t-7.5 -22q-26 -69 -64.5 -102t-74.5 -33q-28 0 -58 19.5t-55 59.5t-41 101.5t-16 144.5q0 103 23.5 172.5t56.5 107.5q20 23 47 37q16 9 26.5 11t15.5 1q12 -1 21.5 -5.5t24.5 -7.5t39.5 -1
t67.5 14v-21q-15 -2 -29 -16.5t-25 -38t-18 -53.5t-7 -63h-1z" />
    <glyph glyph-name="d" unicode="d" horiz-adv-x="405" 
d="M353 471q1 -30 1.5 -70.5t0.5 -77t-0.5 -62l-0.5 -25.5q-1 -50 -7.5 -93t-23 -74.5t-46 -50t-76.5 -18.5q-14 0 -26 3.5t-24 7.5t-24 7t-26 3t-26.5 -3t-24.5 -7t-24 -7.5t-26 -3.5v21h1q5 0 13 3.5t16 12t13.5 22.5t6.5 36v464q-1 21 -6.5 35.5t-13.5 22.5t-16 12t-13 4
h-1v21q14 -1 26 -4.5l24 -7t24.5 -6.5t26.5 -3t26 3t24 6.5l24 7t26 4.5h30q41 0 65 -18.5t36.5 -46t16 -59.5t4.5 -59zM266 406q0 46 -0.5 78.5t-5 55.5t-13.5 39t-25 29q-17 11 -33 7.5t-26 -9.5q-3 -2 -5 -3.5t-4 -2.5q-2 -2 -3 -2v-86q10 10 23.5 14t26 2t22.5 -9.5
t15 -19.5q-8 8 -22.5 1t-28.5 -29t-24.5 -59.5t-11.5 -89.5v-231q21 -3 41.5 -3.5t37 15.5t26.5 55.5t10 117.5v130z" />
    <glyph glyph-name="e" unicode="e" horiz-adv-x="387" 
d="M298 542q-1 0 -1 -2q-4 -30 3 -60t24 -53q-30 7 -44 23.5t-19.5 38t-6.5 44.5t-4.5 42t-13 31.5t-32.5 12.5q-17 0 -27.5 -6.5t-16 -16t-7.5 -20t-2 -18.5v-188q14 10 31 17t40 7q9 0 19.5 -2t22 -10t23.5 -23t24 -40q-24 22 -43.5 23t-38 -8.5t-37.5 -25t-41 -27.5v-185
q0 -11 2.5 -22t8.5 -20q8 -11 20 -15.5t25 -4.5h3l10 1q26 3 41 20t21.5 40t3.5 48.5t-13.5 45t-28 29.5t-40.5 2l5 7q11 16 30 17.5t38.5 1.5t36.5 6.5t25 33.5q6 -12 10 -29t5.5 -35.5t1.5 -37.5t-1 -35q-2 -27 -11 -53.5t-26 -48t-44.5 -34.5t-67.5 -13h-5q-7 0 -17.5 2
t-21 5t-19 5.5t-11.5 3.5q-17 5 -31 5t-26.5 -3t-24.5 -7t-24 -7.5t-26 -3.5v21h1q5 0 13 3.5t16 12t13.5 22.5t6.5 36v188q-5 4 -9 7.5t-9 7.5q-14 15 -21 33.5t-11 27.5q5 -6 18.5 -14.5t31.5 -12.5v227q-1 21 -6.5 35.5t-13.5 22.5t-16 12t-13 4h-1v21q14 -1 26 -4.5
l24 -7t24.5 -6.5t26.5 -3t26 3t24 6.5l24 7t26 4.5h156v-21q-8 -1 -15 -5t-13 -9q-14 -14 -21.5 -36.5t-9.5 -40.5z" />
    <glyph glyph-name="f" unicode="f" horiz-adv-x="386" 
d="M356 654v-21q-8 -1 -15 -5t-13 -9q-14 -14 -21.5 -36.5t-9.5 -40.5v-3q-4 -30 3 -59.5t24 -52.5q-36 8 -50.5 31t-19.5 50.5t-7 54.5t-13 42q-5 8 -21 13t-39 -6q-14 -10 -18.5 -26t-4.5 -29v-185q14 9 30 15.5t37 6.5q9 0 19.5 -2.5t22 -10t23.5 -23t24 -40.5
q-24 21 -43 22.5t-37 -7.5t-36.5 -23.5t-39.5 -26.5v-188q1 -22 6.5 -36t13.5 -22.5t16 -12t13 -3.5h1v-21q-14 0 -26 3.5t-24 7.5t-24 7t-26 3t-26.5 -3t-24.5 -7t-24 -7.5t-26 -3.5v21h1q5 0 13.5 3.5t16.5 12t13.5 22.5t5.5 36v185q-11 7 -22 18q-14 14 -21 33t-11 28
q5 -7 19.5 -16t34.5 -12v228q-1 21 -6.5 35.5t-13.5 22.5t-16 12t-13 4h-1v21q14 -1 26 -4.5l24 -7t24.5 -6.5t26.5 -3q13 0 25 3t23.5 6.5l23 7t25.5 4.5h158z" />
    <glyph glyph-name="g" unicode="g" horiz-adv-x="393" 
d="M354 360q2 0 5.5 -7t3.5 -18.5t-6 -24t-23 -22.5q1 -13 0 -25q-2 -131 -20 -224.5t-46 -153.5t-61.5 -88t-65.5 -28q-20 1 -36.5 12t-26.5 28q-11 26 -8 44.5t4 22.5q1 -12 7.5 -21.5t15.5 -15.5t18.5 -8.5t16.5 -1.5q22 1 38 17.5t28 42.5t19.5 60t11.5 71l-4 -3
q-29 -17 -55 -17q-28 0 -58 19.5t-55 59.5t-41 101.5t-16 144.5q0 103 23.5 172.5t56.5 107.5q17 20 40 34.5t50 14.5q3 0 11 -2h-1q9 -2 17.5 -5.5t22.5 -5.5t36.5 -0.5t58.5 11.5l7 2v-21q-19 -3 -30 -16q-14 -14 -20.5 -36t-8.5 -39q0 -1 -0.5 -1.5t-0.5 -1.5
q-4 -30 3.5 -59.5t24.5 -52.5q-34 7 -49.5 31.5t-19.5 56.5q0 4 -0.5 7.5t-0.5 8.5q-1 11 -1.5 22.5t-2.5 22.5q-3 19 -13 33t-31 15h-3q-11 0 -19 -24.5t-13 -65.5t-7 -95t-2 -114t2 -114t7 -95t13 -65t20 -24q4 0 11 4.5t14.5 19t15 40t13.5 67.5t5 71.5t-5 46.5
q-2 8 -4.5 10.5t-5.5 3.5l-7 -1q-16 -6 -27 -29q-2 27 7 45q8 16 27 25.5t58 0.5q17 -5 28 -6q29 -6 42.5 7.5t11.5 27.5z" />
    <glyph glyph-name="h" unicode="h" horiz-adv-x="450" 
d="M419 633q-5 0 -13 -4t-16 -12t-13.5 -22.5t-6.5 -35.5v-187q10 -8 20 -19.5t20 -28.5q-19 14 -40 20v-249q1 -22 6.5 -36t13.5 -22.5t16 -12t13 -3.5h1v-21q-14 0 -26 3.5t-24 7.5t-24.5 7t-26.5 3t-26 -3t-24 -7t-24 -7.5t-26 -3.5v21h1q5 0 13 3.5t16 12t13.5 22.5
t6.5 36v226q-23 -13 -47.5 -26t-53.5 -19q-5 -1 -9 -1t-8 -1v-179q1 -22 6.5 -36t13.5 -22.5t16 -12t13 -3.5h1v-21q-14 0 -26 3.5t-24 7.5t-24 7t-26 3t-26.5 -3t-24.5 -7t-24 -7.5t-26 -3.5v21h1q5 0 13 3.5t16 12t13.5 22.5t6.5 36v205l-4 3q-17 15 -27 33.5t-15 27.5
q5 -5 17 -11t29 -11v217q-1 21 -6.5 35.5t-13.5 22.5t-16 12t-13 4h-1v21q14 -1 26 -4.5l24 -7t24.5 -6.5t26.5 -3t26 3t24 6.5l24 7t26 4.5v-21h-1q-5 0 -13 -4t-16 -12t-13.5 -22.5t-6.5 -35.5v-211q13 6 26.5 13.5t27.5 15t29.5 13t34.5 8.5v161q-1 21 -6.5 35.5
t-13.5 22.5t-16 12t-13 4h-1v21q14 -1 26 -4.5l24 -7t24 -6.5t26 -3q28 0 50.5 9.5t50.5 11.5v-21h-1v0z" />
    <glyph glyph-name="i" unicode="i" horiz-adv-x="231" 
d="M100 653q0 11 -2.5 25.5t-8.5 27t-15 21.5t-22 9q13 0 22 9t15 21.5t8.5 27t2.5 25.5q0 -11 2.5 -25.5t8.5 -27t15.5 -21.5t22.5 -9q-13 0 -22.5 -9t-15.5 -21.5t-8.5 -27t-2.5 -25.5zM201 653v-21h-1q-5 0 -13 -4t-16 -12t-13.5 -22.5t-6.5 -35.5v-463q0 -22 5.5 -36
t13.5 -22.5t16.5 -12t13.5 -3.5h1v-21q-14 0 -26 3.5t-24 7.5t-24 7t-26 3t-26.5 -3t-24.5 -7t-24 -7.5t-26 -3.5v21h1q5 0 13.5 3.5t16.5 12t13.5 22.5t5.5 36v463q-1 21 -6.5 35.5t-13.5 22.5t-16 12t-13 4h-1v21q14 -1 26 -4.5l24 -7t24.5 -6.5t26.5 -3t26 3t24 6.5l24 7
t26 4.5z" />
    <glyph glyph-name="j" unicode="j" horiz-adv-x="234" 
d="M104 633q14 0 26 3t24 6.5l24 7t26 3.5v-20h-1q-5 0 -13 -4t-16 -12.5t-13.5 -22.5t-6.5 -35v-411q0 -68 -12 -120l-3 -12q-3 -12 -11 -31q-12 -28 -31 -48q-20 -23 -53.5 -40.5t-84.5 -17.5q-50 0 -81.5 17.5t-50 41.5t-26 48t-8.5 37q-2 16 -1.5 34.5t2 37.5t5.5 36
t10 29q6 -18 16 -25t22 -8.5t25 0t25.5 1t23.5 -6t18 -20.5l3 -7q-24 8 -39.5 -1.5t-23.5 -28t-7.5 -43t9 -47t25 -39t42.5 -19.5h5q7 0 12 1q30 3 47.5 23t26.5 47.5t11.5 58t2.5 55.5v457q0 13 -3 24q-4 17 -11 27.5t-15 15.5q-11 8 -21 8v20q17 -1 31 -5l28 -8h1
q10 -3 20 -5t21 -2z" />
    <glyph glyph-name="k" unicode="k" horiz-adv-x="379" 
d="M276 407q0 -7 1 -35.5t4 -71t7.5 -94.5t11.5 -105.5t17.5 -105t24.5 -93t32 -68.5t41 -31q-21 -1 -57 32t-71 102.5t-61 176t-26 253.5v46q0 11 -10 20t-39 11v-350q1 -21 6.5 -35.5t13.5 -22.5t16 -12t13 -4h1v-21q-14 1 -26 4t-24 7t-24 7t-26 3t-26.5 -3t-24.5 -7
t-24 -7t-26 -4v21h1q5 0 13 4t16 12t13.5 22.5t6.5 35.5v464q-1 21 -6.5 35.5t-13.5 22.5t-16 12t-13 4h-1v21q14 0 26 -3.5t24 -7.5t24.5 -7t26.5 -3t26 3t24 7t24 7.5t26 3.5v-21h-1q-5 0 -13 -4t-16 -12t-13.5 -22.5t-6.5 -35.5v-71q27 0 43 17.5t28.5 41t26.5 48.5
t38 41q12 8 26.5 12.5t34.5 4.5q-18 0 -26.5 -13.5t-14.5 -34t-12.5 -44.5t-20 -46t-37.5 -38.5t-65 -20.5h21q6 0 14 -4l17 -8.5t18 -8t17 -3.5q7 0 10.5 1t5.5 1v-10.5t1 -15.5z" />
    <glyph glyph-name="l" unicode="l" horiz-adv-x="330" 
d="M303 237q-15 -15 -22.5 -33t-10.5 -37.5t-1.5 -39.5t5.5 -38q9 -44 29 -89h-100q-11 0 -26 2.5t-30 6t-29.5 6t-24.5 2.5t-15 -1q-14 -2 -31 -7.5t-30 -7.5l-17 -2v20h1q5 0 13 3.5t16 12t13.5 22.5t6.5 36v467q-1 21 -6.5 35.5t-13.5 22.5t-16 12t-13 4h-1v21
q14 -1 26 -4.5l24 -7t24.5 -6.5t26.5 -3t26 3t24 6.5l24 7t26 4.5v-21h-1q-5 0 -13 -4t-16 -12t-13.5 -22.5t-6.5 -35.5v-464q0 -21 7 -32.5t18.5 -16.5t24.5 -5h25q-11 57 -1.5 94t25.5 59.5t32.5 32t20.5 9.5z" />
    <glyph glyph-name="m" unicode="m" horiz-adv-x="582" 
d="M551 633q-5 0 -13 -4t-16 -12t-13.5 -22.5t-6.5 -35.5v-464q1 -22 6.5 -36t13.5 -22.5t16 -12t13 -3.5h1v-21q-14 0 -26 3.5t-24 7.5t-24.5 7t-26.5 3t-26 -3t-24 -7t-24 -7.5t-26 -3.5v21h1q5 0 13 3.5t16 12t13.5 22.5t6.5 36v445l-101 -281q6 -39 1 -80t-23 -78
q-8 -17 -18.5 -27t-20.5 -15q-11 -6 -23 -8l3 3q5 6 15 22t12 43.5t-11 69t-54 100.5q-15 19 -30 43.5t-27.5 52t-20.5 57.5t-9 62v-403q0 -18 8.5 -32.5t20 -25t22 -16.5t15.5 -6h1v-21q-11 0 -21 3.5t-19.5 7.5t-19.5 7t-21 3t-21 -3t-19 -7t-19 -7.5t-21 -3.5v21
q5 0 16 6t22 16.5t19.5 25t8.5 32.5v452q0 18 -8.5 32.5t-20 25t-22.5 16.5t-15 6v21q11 -1 21 -4.5t19 -7t19 -6.5t21 -3q10 0 19 2.5t17 5.5l10 4t9 3t8 3q0 -17 1 -32t3 -29q8 -59 28.5 -99.5t44.5 -74.5q7 -10 27 -39.5t36 -63.5l1 5l101 294l12 32q6 -2 12.5 -4
t13.5 -4q13 -3 28 -3q28 0 50.5 9.5t50.5 11.5v-21h-1v0z" />
    <glyph glyph-name="n" unicode="n" horiz-adv-x="472" 
d="M442 633q-5 0 -16 -6t-22 -16.5t-19.5 -25t-8.5 -32.5v-452q0 -18 8.5 -32.5t19.5 -25t22 -16.5t16 -6v-21q-22 1 -40 11t-40 10q-11 0 -21 -3t-19.5 -7t-19.5 -7.5t-21 -3.5v21h1q6 0 22.5 10.5t28.5 27.5q3 5 4 12.5t1 15.5v18q-1 3 -1 7v22q0 11 -1 16
q-6 -25 -17.5 -39.5t-23.5 -22.5q-14 -9 -29 -12q23 28 33 61q8 28 4 63t-37 73q-27 25 -57 48.5t-55.5 51t-42 61.5t-16.5 81v-414q0 -18 8.5 -32.5t19.5 -25t22 -16.5t16 -6v-21q-11 0 -21 3.5t-19 7.5t-19 7t-21 3t-21 -3t-19.5 -7t-19.5 -7.5t-21 -3.5v21h1q4 0 15 6
t22.5 16.5t20 25t8.5 32.5v452q0 18 -9 32.5t-20 25t-22.5 16.5t-15.5 6v21q11 -1 21 -4.5t19.5 -7t19.5 -6.5t21 -3q10 0 18.5 2.5t16.5 5.5q7 2 13.5 5t14.5 5q0 -47 15 -83t38 -64.5t49 -52.5t49 -46.5t38 -45.5t15 -51v245q0 18 -8.5 32.5t-20 25t-22.5 16.5t-15 6h-1
v21q11 -1 21 -4.5t19.5 -7t19.5 -6.5t21 -3q22 0 40 9.5t40 11.5v-21v0z" />
    <glyph glyph-name="o" unicode="o" horiz-adv-x="418" 
d="M198 662q28 0 59 -20t57 -61.5t42.5 -105t16.5 -149.5t-16.5 -149.5t-42.5 -104.5t-57 -61t-59 -20q-29 0 -60 20t-56.5 61t-42.5 104.5t-17 149.5t17 149.5t42.5 105t56.5 61.5t60 20zM198 19q12 0 23 25t20 67t14.5 97.5t5.5 117.5q0 18 -0.5 35t-1.5 34q-23 -6 -47 1
t-41 31q23 -3 38 6.5t23.5 27t10 39.5t-2.5 45q-9 42 -20 66t-22 24q-12 0 -23.5 -25t-20 -67.5t-14 -98.5t-5.5 -118q0 -29 1 -57.5t3 -54.5q23 9 49.5 3t46.5 -32q-23 3 -38.5 -6.5t-23.5 -27t-10 -40t2 -44.5q8 -23 16 -35.5t17 -12.5z" />
    <glyph glyph-name="p" unicode="p" horiz-adv-x="373" 
d="M343 571q0 -30 -10.5 -49t-27.5 -34q-12 -10 -25 -18.5t-27 -17t-27.5 -17.5t-25.5 -21q-15 -15 -21.5 -28t-8.5 -23v-11.5t2 -10.5q5 -16 13.5 -22.5t16.5 -9.5q-1 0 -2 -1q-2 -2 -4 -2q-13 -3 -24 1.5t-21 12.5v-225q1 -22 6.5 -36t13.5 -22.5t16 -12t13 -3.5h1v-21
q-14 0 -26 3.5t-24 7.5t-24 7t-26 3t-26.5 -3t-24.5 -7t-24 -7.5t-26 -3.5v21h1q5 0 13 3.5t16 12t13.5 22.5t6.5 36v464q-1 21 -6.5 35.5t-13.5 22.5t-16 12t-13 4h-1v21q14 -1 26 -4.5l24 -7t24.5 -6.5t26.5 -3t26 3t24 6.5l24 7t26 4.5h27q19 0 39 -3.5t36 -12t26.5 -23
t12.5 -36.5l1 -8v0zM151 402q3 9 13.5 25t22.5 36t23 42t16 42.5t1.5 38t-20.5 28.5q-8 5 -16.5 6t-16.5 0q-10 -1 -17 -5l-6 -3v-210v0z" />
    <glyph glyph-name="q" unicode="q" horiz-adv-x="417" 
d="M883 -100q56 19 95 59l-6 -15q-1 -1 -1 -2t-1 -2q-14 -28 -36 -46.5t-49 -29.5t-57 -16t-58 -5q-41 -1 -81.5 4t-81.5 13t-81 18t-80 21q-48 12 -96 24.5t-98 19.5q-25 4 -49.5 5t-49.5 -1q-60 -8 -99 -52q0 5 0.5 12t1.5 12q5 21 21 37t34 26q8 4 16.5 7.5t17.5 5.5
q-24 13 -46.5 42.5t-40 72.5t-28 99t-10.5 124q0 86 16.5 149.5t42.5 105t56.5 61.5t59.5 20q28 0 59 -20t57 -61.5t42.5 -105t16.5 -149.5q0 -64 -9.5 -118t-25.5 -96.5t-37 -72.5t-43 -45q26 -3 51 -8.5t48 -10.5q75 -17 147 -38t147 -38q58 -12 118 -17.5t117 11.5z
M132 333q0 -29 1.5 -57t3.5 -54q23 9 49.5 2.5t45.5 -32.5q-23 3 -38 -6.5t-23.5 -27t-10 -39.5t2.5 -44q8 -37 16 -52t16 -15q12 0 23 27.5t20 73t14.5 104t5.5 120.5v35.5t-2 34.5q-22 -6 -46 1t-41 31q23 -3 38 6.5t23.5 27t10 39.5t-2.5 44q-9 42 -20 66t-23 24
t-23.5 -25t-20 -67.5t-14 -98.5t-5.5 -118z" />
    <glyph glyph-name="r" unicode="r" horiz-adv-x="387" 
d="M275 401q0 -17 2.5 -66.5t8 -114t15 -135.5t25 -131.5t37 -102t51.5 -47.5q-21 -1 -57 32t-71 102.5t-61 176t-26 253.5v46q0 11 -10 20t-38 11v-350q1 -21 6.5 -35.5t13.5 -22.5t16 -12t13 -4h1v-21q-14 1 -26 4t-24 7t-24 7t-26 3t-26.5 -3t-24.5 -7t-24 -7t-26 -4v21
h1q5 0 13 4t16 12t13.5 22.5t6.5 35.5v464q-1 21 -6.5 35.5t-13.5 22.5t-16 12t-13 4h-1v21q14 -1 26 -4.5l24 -7t24.5 -6.5t26.5 -3t26 3t24 6.5l24 7t26 4.5h27q21 0 41.5 -3.5t37 -13t26.5 -25.5t10 -41q0 -20 -8 -40.5t-23.5 -37t-38.5 -27t-53 -10.5h-28q6 0 14 -4
t16.5 -8.5t17.5 -8t17 -3.5t11.5 0.5t5.5 1.5v-18q0 -7 1 -15zM151 486q36 12 53.5 31t21 39t-2.5 36t-16 22q-8 5 -16.5 6t-16.5 0q-5 -1 -9.5 -2t-7.5 -2l-6 -3v-127v0z" />
    <glyph glyph-name="s" unicode="s" horiz-adv-x="327" 
d="M314 136q2 -92 -22 -158t-61.5 -108.5t-83.5 -63t-87 -21.5q-47 0 -88.5 19t-72.5 51t-48.5 74t-17.5 87t12 83t35 65t56.5 42t75.5 15q-11 -9 -27.5 -23t-32 -37.5t-26.5 -59t-11 -88.5q0 -22 6.5 -55.5t22.5 -65.5t44 -55t72 -23q25 0 54.5 16t54 50t38.5 87.5t7 127.5
q-2 45 -13.5 86.5t-29 80.5t-40 76t-45.5 75q-19 32 -36 69t-17 75q0 22 8.5 40t22 30.5t31.5 19t37 6.5q25 0 41.5 -5t27.5 -15q3 -2 6.5 1t5.5 8q3 5 5 13l18 -2q-5 -24 -7 -51q-2 -23 -1 -53t8 -62v-4l-25 18q-1 24 -7 48q-5 20 -15.5 41t-27.5 35q-5 3 -12 5.5t-15 2.5
q-17 0 -26.5 -11.5t-6.5 -31.5q2 -17 11 -33.5t19 -30.5q9 -14 26.5 -37.5t37.5 -54.5t41.5 -67.5t38.5 -75t28 -78.5t11 -77z" />
    <glyph glyph-name="t" unicode="t" horiz-adv-x="466" 
d="M435 654q-10 -29 -18 -60t-13 -64q-10 -57 -12 -130.5t17 -152.5q-51 78 -70 152.5t-19 134.5q27 9 37.5 29.5t6 38.5t-21.5 26.5t-44 -5.5q-10 -8 -18 -23t-9 -41v-464q1 -22 7 -36t13.5 -22.5t15.5 -12t13 -3.5h1v-21q-14 0 -26 3.5l-24 7l-24 7t-26 3.5t-26.5 -3.5
t-24.5 -7l-24 -7t-26 -3.5v21h1q5 0 13 3.5t15.5 12t13.5 22.5t7 36v464q-1 25 -8 40t-16 23q-28 17 -46 8.5t-22.5 -27t5.5 -39.5t38 -30q0 -60 -19 -134.5t-70 -152.5q18 79 16.5 152.5t-11.5 130.5q-5 33 -13 64t-19 60h132q14 -1 23.5 -4.5t18 -7t18.5 -6.5t24 -3
t26 3.5l24 7t23.5 7t25.5 3.5h115z" />
    <glyph glyph-name="u" unicode="u" horiz-adv-x="457" 
d="M347 632q11 0 21 3t19 6.5t19 7t21 3.5v-20q-3 -1 -8.5 -3t-13.5 -7q-15 -11 -29.5 -29t-14.5 -42v-332q0 -12 -1 -33t-4.5 -45.5t-11.5 -49.5t-21.5 -45t-34 -33t-50.5 -13q-43 0 -77.5 11t-59 37.5t-38 71.5t-13.5 113v324q-1 21 -6.5 35.5t-13 22.5t-15.5 12t-13 4h-2
v21q14 0 26 -3.5l24 -7t24.5 -6.5t26.5 -3t26 3t24 6.5l24 7t26 3.5v-21h-1q-6 0 -14 -4t-15.5 -12t-13 -22.5t-6.5 -35.5v-47q10 10 23.5 14t26 2t23 -9.5t15.5 -19.5q-9 8 -23.5 0.5t-29 -30.5t-25 -61.5t-10.5 -93.5v-97q-1 -52 8 -92q4 -17 10 -33.5t16 -29.5t23.5 -21
t31.5 -8q23 0 38.5 11t26 28t16 38.5t8.5 41.5t3.5 37.5t0.5 26.5v337q0 18 -9 33t-20 25.5t-22.5 16.5t-15.5 6v20q11 0 21 -3.5t19.5 -7t19.5 -6.5t21 -3z" />
    <glyph glyph-name="v" unicode="v" horiz-adv-x="465" 
d="M355 633q22 0 39.5 9.5t40.5 11.5v-21q-5 0 -15.5 -5t-22.5 -14.5t-22 -24.5t-13 -36v1l-76 -453q-4 -24 -1 -39.5t9 -24.5t13.5 -12.5t13.5 -3.5h1v-21q-26 1 -47.5 10t-47.5 10h-11q-26 -1 -47.5 -10t-47.5 -10v21h1q6 0 13.5 3.5t13.5 12.5t8.5 24.5t-2.5 39.5l1 -4
l-100 476q-6 26 -18 42.5t-37 17.5h-1v21q14 -1 26 -4.5l24 -7t24.5 -6.5t26.5 -3t26 3t24 6.5l24 7t26 4.5v-21h-4q-6 -1 -13.5 -5.5t-13 -13.5t-7.5 -22.5t1 -32.5l10 -47q10 10 23 14t25.5 2t23 -9.5t15.5 -19.5q-8 7 -20.5 1.5t-23 -23t-15.5 -46.5t3 -69l54 -257
l75 448q4 24 -3 39t-17.5 24t-22 13t-16.5 4h-1v21q11 -1 21 -4.5t19.5 -7t19.5 -6.5t21 -3z" />
    <glyph glyph-name="w" unicode="w" horiz-adv-x="723" 
d="M612 633q22 0 40 9.5t41 11.5v-21h-1q-5 0 -15.5 -5t-22 -14.5t-21.5 -24.5t-14 -36l1 1l-76 -453q-5 -24 -2 -39.5t9 -24.5t14 -12.5t13 -3.5h1v-21q-26 1 -47.5 10t-47.5 10h-11q-26 -1 -47 -10t-48 -10v21h1q6 0 13.5 3.5t13.5 12.5t8.5 24.5t-2.5 39.5l-65 226
l-61 -226q-4 -24 -1 -39.5t9 -24.5t13.5 -12.5t13.5 -3.5h1v-21q-26 1 -47.5 10t-47.5 10h-11q-26 -1 -47.5 -10t-47.5 -10v21h1q6 0 13.5 3.5t13.5 12.5t8.5 24.5t-2.5 39.5l-99 472q-6 26 -18 42.5t-37 17.5h-1v21q14 -1 26 -4.5l24 -7t24.5 -6.5t26.5 -3t26 3t24 6.5
l24 7t26 4.5v-21h-4q-6 -1 -13.5 -5.5t-13 -13.5t-7.5 -22.5t1 -32.5l2 -6l93 -448l62 234q9 35 23 65t31.5 51.5t37.5 34t41 12.5q-21 -5 -25 -30.5t0 -58t13 -66t14 -53.5t15 -51.5t20 -62.5q11 -36 25 -75l75 448q4 24 -2.5 39t-17.5 24t-22.5 13t-16.5 4h-1v21
q11 -1 21 -4.5t19.5 -7t19.5 -6.5t21 -3z" />
    <glyph glyph-name="x" unicode="x" horiz-adv-x="454" 
d="M335 97q9 -25 17 -40t15.5 -23t14.5 -10.5t12 -2.5h1v-21q-26 1 -47.5 10t-47.5 10h-11q-26 -1 -47 -10t-48 -10v21h1q5 0 12 3.5t12 12.5t6.5 24.5t-3.5 39.5l-48 136l-43 -92q-28 -59 -41.5 -99t-14.5 -68t9.5 -47.5t31.5 -38.5q-23 11 -49.5 8.5t-50.5 -14.5
t-43.5 -30.5t-29.5 -38.5l177 370l41 87l-100 283q-9 24 -17.5 39t-16 23t-14 11t-11.5 3h-2v21q26 -2 47.5 -10.5t47.5 -10.5h11q26 2 47.5 10.5t47.5 10.5v-21h-1q-5 0 -12.5 -4.5t-13 -13.5t-6.5 -24.5t7 -37.5l55 -155l49 108q27 59 39.5 99.5t13 68.5t-10.5 47.5
t-32 37.5q23 -11 49 -7.5t50 15.5t43.5 31t28.5 39l-169 -373l-48 -104l92 -263v0z" />
    <glyph glyph-name="y" unicode="y" horiz-adv-x="470" 
d="M277 95q1 -21 6.5 -35.5t13.5 -22.5t16 -12t13 -4h1v-21q-14 0 -26 3.5t-24 7.5t-24 7t-26 3t-26.5 -3t-24 -7t-24 -7.5t-26.5 -3.5v21h2q5 0 13 4t15.5 12t13.5 22.5t7 35.5v269l-134 245q-14 21 -39 24h-4v21q14 -1 27 -4.5t25.5 -7t26 -6.5t27.5 -3t26 3t24 6.5l24 7
t26 4.5v-21h-4q-6 -1 -15 -7t-15.5 -16t-8 -24.5t7.5 -32.5l81 -161l55 122q27 60 39.5 100t13 68t-10.5 47.5t-32 37.5q23 -11 49 -7.5t50 15.5t43.5 31t28.5 39l-169 -373l-42 -92v-285v0z" />
    <glyph glyph-name="z" unicode="z" horiz-adv-x="424" 
d="M384 653q2 0 4.5 0.5t5.5 0.5v-21q-8 0 -12 -1q-12 -2 -23.5 -17.5t-27.5 -61.5l-160 -449q-3 -11 3 -24.5t18 -25.5t29 -20.5t37 -8.5q11 0 20.5 3t17.5 7t15 9q2 24 -10.5 42.5t-36.5 33.5q0 60 19.5 135t69.5 152q-19 -80 -17 -153t12 -130q11 -66 31 -124h-121
q-45 0 -74 5.5t-45 9.5q-8 2 -17 4t-19 2q-20 0 -38 -6t-37 -11l-19 -3q-2 0 -4.5 -0.5t-4.5 -0.5v21h12q11 3 22.5 18.5t27.5 59.5l161 452q4 16 -10 36.5t-38 32.5q-18 9 -39 9q-23 -2 -38 -10q-9 -4 -15 -9q-3 -40 37 -69l10 -7q0 -60 -19.5 -135t-69.5 -152
q11 48 14.5 94t1.5 88v10q-4 66 -15 116.5t-19 76.5q-5 12 -6 18l-2 4h121h14.5t13.5 -1q26 -2 45.5 -5t33.5 -6l12 -3q8 -2 17 -4t19 -2q12 0 24 3q14 2 26 6l24 8l19 3v0z" />
    <glyph glyph-name="zero" unicode="0" horiz-adv-x="469" 
d="M209 729q34 0 71.5 -22t68 -67t50.5 -113.5t20 -161.5q0 -94 -20 -162.5t-50.5 -113.5t-68 -67t-71.5 -22t-71 22t-67.5 67t-50.5 113.5t-20 162.5q0 93 20 161.5t50.5 113.5t67.5 67t71 22zM209 60q19 0 34.5 24.5t26.5 66.5t17 97t6 117q0 61 -6 116.5t-17 97.5
t-26.5 66.5t-34.5 24.5t-34.5 -24.5t-26.5 -66.5t-17 -97.5t-6 -116.5q0 -62 6 -117t17 -97t26.5 -66.5t34.5 -24.5z" />
    <glyph glyph-name="one" unicode="1" horiz-adv-x="351" 
d="M0 564q38 10 64 26.5t46 35t37 37.5t38 34t48 24t68 7v-25q-6 0 -15 -4t-18 -13.5t-16 -26t-8 -41.5v-510q1 -24 7.5 -40.5t15.5 -26t18 -13.5t15 -4h1v-24q-16 1 -30 4.5t-27.5 7.5t-27 7.5t-29.5 3.5t-30 -3.5t-27.5 -7.5t-27.5 -7.5t-30 -4.5v24h1q6 0 15.5 4
t18.5 13.5t15.5 26t6.5 40.5v455q-22 -17 -44.5 -19t-41.5 3q-22 5 -43 17z" />
    <glyph glyph-name="two" unicode="2" horiz-adv-x="568" 
d="M498 103q9 -37 0 -65q-8 -25 -35.5 -45t-89.5 -20q-29 0 -52 3.5t-42.5 8.5t-36.5 11.5t-33 11.5l-13 5q-22 6 -45.5 8.5t-55.5 -2.5q-19 -5 -37.5 -11t-39.5 -7v22h1q9 0 25.5 7t41.5 29q22 21 50.5 52t58.5 69.5t58 82t50 89t35.5 91t13.5 88.5q0 4 -1 17.5t-4.5 31
t-11.5 36.5t-21.5 33.5t-34 22.5t-50.5 4q-35 -4 -55.5 -19t-32.5 -34t-16.5 -38.5t-6.5 -31.5q-5 -32 -22 -58t-57 -34q20 29 28.5 64.5t2.5 70.5q-2 15 -7 32t-13 32.5t-20.5 27t-29.5 13.5v24q33 -9 59.5 -13t47.5 -4t37.5 2.5t30.5 5.5q36 11 71.5 11.5t73.5 -6.5
q37 -5 67.5 -23t52.5 -49q19 -27 27.5 -61t6.5 -67q-1 -38 -16 -81t-37 -86t-49 -84t-53.5 -75.5t-48.5 -60.5t-35 -38q-8 -11 -1.5 -22t21 -19t35 -13.5t41.5 -5.5t49.5 1.5t54.5 8.5t44.5 20t18.5 37z" />
    <glyph glyph-name="three" unicode="3" horiz-adv-x="538" 
d="M368 417q29 -21 52 -50q20 -25 35 -62t13 -86q-3 -39 -15.5 -74t-33.5 -63.5t-49.5 -48.5t-63.5 -28q-36 -5 -70 -4.5t-69 8.5q-14 4 -29.5 6.5t-35.5 2.5t-45 -4t-57 -13v23q17 2 29 12.5t20 25.5t12.5 31.5t6.5 30.5q4 35 -4 69t-28 63q40 -9 56 -33.5t21 -55.5
q2 -12 6.5 -30.5t15.5 -36.5t31 -33t53 -19q25 -3 43.5 5.5t32 23.5t23 34t15 37t8.5 33t4 21q4 25 4.5 59.5t-11.5 66t-41 54t-84 23.5v31q34 -2 60 8q23 8 42.5 27.5t21.5 58.5v21l-3 31q-2 10 -7 27.5t-17.5 33.5t-34 26.5t-56.5 5.5q-33 -5 -53 -19.5t-31 -33t-15.5 -37
t-6.5 -30.5q-5 -30 -21 -54.5t-56 -33.5q20 28 28 62t4 69q-2 14 -6.5 30.5t-12.5 31.5t-20 25t-29 12v24q32 -9 57 -12.5t45 -3.5t35.5 2.5t29.5 5.5q35 9 69 9.5t70 -5.5q35 -5 65 -22.5t50 -46.5q22 -29 28 -64q6 -27 2 -53.5t-15 -49t-28.5 -39.5t-39.5 -25z" />
    <glyph glyph-name="four" unicode="4" horiz-adv-x="538" 
d="M488 394q-1 -12 -4.5 -23t-7.5 -21.5t-7.5 -21.5t-3.5 -23q0 -13 3.5 -24t7.5 -21.5t7.5 -21.5t4.5 -23h-23v1q0 5 -6.5 16.5t-17 23.5t-26 21.5t-33.5 11.5v-184q1 -24 7.5 -39.5t15 -25t17.5 -13.5t15 -4h1v-23q-15 1 -28.5 4.5t-27 7.5t-27 7.5t-28.5 3.5
q-16 0 -29.5 -3.5t-27 -7.5t-27 -7.5t-28.5 -4.5v23h1q6 0 15 4t17.5 13.5t15 25t7.5 39.5v184h-271v31q58 80 90.5 140t45 104t10 73t-13 47t-26 27t-27.5 12q47 18 83 -5t48 -78.5t-6.5 -137t-80.5 -180.5l-7 -2h155v298q-1 24 -7.5 39.5t-15 25t-17.5 13.5t-15 4h-1v23
q15 0 28.5 -4l27 -8t27 -7.5t29.5 -3.5q15 0 28.5 3.5t27 7.5l27 8t28.5 4v-23h-1q-6 0 -15 -4t-17.5 -13.5t-15 -25t-7.5 -39.5v-298q25 2 43 18t29 31q11 17 11 24v1h23v0z" />
    <glyph glyph-name="five" unicode="5" horiz-adv-x="461" 
d="M403 702q-17 1 -35.5 -19t-29 -52.5t-6.5 -74.5t34 -85q-33 7 -50 25.5t-25.5 42.5t-11.5 49.5t-9 46.5t-18 35t-37 14q-39 0 -53.5 -17.5t-14.5 -50.5v-138q58 -4 100.5 -20.5t71.5 -39t47 -49t28 -52t13.5 -47t3.5 -34.5q0 -18 -2.5 -42.5t-10.5 -50.5t-22 -52
t-36.5 -46t-55 -32.5t-76.5 -12.5h-196v23q24 0 38 13t20 33.5t5.5 45.5t-5.5 48t-13 41t-17 25q32 -7 49 -22t25.5 -34t12 -41t8.5 -44q6 -23 17.5 -39t38.5 -16q32 0 54 20t35.5 50.5t19.5 66t6 66.5q0 60 -27 95.5t-66 55t-82 26.5t-75 10v194q-1 24 -7.5 39.5t-15 25
t-17.5 13.5t-15 4h-1v23q15 -1 28.5 -4.5t27 -7.5t27 -7.5t28.5 -3.5q16 0 27 3.5t23 8t27.5 8t40.5 3.5t42.5 -3.5t35.5 -5.5t40 0t56 12v-23v0z" />
    <glyph glyph-name="six" unicode="6" horiz-adv-x="480" 
d="M296 415q20 0 43.5 -9.5t43 -30t32.5 -53.5t13 -79q0 -77 -25 -125t-58.5 -74t-66 -35t-47.5 -9q-13 0 -34.5 4t-47.5 15.5t-52.5 33t-48 57t-35 87t-13.5 123.5q0 99 19.5 169t47.5 117t60 73.5t58 38.5q13 8 31.5 11.5t30.5 0.5q15 -2 25.5 -8t27 -10.5t43 -3.5
t73.5 14v-24q-11 0 -23.5 -8t-23 -24t-18 -39t-7.5 -53q1 -37 8 -63.5t26 -52.5q-39 8 -64.5 41t-25.5 92q0 5 -0.5 22t-3 35t-9.5 32t-20 14q-21 -2 -37 -22t-26 -36q-20 -33 -32.5 -71.5t-20 -79t-10 -82t-2.5 -79.5q0 -44 5.5 -92.5t18 -90t33 -68.5t50.5 -27q29 0 46 23
t26 54.5t11.5 65t2.5 55.5q0 34 -9 63t-26 43.5t-42 11t-56 -32.5q-2 1 -4 3q-4 4 -5 6q4 12 14 26t25 25t34.5 18.5t44.5 7.5z" />
    <glyph glyph-name="seven" unicode="7" horiz-adv-x="534" 
d="M371 700q29 2 56.5 12t56.5 11v-23h-2q-22 -1 -40 -23.5t-37 -74.5l-165 -487q-16 -48 -9 -67.5t35 -24.5v-23q-15 1 -28.5 4.5t-27 7.5t-27 7.5t-28.5 3.5t-28.5 -3.5t-27 -7.5t-27 -7.5t-28.5 -4.5v23h3q16 1 27.5 8.5t20 20.5t15 29t12.5 34l159 497q14 35 -2.5 49.5
t-48.5 14.5q-31 0 -51.5 -15t-33.5 -35t-19 -41.5t-9 -33.5q-5 -32 -21.5 -57.5t-57.5 -34.5q20 28 28.5 64t3.5 72q-2 14 -6.5 31.5t-13 32.5t-20.5 26.5t-30 13.5v24q33 -9 59.5 -13t47 -4t37 3t30.5 6q27 8 48.5 9.5t39.5 -1t33.5 -7.5t29.5 -10q17 -5 34 -6h12v0z" />
    <glyph glyph-name="eight" unicode="8" horiz-adv-x="488" 
d="M336 419q45 -33 73.5 -80.5t28.5 -119.5q0 -41 -14 -80t-42.5 -70t-70.5 -50t-97 -19q-50 0 -90 16.5t-67.5 45.5t-42 70t-14.5 90q0 46 13.5 81t31 59.5t34 39t21.5 20.5q-6 6 -19 18t-26.5 30.5t-24 43t-10.5 55.5q0 49 22.5 80.5t54 49.5t66 25t57.5 7t57 -7t65.5 -25
t54 -49.5t22.5 -80.5q0 -51 -20.5 -86t-62.5 -64zM240 485q18 16 32 35q12 16 22.5 37.5t10.5 44.5q0 11 -5 27.5t-15.5 31.5t-26.5 26t-38 11q-40 0 -63 -24.5t-23 -71.5q0 -27 16.5 -48.5t36.5 -36.5q23 -18 53 -32zM213 59q23 0 40.5 11.5t29 30.5t17.5 43t6 49
q0 30 -13 55.5t-31 45.5t-36.5 35t-29.5 23q-34 -17 -61.5 -55t-27.5 -102q0 -21 7 -45t20.5 -44.5t33.5 -33.5t45 -13z" />
    <glyph glyph-name="nine" unicode="9" horiz-adv-x="478" 
d="M132 316q-20 0 -43.5 9.5t-43 30t-32.5 53t-13 79.5q0 77 25 124.5t58.5 74t66 35.5t47.5 9q12 0 34 -4t47.5 -15.5t52 -33t48.5 -57t35.5 -87t13.5 -123.5q0 -99 -19.5 -169t-47.5 -117t-60.5 -73.5t-57.5 -38.5q-13 -8 -31.5 -11t-30.5 -1q-15 2 -25.5 8.5t-27 10.5
t-43 3t-73.5 -14v25q10 0 22.5 8t23 24t18 38.5t7.5 52.5q0 37 -7 64t-26 53q39 -9 64.5 -41.5t25.5 -91.5v-23t3 -35t9.5 -32t20.5 -14q10 1 19.5 7.5t17.5 15t14 18t11 17.5q20 33 33 72t20.5 79.5t10 81.5t2.5 79q0 44 -5.5 93t-18.5 90t-33.5 68t-50.5 27
q-29 0 -45.5 -23t-25.5 -54.5t-11.5 -65t-2.5 -55.5q0 -35 9 -63.5t26 -43t41.5 -11t56.5 32.5l3 -3l5 -5q-5 -13 -14.5 -26.5t-24 -25t-34 -19t-44.5 -7.5z" />
    <glyph glyph-name="asterisk" unicode="*" horiz-adv-x="289" 
d="M239 615l-34 -6q-14 -2 -29.5 -4.5t-26.5 -1.5q5 -4 15.5 -10.5t22.5 -12.5t23.5 -11t20.5 -6l-60 -63q-11 16 -21 32l-16 28t-11 25q-2 -5 -6.5 -17t-8 -26t-6 -28.5t-0.5 -24.5l-76 43q13 16 24 31q10 12 21 24.5t21 18.5q-6 0 -18.5 -2t-26 -5.5t-26.5 -8t-21 -9.5
l12 87q18 -4 36 -9q15 -5 30.5 -10.5t24.5 -13.5q0 3 -2 14t-5.5 24.5t-9 27t-12.5 22.5h87q-3 -17 -7 -34q-3 -14 -7.5 -29t-9.5 -25q6 3 15.5 10t20 15.5t19.5 17.5t13 17l34 -80v0z" />
    <glyph glyph-name="backslash" unicode="\" horiz-adv-x="284" 
d="M79 795l155 -879h-57l-155 879h57z" />
    <glyph glyph-name="periodcentered" unicode="&#xb7;" horiz-adv-x="169" 
d="M119 351q0 -20 -13.5 -33.5t-33.5 -13.5t-33.5 13.5t-13.5 33.5t13.5 34t33.5 14t33.5 -14t13.5 -34z" />
    <glyph glyph-name="bullet" unicode="&#x2022;" horiz-adv-x="274" 
d="M224 353q0 -23 -9 -43.5t-24 -35.5t-35.5 -24t-43.5 -9t-43.5 9t-35.5 24t-24 35.5t-9 43.5t9 43.5t24 36t35.5 24.5t43.5 9t43.5 -9t35.5 -24.5t24 -36t9 -43.5z" />
    <glyph glyph-name="colon" unicode=":" horiz-adv-x="156" 
d="M106 322h-76v76h76v-76zM106 100h-76v76h76v-76z" />
    <glyph glyph-name="comma" unicode="," horiz-adv-x="126" 
d="M76 79v-75q0 -17 -11 -26t-25 -13q-16 -4 -36 -5q13 4 22 11q8 5 11 13.5t-4 19.5h-33v75h76z" />
    <glyph glyph-name="ellipsis" unicode="&#x2026;" horiz-adv-x="390" 
d="M76 0h-76v76h76v-76zM210 0h-76v76h76v-76zM340 0h-76v76h76v-76z" />
    <glyph glyph-name="exclam" unicode="!" horiz-adv-x="252" 
d="M101 700q16 0 28 3.5t23 7.5t23 7.5t27 4.5v-23h-1q-6 0 -13 -4t-14 -13.5t-11.5 -25t-5.5 -39.5l-17 -466h-78l-16 466q-1 24 -6 39.5t-11.5 25t-14 13.5t-13.5 4h-1v23q15 -1 27 -4.5t23.5 -7.5t23.5 -7.5t27 -3.5zM63 76h76v-76h-76v76z" />
    <glyph glyph-name="numbersign" unicode="#" horiz-adv-x="612" 
d="M448 700q15 0 29 3.5t27.5 7.5t27.5 8t30 4q-1 0 -1 -3q-1 -2 -1 -7t-1 -13h-1q-6 0 -15.5 -4t-19 -13.5t-17.5 -25t-11 -39.5l-15 -145h72l-3 -31h-73l-16 -151h73l-3 -31h-73l-16 -155q-2 -24 3 -39.5t12.5 -25t16 -13.5t14.5 -4h1l-2 -23q-16 1 -29 4.5t-26 7.5
t-26 7.5t-28 3.5q-16 0 -30 -3.5t-27.5 -7.5t-27.5 -7.5t-29 -4.5l2 23h2q6 0 15 4t18.5 13.5t18 25t11.5 39.5l16 155h-141l-16 -155q-2 -24 3 -39.5t12.5 -25t16 -13.5t14.5 -4h1l-2 -23q-16 1 -29 4.5t-26 7.5t-26 7.5t-28 3.5q-16 0 -30 -3.5t-27.5 -7.5t-27.5 -7.5
t-29 -4.5l2 23h2q6 0 15 4t18.5 13.5t18 25t11.5 39.5l16 155h-94l3 31h94l16 151h-94l3 31h94l16 145q1 24 -3.5 39.5t-12 25t-16 13.5t-14.5 4h-1l2 23q15 0 28.5 -4t26 -8t26 -7.5t28.5 -3.5t29 3.5t27.5 7.5t27.5 8t30 4q-1 0 -1 -3q-1 -2 -1 -7t-1 -13h-1
q-6 0 -15.5 -4t-19 -13.5t-17.5 -25t-11 -39.5l-15 -145h140l16 145q1 24 -3.5 39.5t-12 25t-16 13.5t-14.5 4h-1l2 23q15 0 28.5 -4t26 -8t26 -7.5t28.5 -3.5zM365 442h-141l-16 -151h141z" />
    <glyph glyph-name="period" unicode="." horiz-adv-x="126" 
d="M76 0h-76v76h76v-76z" />
    <glyph glyph-name="question" unicode="?" horiz-adv-x="458" 
d="M165 153q0 40 17.5 94.5t40.5 113t44.5 115t28.5 101.5t-6.5 72.5t-59.5 27.5q-31 0 -51.5 -15t-33.5 -35.5t-19 -42t-9 -33.5q-5 -31 -21 -57t-57 -35q20 29 28 64.5t3 71.5q-2 15 -6.5 32t-13 32.5t-20.5 27t-30 13.5v24q33 -10 59.5 -13.5t47 -3.5t37 3t30.5 6
q26 7 47 9t38 0q82 -5 115 -44t34 -102q0 -37 -12.5 -74t-31 -73.5t-40.5 -72.5t-40.5 -71t-31 -69t-12.5 -66h-75v0zM165 76h75v-75h-75v75z" />
    <glyph glyph-name="quotedbl" unicode="&#x22;" horiz-adv-x="178" 
d="M0 731h42q11 -12 16 -30q5 -15 4.5 -37t-11.5 -52l-15 6q1 23 -2 44q-3 18 -10 37t-24 32zM66 731h41q11 -12 16 -30q5 -15 4.5 -37t-11.5 -52l-15 6q2 23 -1 44q-2 18 -10 37t-24 32z" />
    <glyph glyph-name="quotesingle" unicode="'" horiz-adv-x="113" 
d="M0 731h42q11 -12 16 -30q5 -15 4.5 -37t-11.5 -52l-15 6q1 23 -2 44q-3 18 -10 37t-24 32z" />
    <glyph glyph-name="semicolon" unicode=";" horiz-adv-x="156" 
d="M106 323h-76v75h76v-75zM30 176v-75h34q7 -11 3.5 -19.5t-11.5 -13.5q-9 -7 -22 -11q20 1 36 5q14 4 25 13t11 26v75h-76z" />
    <glyph glyph-name="slash" unicode="/" horiz-adv-x="277" 
d="M227 796l-155 -880h-57l155 880h57z" />
    <glyph glyph-name="underscore" unicode="_" horiz-adv-x="447" 
d="M397 0h-397v57h397v-57z" />
    <glyph glyph-name="braceleft" unicode="{" horiz-adv-x="273" 
d="M150 262q17 -30 22.5 -67.5t6 -75.5t-0.5 -74t1.5 -64t12 -45t31.5 -17q-44 0 -69.5 18t-37.5 47t-15 66.5t-3.5 76.5t-1.5 76.5t-9.5 67t-27.5 48t-56 19.5q4 -1 8 -0.5t9 0.5h-20q37 0 57 18t29 47.5t10 67t1.5 76.5t3.5 76.5t15 67t37 47.5t70 18q-22 0 -31.5 -16.5
t-12.5 -44t-1.5 -63t1 -73t-5.5 -74.5t-20 -67q-14 -23 -28.5 -38.5t-27.5 -24.5q-15 -11 -29 -17q17 -11 33 -22q14 -11 27.5 -24t21.5 -30z" />
    <glyph glyph-name="braceright" unicode="}" horiz-adv-x="273" 
d="M220 337q-37 -1 -56 -19.5t-27.5 -48t-9.5 -67t-1.5 -76.5t-3.5 -76.5t-15 -66.5t-37.5 -47t-69.5 -18q22 0 31.5 17t12 45t1.5 64t-0.5 74t6 75.5t21.5 67.5q8 17 21.5 30t27.5 24q16 11 34 22q-14 6 -29 17q-13 9 -28 24.5t-28 38.5q-15 30 -20 67t-5.5 74.5t0.5 73
t-1.5 63t-12 44t-31.5 16.5q45 0 70 -18t37 -47.5t15 -67t3.5 -76.5t1.5 -76.5t10 -67t28.5 -47.5t57.5 -18h-20q5 0 9 -0.5t8 0.5h-1h1zM220 337h3h-3z" />
    <glyph glyph-name="bracketleft" unicode="[" horiz-adv-x="256" 
d="M88 22q0 -30 18 -49t41 -30q26 -13 59 -19h-175v839h175q-33 -6 -59 -19q-23 -11 -41 -30.5t-18 -48.5v-643v0z" />
    <glyph glyph-name="bracketright" unicode="]" horiz-adv-x="225" 
d="M118 22v643q0 29 -18.5 48.5t-40.5 30.5q-26 13 -59 19h175v-839h-175q33 6 59 19q22 11 40.5 30t18.5 49z" />
    <glyph glyph-name="parenleft" unicode="(" horiz-adv-x="229" 
d="M189 -83q-54 42 -95 104q-18 26 -34.5 59t-30 72t-21.5 85t-8 99q0 52 8 98t21.5 85.5t30 72.5t34.5 59q41 62 95 105q-28 -54 -50 -120q-19 -57 -34.5 -134t-15.5 -168q0 -92 15.5 -168t34.5 -132q22 -65 50 -117z" />
    <glyph glyph-name="parenright" unicode=")" horiz-adv-x="239" 
d="M0 -79q28 52 50 117q19 56 34.5 132t15.5 168q0 91 -15.5 168t-34.5 134q-22 66 -50 119q53 -42 94 -104q18 -26 35 -59t30.5 -72.5t21.5 -85.5t8 -98q0 -53 -8 -99t-21.5 -85t-30.5 -72t-35 -59q-41 -62 -94 -104z" />
    <glyph glyph-name="hyphen" unicode="-" horiz-adv-x="358" 
d="M308 361h-261v43h261v-43z" />
    <glyph glyph-name="quotedblbase" unicode="&#x201e;" horiz-adv-x="600" 
d="M76 79v-75q0 -17 -11 -26t-25 -13q-16 -4 -36 -5q13 4 22 11q8 5 11 13.5t-4 19.5h-33v75h76z" />
    <glyph glyph-name="quotedblleft" unicode="&#x201c;" horiz-adv-x="178" 
d="M62 611h-42q-11 11 -16 29q-5 15 -5 37.5t12 52.5l15 -6q-3 -23 1 -44q2 -18 10 -37.5t25 -31.5zM128 611h-42q-11 11 -16 29q-5 15 -5 37.5t12 52.5l15 -6q-3 -23 1 -44q2 -18 10 -37.5t25 -31.5z" />
    <glyph glyph-name="quotedblright" unicode="&#x201d;" horiz-adv-x="178" 
d="M0 731h42q11 -12 16 -30q5 -15 4.5 -37t-11.5 -52l-15 6q1 23 -2 44q-3 18 -10 37t-24 32zM66 731h41q11 -12 16 -30q5 -15 4.5 -37t-11.5 -52l-15 6q2 23 -1 44q-2 18 -10 37t-24 32z" />
    <glyph glyph-name="quoteleft" unicode="&#x2018;" horiz-adv-x="113" 
d="M63 611h-42q-11 11 -16 29q-5 15 -5 37.5t12 52.5l15 -6q-3 -23 1 -44q2 -18 10 -37.5t25 -31.5z" />
    <glyph glyph-name="quoteright" unicode="&#x2019;" horiz-adv-x="116" 
d="M0 731h42q11 -12 16 -30q5 -15 4.5 -37t-11.5 -52l-15 6q1 23 -2 44q-3 18 -10 37t-24 32z" />
    <glyph glyph-name="quotesinglbase" unicode="&#x201a;" horiz-adv-x="600" 
d="M76 79v-75q0 -17 -11 -26t-25 -13q-16 -4 -36 -5q13 4 22 11q8 5 11 13.5t-4 19.5h-33v75h76z" />
    <glyph glyph-name="currency" unicode="&#xa4;" horiz-adv-x="462" 
d="M412 365q0 -105 -24.5 -177t-60.5 -116l53 -147l-32 -12l-47 132q-23 -20 -47.5 -30t-47.5 -10q-49 0 -95 40l-48 -132l-32 12l53 147q-36 44 -60.5 116t-24.5 177q0 101 23 172t58 116l-49 135l32 12l43 -119q24 22 50 33t50 11q50 0 99 -44l43 119l32 -12l-49 -135
q35 -45 58 -116t23 -172zM206 64q19 0 34 24t25.5 65.5t16.5 96t6 115.5t-6 115.5t-16.5 95.5t-25.5 65.5t-34 24.5t-34.5 -24.5t-26 -65.5t-16.5 -95.5t-6 -115.5t6 -115.5t16.5 -96t26 -65.5t34.5 -24z" />
    <glyph glyph-name="dollar" unicode="$" horiz-adv-x="431" 
d="M381 240q0 -50 -14 -92.5t-38 -73.5t-57 -49t-71 -19v-46h-22v47q-40 3 -72.5 16.5t-55 35t-35 49t-12.5 59.5q0 30 12 56.5t32.5 43t47.5 20t58 -13.5q-37 -11 -55.5 -34t-18.5 -69q0 -21 6 -42t18 -39t30.5 -30.5t44.5 -15.5v376q-19 31 -37 60.5t-32.5 55.5t-23 48.5
t-8.5 39.5q0 51 29.5 78t71.5 27v55h22v-56q36 -4 54 -21h1q3 -2 6.5 0.5t5.5 7.5l6 12l21 -2q-2 -16 -3 -31t-2 -31q-2 -26 -1.5 -57t5.5 -58q0 -2 1 -3l-29 18q-1 25 -8 53q-5 22 -16 44.5t-30 37.5q-2 1 -4.5 2.5t-6.5 3.5v-142q26 -34 57.5 -72t58.5 -79t45.5 -84
t18.5 -86zM147 659q4 -30 32 -69v116q-17 -1 -26.5 -13t-5.5 -34zM201 42q36 1 56 21.5t26.5 52.5t0 71.5t-22.5 78.5q-12 29 -27.5 58.5t-32.5 57.5v-340z" />
    <glyph glyph-name="Euro" unicode="&#x20ac;" horiz-adv-x="448" 
d="M267 134q14 -2 30.5 -1t34 7.5t34.5 18.5t32 33q-5 -31 -14 -52q-25 -66 -60.5 -102t-71.5 -45l-34 -2q-25 3 -51 20t-49.5 48.5t-41.5 77.5t-27 107h-49l12 34h33q-3 34 -3 72v2v2v23t1 22h-43l12 34h34q7 68 25 119t42 85.5t51.5 53.5t53.5 22l34 -2q36 -8 71.5 -44.5
t60.5 -102.5q10 -22 14 -52q-15 21 -32 33t-34.5 18.5t-34 7.5t-30.5 -1q-5 53 -14 83.5t-23 30.5q-8 0 -14 -10.5t-8 -15.5q-14 -35 -16.5 -76.5t-4.5 -79.5q-2 -17 -2 -34.5t-1 -34.5h119l-13 -34h-107v-59.5t1 -59.5v-2h119l-13 -34h-105q1 -38 3.5 -75t8.5 -74
q1 -5 2.5 -17.5t5.5 -25t10 -22.5t15 -10q14 0 23 31t14 83z" />
    <glyph glyph-name="asciitilde" unicode="~" horiz-adv-x="422" 
d="M372 359q-13 9 -38 10q-21 1 -57 -7t-91 -34q-45 -20 -77 -21.5t-53 5.5t-33 19.5t-18 21.5l-5 12q21 -23 47 -23t56 11.5t63 27t67.5 22.5t69.5 -0.5t69 -43.5z" />
    <glyph glyph-name="equal" unicode="=" horiz-adv-x="359" 
d="M309 415h-250v48h250v-48zM309 292h-250v48h250v-48z" />
    <glyph glyph-name="greater" unicode="&#x3e;" horiz-adv-x="454" 
d="M19 149q1 10 4 18.5t6.5 16.5t6 16t2.5 19q0 21 -8.5 37.5t-10.5 36.5h19q0 -3 3.5 -12t10.5 -17t18 -13.5t26 -2.5l270 98q-1 0 -14 5t-33.5 12.5t-46.5 17.5t-53 20l-144 54q-26 8 -34.5 0.5t-9.5 -13.5v-1q-5 2 -6.5 2.5t-3.5 1.5l-2 1q1 16 6.5 27t5.5 28t-5.5 31.5
t-6.5 31.5q0 -1 2 -1q2 -1 3.5 -1t6.5 -2v-1q1 -6 9.5 -20t34.5 -25l273 -99q26 -8 35 -0.5t9 13.5l6 -3t4 -1q2 -1 2 0q-1 -17 -6.5 -27.5t-5.5 -27.5v-2q0 -5 1 -10.5t2 -10.5l6 -20t3 -21l-2 1q-2 1 -4 1.5t-6 2.5v1q0 10 -10 13t-30 -5l-240 -91q-33 -13 -49 -30
t-25 -49h-19z" />
    <glyph glyph-name="less" unicode="&#x3c;" horiz-adv-x="461" 
d="M392 147q-9 32 -25 49t-48 30l-241 91q-20 8 -30 5t-10 -13v-1q-5 -2 -6.5 -2.5t-3.5 -1.5l-2 -1q1 11 3.5 21t5.5 20q1 5 2 10.5t1 10.5v2q0 17 -5.5 27.5t-6.5 27.5q0 -1 2 0q2 0 3.5 1t6.5 3q1 -6 9.5 -13.5t34.5 0.5l273 99q26 11 35 25t9 20v1q4 2 6 2t4 1q2 0 2 1
q-1 -17 -6.5 -31.5t-5.5 -31.5t5.5 -28t6.5 -27l-2 -1q-2 -1 -4 -1.5t-6 -2.5v1q0 6 -9 13.5t-35 -0.5l-144 -54q-27 -10 -53 -20t-47 -17.5t-34 -12.5l-13 -5l270 -98q15 -3 26 2.5t18 13.5t10.5 17t3.5 12h19q-1 -20 -10 -36.5t-9 -37.5q0 -11 3 -19t6.5 -16t6.5 -16.5
t3 -18.5h-19z" />
    <glyph glyph-name="percent" unicode="%" horiz-adv-x="669" 
d="M269 105q-8 -24 -7 -39.5t6.5 -25t12.5 -13.5t13 -4h1q-3 -8 -4.5 -12.5t-2.5 -6.5q-1 -3 -1 -4q-15 1 -27.5 4.5t-24 7.5t-24 7.5t-27.5 3.5q-16 0 -30.5 -3.5t-29.5 -7.5t-29.5 -7.5t-30.5 -4.5l8 23h2q6 0 16 4t22 13.5t24 25t22 39.5l187 513q5 18 7 32q1 19 -9.5 31
t-28 20t-39.5 11.5t-43.5 4.5t-41 -0.5t-31.5 -3.5q16 -9 31.5 -25.5t27.5 -41.5t19 -59t7 -76q0 -55 -11.5 -95t-29.5 -66.5t-39.5 -39t-41.5 -12.5t-41.5 12.5t-39.5 39t-29.5 66.5t-11.5 95q0 80 23.5 128.5t53.5 68.5q6 4 11.5 6.5t11.5 4.5q35 15 73 19t73 1.5t64 -9
t47 -12.5q8 -2 13 -4q6 -2 8 -3l2 -1q11 -4 23 -7t27 -3q16 0 30.5 3.5t29.5 7.5t29.5 8t30.5 4l-1 -3q-1 -2 -3 -7t-4 -13h-2q-6 0 -16 -4t-22 -13.5t-24 -25t-22 -39.5l-187 -513v0zM171 511q0 36 -3.5 68t-10 56t-15.5 38.5t-20 14.5t-20 -14.5t-15.5 -38.5t-10 -56
t-3.5 -68t3.5 -68.5t10 -56.5t15.5 -38.5t20 -14.5t20 14.5t15.5 38.5t10 56.5t3.5 68.5zM497 425q20 0 41.5 -12.5t39.5 -39t29.5 -66.5t11.5 -94q0 -55 -11.5 -95t-29.5 -66.5t-39.5 -39t-41.5 -12.5t-41.5 12.5t-39.5 39t-29.5 66.5t-11.5 95q0 54 11.5 94t29.5 66.5
t39.5 39t41.5 12.5zM497 35q11 0 20 14.5t15.5 38.5t10 56.5t3.5 68.5t-3.5 68t-10 56t-15.5 38.5t-20 14.5t-20 -14.5t-15.5 -38.5t-10 -56t-3.5 -68t3.5 -68.5t10 -56.5t15.5 -38.5t20 -14.5z" />
    <glyph glyph-name="perthousand" unicode="&#x2030;" horiz-adv-x="938" 
d="M269 105q-8 -24 -7 -39.5t6.5 -25t12.5 -13.5t13 -4h1q-3 -8 -4.5 -12.5t-2.5 -6.5q-1 -3 -1 -4q-15 1 -27.5 4.5t-24 7.5t-24 7.5t-27.5 3.5q-16 0 -30.5 -3.5t-29.5 -7.5t-29.5 -7.5t-30.5 -4.5l8 23h2q6 0 16 4t22 13.5t24 25t22 39.5l187 513q5 18 7 32q1 19 -9.5 31
t-28 20t-39.5 11.5t-43.5 4.5t-41 -0.5t-31.5 -3.5q16 -9 31.5 -25.5t27.5 -41.5t19 -59t7 -76q0 -55 -11.5 -95t-29.5 -66.5t-39.5 -39t-41.5 -12.5t-41.5 12.5t-39.5 39t-29.5 66.5t-11.5 95q0 80 23.5 128.5t53.5 68.5q6 4 11.5 6.5t11.5 4.5q35 15 73 19t73 1.5t64 -9
t47 -12.5q8 -2 13 -4q6 -2 8 -3l2 -1q11 -4 23 -7t27 -3q16 0 30.5 3.5t29.5 7.5t29.5 8t30.5 4l-1 -3q-1 -2 -3 -7t-4 -13h-2q-6 0 -16 -4t-22 -13.5t-24 -25t-22 -39.5l-187 -513v0zM171 511q0 36 -3.5 68t-10 56t-15.5 38.5t-20 14.5t-20 -14.5t-15.5 -38.5t-10 -56
t-3.5 -68t3.5 -68.5t10 -56.5t15.5 -38.5t20 -14.5t20 14.5t15.5 38.5t10 56.5t3.5 68.5zM497 425q20 0 41.5 -12.5t39.5 -39t29.5 -66.5t11.5 -94q0 -55 -11.5 -95t-29.5 -66.5t-39.5 -39t-41.5 -12.5t-41.5 12.5t-39.5 39t-29.5 66.5t-11.5 95q0 54 11.5 94t29.5 66.5
t39.5 39t41.5 12.5zM766 425q20 0 41.5 -12.5t39.5 -39t29.5 -66.5t11.5 -94q0 -55 -11.5 -95t-29.5 -66.5t-39.5 -39t-41.5 -12.5t-41.5 12.5t-39 39t-29 66.5t-11.5 95q0 54 11.5 94t29 66.5t39 39t41.5 12.5zM497 35q11 0 20 14.5t15.5 38.5t10 56.5t3.5 68.5t-3.5 68
t-10 56t-15.5 38.5t-20 14.5t-20 -14.5t-15.5 -38.5t-10 -56t-3.5 -68t3.5 -68.5t10 -56.5t15.5 -38.5t20 -14.5zM766 35q11 0 20 14.5t15.5 38.5t10 56.5t3.5 68.5t-3.5 68t-10 56t-15.5 38.5t-20 14.5t-20 -14.5t-15 -38.5t-9.5 -56t-3.5 -68t3.5 -68.5t9.5 -56.5
t15 -38.5t20 -14.5z" />
    <glyph glyph-name="plus" unicode="+" horiz-adv-x="365" 
d="M315 375h-119v-135h-57v135h-119v43h119v135h57v-135h119v-43z" />
    <glyph glyph-name="plusminus" unicode="&#xb1;" horiz-adv-x="383" 
d="M333 374h-119v-135h-57v135h-119v43h119v135h57v-135h119v-43zM333 136h-295v43h295v-43z" />
    <glyph glyph-name="bar" unicode="|" horiz-adv-x="133" 
d="M83 796v-880h-57v880h57z" />
    <glyph glyph-name="at" unicode="@" horiz-adv-x="685" 
d="M385 539q11 1 29.5 1.5t43.5 -0.5q-1 -5 -2.5 -28.5t-2.5 -57.5t-2 -74.5t-1 -81t2 -76.5t7 -60q21 18 38 47q14 25 26 64t12 96q0 87 -18 148t-46 99t-63 55.5t-69 17.5q-32 0 -72 -16.5t-75 -55.5t-59 -102t-24 -156q0 -74 18.5 -131.5t49.5 -96.5t69.5 -59.5
t79.5 -20.5q36 0 68.5 8.5t60 21t51 26.5t42.5 24q-18 -26 -39 -49.5t-47.5 -41.5t-60 -29t-75.5 -11q-66 0 -125 28.5t-103.5 77.5t-71 114t-26.5 139q0 91 30.5 160.5t79.5 116t109.5 70t119.5 23.5q55 0 108 -25.5t95 -72t67.5 -113t25.5 -148.5q0 -53 -19.5 -98
t-49 -77.5t-65.5 -51t-69 -18.5q-13 0 -23 13.5t-17 34.5t-10.5 47t-4.5 51q-5 -13 -20 -33.5t-34.5 -38.5t-40 -29.5t-36.5 -5.5q-31 14 -49 47.5t-24.5 75.5t0 86.5t25 81.5t49 61t73.5 24q19 -1 36 -8t25 -21q2 16 3 21t1 7zM376 447q2 29 -7 44t-19 15q-18 0 -32.5 -17
t-25 -43.5t-16.5 -58.5t-7.5 -62t1.5 -54t12 -34q7 -2 22 6t30 25.5t27 43.5t12 60v18t1 16l2 41v0z" />
    <glyph glyph-name="ampersand" unicode="&#x26;" horiz-adv-x="505" 
d="M437 400q-17 0 -30.5 -15.5t-26.5 -38.5q16 -6 28.5 -19t21.5 -30.5t13.5 -37.5t4.5 -40q0 -38 -12 -76.5t-39 -70.5t-72 -52t-111 -20q-50 0 -90 16.5t-67.5 45.5t-42 70t-14.5 90q0 46 13.5 81t31 59.5t34 39t21.5 20.5q-6 6 -19 18t-26.5 30.5t-24 43t-10.5 55.5
q0 19 4 38t14 35q14 25 36.5 42.5t49.5 28t56 15t56 2.5q26 -2 55 -10q14 -3 30.5 -6t37.5 -3t47 4t59 13v-24q-17 -2 -29.5 -13t-20.5 -26.5t-13 -32.5t-7 -32q-5 -36 3.5 -71.5t28.5 -64.5q-41 9 -57.5 34.5t-21.5 57.5q-2 14 -7.5 28t-10.5 28q-13 34 -39 57.5t-64 24.5
q-19 0 -36.5 -8t-31.5 -23.5t-22.5 -38.5t-8.5 -53q0 -20 9.5 -40t22.5 -37.5t27 -31.5t23 -21q0 -9 1 -17q0 -7 0.5 -13.5t0.5 -8.5q-52 -20 -78.5 -63t-26.5 -121q0 -21 7.5 -47t22.5 -48.5t38 -37.5t54 -15q23 0 45.5 10t40 27t28 39t10.5 47q0 12 -1 24.5t-4 20t-9 8
t-16 -11.5q-11 -18 -24 -31.5t-29 -17.5q-37 -10 -64.5 6t-37.5 42q-6 18 -5 35.5t8 32.5t19.5 25.5t28.5 13.5q-14 -6 -23 -18.5t-9 -28.5q0 -21 15 -36t36 -15q13 0 24.5 4.5t22.5 20.5q15 22 30 54.5t33 56.5q17 22 38 36.5t48 14.5q18 0 34.5 -15.5t16.5 -36.5
q-11 13 -21.5 18t-26.5 5z" />
    <glyph glyph-name="copyright" unicode="&#xa9;" horiz-adv-x="414" 
d="M182 704q30 0 62 -19t58.5 -58t44 -99t17.5 -141t-17.5 -141t-44 -99t-58.5 -58t-62 -19t-62 19t-58.5 58t-44 99t-17.5 141t17.5 141t44 99t58.5 58t62 19zM182 90q31 0 56.5 24t43.5 64.5t27.5 94.5t9.5 114t-9.5 113.5t-27.5 94.5t-43.5 65t-56.5 24q-32 0 -57.5 -24
t-43.5 -65t-27.5 -94.5t-9.5 -113.5t9.5 -114t27.5 -94.5t43.5 -64.5t57.5 -24zM266 577q-17 -2 -25 -20t-10 -32q-5 -37 16 -66q-20 5 -28 17t-10 28q-2 10 -2 15q-1 5 -1 10.5t-1 10.5q-2 14 -6.5 22.5t-18.5 9.5h-2q-6 0 -10.5 -14t-7.5 -37t-4.5 -54.5t-1.5 -65.5
q0 -35 1.5 -66t4.5 -54t7.5 -37t10.5 -14q8 0 12.5 16t7.5 43q14 -2 33 3.5t34 26.5q-2 -8 -3.5 -15t-3.5 -12q-15 -39 -37 -58t-43 -19q-16 0 -33 11t-31.5 34t-23.5 58t-9 83q0 59 13.5 98.5t32.5 61.5q9 11 20 17v1l2 1l2 1q2 2 5 2.5t5 2.5q4 2 8.5 3t8.5 0q7 0 12.5 -3
t14 -4.5t23 -0.5t38.5 8v-12v0z" />
    <glyph glyph-name="registered" unicode="&#xae;" horiz-adv-x="414" 
d="M182 704q30 0 62 -19t58.5 -58t44 -99t17.5 -141t-17.5 -141t-44 -99t-58.5 -58t-62 -19t-62 19t-58.5 58t-44 99t-17.5 141t17.5 141t44 99t58.5 58t62 19zM182 90q29 0 52 19.5t41 53.5q-21 12 -37 41v1q-9 16 -15 38q-6 19 -10.5 43t-8 49.5t-5.5 50t-3 42.5
q-1 6 -1 11.5v10.5q0 6 -5.5 11t-22.5 6v-200q1 -25 11.5 -33.5t16.5 -8.5h1v-12q-16 1 -28.5 6.5t-29.5 5.5q-16 0 -28.5 -5.5t-28.5 -6.5v12q6 0 16.5 8.5t12.5 33.5v266q-2 24 -12.5 33t-16.5 9v12q16 -1 28.5 -6.5t28.5 -5.5q17 0 29.5 5.5t28.5 6.5h15q24 0 45 -9.5
t21 -37.5q0 -23 -18 -44.5t-52 -21.5h-16q7 -1 17.5 -7.5t19.5 -6.5q4 0 6 0.5t4 0.5v-15q0 -15 1.5 -42t5 -57.5t11 -61.5t20.5 -53q4 -8 8 -14t9 -11q13 38 19.5 83.5t6.5 96.5q0 60 -9.5 113.5t-27.5 94.5t-43.5 65t-56.5 24q-32 0 -57.5 -24t-43.5 -65t-27.5 -94.5
t-9.5 -113.5t9.5 -114t27.5 -94.5t43.5 -64.5t57.5 -24zM167 491q21 6 31 17.5t12 22.5t-1.5 20.5t-9.5 12.5q-5 3 -9.5 3.5t-9.5 0.5l-9 -3l-4 -2v-72v0z" />
    <glyph glyph-name="section" unicode="&#xa7;" horiz-adv-x="521" 
d="M237 749q3 -23 21.5 -48.5t44.5 -55t55.5 -65t54.5 -78t41.5 -93.5t16.5 -112q0 -74 -18 -146.5t-53.5 -130.5t-88 -93.5t-120.5 -35.5q-40 0 -73.5 13t-58.5 35t-40 51.5t-18 61.5q-3 23 4.5 43.5t23 33t39 14t51.5 -13.5q-20 -16 -31.5 -39t-11.5 -50q0 -21 7.5 -41.5
t22.5 -37.5t36.5 -27.5t48.5 -10.5q38 0 63 15.5t40 38.5t21.5 50t8.5 50.5t1.5 39.5t-0.5 17q-2 60 -19 105.5t-41.5 82t-52.5 65.5t-51.5 56t-39 53.5t-15.5 58.5q0 40 23.5 65.5t53.5 35.5q-7 14 -11 27.5t-4 29.5q0 51 30.5 78t72.5 27q27 0 45 -5.5t30 -16.5
q4 -2 7 0.5t6 7.5l6 12l20 -2q-3 -30 -5 -61q-2 -26 -1 -57.5t6 -58.5v-3l-28 18q-2 27 -8 53q-5 22 -16 44.5t-31 37.5q-5 4 -12.5 6.5t-16.5 2.5q-18 0 -28.5 -12t-7.5 -35zM175 591q2 -17 17.5 -36.5t37 -42.5t47 -49t47.5 -55t37.5 -60t18.5 -64q-4 70 -25.5 122
t-50 92.5t-58 72.5t-50.5 62q-8 -6 -15.5 -16.5t-5.5 -25.5z" />
    <glyph glyph-name="trademark" unicode="&#x2122;" horiz-adv-x="895" 
d="M380 688q-13 -26 -19 -52q-5 -23 -5.5 -51t12.5 -57h-12q-14 19 -23 40q-8 18 -12 40t3 45q-10 9 -21 14q-10 4 -22.5 4.5t-27.5 -8.5q-8 -6 -14.5 -18.5t-7.5 -33.5v-380q1 -17 5.5 -28.5t11 -18.5t13 -10t10.5 -3h1v-17q-23 1 -41 9t-41 8t-41 -8t-41 -9v17h1
q4 0 10.5 3t13 10t11 18.5t5.5 28.5v380q-1 20 -6.5 32t-13.5 19q-16 10 -29 9.5t-23 -4.5q-11 -5 -22 -14q7 -23 3.5 -45t-11.5 -40q-9 -21 -23 -40h-13q13 29 13 57t-5 51q-6 26 -19 52h108q23 -1 41 -9t41 -8t41 8t41 9h108zM844 671q-4 0 -10.5 -3t-13 -9.5t-11 -18
t-5.5 -29.5v-380q1 -17 5.5 -28.5t10.5 -18.5t12.5 -10t11.5 -3h1v-17q-23 1 -41.5 9t-40.5 8q-23 0 -41.5 -8t-41.5 -9v17h1q4 0 11 3t13.5 10t11 18.5t5.5 28.5v365l-114 -323l-137 294v-331q0 -14 7 -26t16 -20.5t18 -13.5t13 -5v-17q-18 1 -32.5 9t-33.5 8
q-18 0 -32.5 -8t-32.5 -9v17q4 0 13 5t18 13.5t16 20.5t7 26v370q0 15 -7 27t-16.5 20.5t-18.5 13t-12 4.5v17q18 -1 32.5 -9t32.5 -8q8 0 15 2t14 5q6 2 11.5 4t11.5 4l120 -270l78 238l9 26l22 -6q10 -3 23 -3q22 0 40.5 8t41.5 9v-17h-1v0z" />
    <glyph glyph-name="degree" unicode="&#xb0;" horiz-adv-x="190" 
d="M85 744q20 0 37.5 -18.5t17.5 -44.5t-17.5 -44.5t-37.5 -18.5q-22 0 -39.5 18.5t-17.5 44.5t17.5 44.5t39.5 18.5zM85 632q9 0 15 14.5t6 34.5t-6 35t-15 15t-16 -15t-7 -35t7 -34.5t16 -14.5z" />
    <glyph glyph-name="asciicircum" unicode="^" horiz-adv-x="465" 
d="M415 333q-20 2 -34.5 10.5t-35.5 8.5q-20 0 -37 -8.5t-37 -10.5v19q3 0 12 3.5t17 10.5t13.5 18t2.5 26l-98 270q0 -1 -5 -14t-12.5 -33.5t-17.5 -46.5t-20 -53l-54 -144q-8 -26 -0.5 -34.5t13.5 -9.5h1q-2 -5 -3 -6.5t-1 -3.5q-1 -2 0 -2q-17 1 -27.5 6.5t-27.5 5.5
t-32 -5.5t-32 -6.5q-1 0 0 2q0 2 1 3.5t3 6.5h1q6 1 20 9.5t25 34.5l100 273q8 26 0 35t-14 9q2 4 2 6t1 4q0 2 1 2q17 -1 27.5 -6.5t27.5 -5.5h3q5 0 10 1l10 2l20 6t21 3l-1 -2q-1 -2 -1.5 -4t-2.5 -6q-11 0 -14 -10t5 -30l91 -240q13 -33 30 -49t49 -25v-19z" />
    <glyph glyph-name="dagger" unicode="&#x2020;" horiz-adv-x="438" 
d="M250 491v-461q1 -24 7.5 -39.5t15 -25t17 -13.5t14.5 -4h1v-23q-15 1 -28.5 4.5t-27 7.5t-27 7.5t-28.5 3.5t-28.5 -3.5t-27 -7.5t-27 -7.5t-28.5 -4.5v23h1q6 0 15 4t17.5 13.5t15 25t7.5 39.5v461h-139v48h139v138q-1 24 -7.5 39.5t-15.5 25t-17.5 13.5t-14.5 4h-1v22
q15 0 28.5 -3.5t27 -7.5t27 -7.5t28.5 -3.5t28.5 3.5t27 7.5t27 7.5t28.5 3.5v-22h-1q-6 0 -14.5 -4t-17 -13.5t-15 -25t-7.5 -39.5v-138h138v-48h-138z" />
    <glyph glyph-name="daggerdbl" unicode="&#x2021;" horiz-adv-x="438" 
d="M250 484v-272h138v-48h-138v-141q1 -24 7.5 -39.5t15 -25t17 -13.5t14.5 -4h1v-22q-15 0 -28.5 3.5t-27 7.5t-27 7.5t-28.5 3.5t-28.5 -3.5t-27 -7.5t-27 -7.5t-28.5 -3.5v22h1q6 0 15 4t17.5 13.5t15 25t7.5 39.5v141h-139v48h139v272h-139v48h139v138q-1 24 -7.5 39.5
t-15.5 25t-17.5 13.5t-14.5 4h-1v23q15 -1 28.5 -4.5t27 -7.5t27 -7.5t28.5 -3.5t28.5 3.5t27 7.5t27 7.5t28.5 4.5v-23h-1q-6 0 -14.5 -4t-17 -13.5t-15 -25t-7.5 -39.5v-138h138v-48h-138z" />
    <glyph glyph-name="afii10017" unicode="&#x410;" horiz-adv-x="598" 
d="M598 -65v-27q-18 1 -34 5t-31 9t-31 9t-34 4t-34 -4t-31.5 -9t-31.5 -9t-34 -5v27h5q9 1 18.5 7t16.5 17.5t9.5 29t-1.5 41.5l-2 8l-64 309h-103l-49 -293q0 -1 -1.5 -19.5t3.5 -40.5t21.5 -40.5t51.5 -18.5v-27q-41 0 -70 -9.5t-52.5 -24t-45 -31t-47 -31t-58.5 -24
t-79 -9.5v25q35 0 72 13.5t69.5 41t57.5 69t36 97.5l54 322h-22q-13 0 -21.5 -12.5t-15 -32t-12.5 -44.5t-15 -50t-21.5 -47.5t-31.5 -37.5h-6q21 21 34.5 60t17.5 85t-2 92.5t-24 81.5h9q12 -21 26 -37q12 -14 27.5 -25t33.5 -11h27l43 257q6 31 2 51.5t-12 32t-18 16
t-17 5.5q-9 1 -20 -2t-20.5 -10t-15.5 -19t-6 -29q0 -25 17.5 -42.5t42.5 -17.5q11 0 23 5q-8 -20 -26 -32.5t-41 -12.5q-19 0 -34.5 9t-25.5 24q-2 3 -3.5 6.5t-3.5 6.5q-1 0 -1 1q-7 15 -7 38q0 31 13 50.5t32 30.5t39.5 15.5t35.5 4.5q17 0 32 -4t29.5 -8.5t29.5 -8.5
t32 -5h15q16 1 31 5t29.5 8.5t30 8.5t32.5 4v-26h-1q-7 -1 -17.5 -5.5t-18.5 -16.5t-11 -32t4 -51l-1 5l123 -592l6 -26q8 -33 23 -55t47 -23h3zM314 369l-52 251l-43 -251h95z" />
    <glyph glyph-name="afii10019" unicode="&#x412;" 
d="M586 352q6 -35 8 -80t-1.5 -92.5t-13 -93.5t-25.5 -83q-20 -47 -46 -73t-50 -40q-28 -16 -57 -20q-23 17 -52.5 34.5t-58.5 24.5q-8 2 -15.5 3.5t-15.5 1.5q-32 0 -59 -8q-11 -3 -21.5 -6.5t-21.5 -6.5q-20 -5 -37 -5v27h1q7 0 17.5 4.5t20.5 15.5t17.5 29.5t8.5 46.5
v603q-1 28 -8.5 46.5t-17.5 29.5t-20.5 15.5t-17.5 4.5h-1q-8 0 -18.5 -3t-19.5 -9.5t-15.5 -18t-6.5 -28.5q0 -25 17 -42.5t42 -17.5q11 0 23 5q-8 -20 -26 -32.5t-41 -12.5q-19 0 -34.5 9t-25.5 24q-2 3 -3.5 6.5t-3.5 6.5q-8 19 -8 39q0 31 13 50.5t32 30.5t39.5 15.5
t35.5 4.5q18 0 34 -4.5t31.5 -9t31.5 -8.5t34 -4t34 4t31 8.5t31 9t34 4.5h35q27 0 51.5 -5t44 -17t31 -33t11.5 -53q0 -48 -12.5 -80t-31 -53t-39.5 -32.5t-39 -18.5q19 1 42.5 -2.5t46 -15.5t40 -34.5t25.5 -60.5zM316 469q39 0 64 16.5t39 42t19 55t4 56.5q-1 12 -3.5 27
t-9.5 26.5t-19.5 18t-33.5 2.5q-7 -1 -16.5 -4t-19.5 -6q-11 -4 -24 -9v-225zM316 -13q10 -2 29 -3.5t40 7.5t40.5 33t32.5 72q5 30 6.5 62.5t1.5 77.5q0 35 -2.5 67.5t-8 59t-14.5 45.5t-23 27q-11 8 -28 7t-34 -5q-19 -4 -40 -13v-437z" />
    <glyph glyph-name="afii10020" unicode="&#x413;" 
d="M316 31q1 -28 8.5 -46.5t17.5 -30t20.5 -16t17.5 -4.5h2v-26h-4q-29 0 -52.5 -6t-43 -15t-37 -21t-34.5 -24t-35 -23.5t-39.5 -20t-48 -14t-59.5 -5.5v24q47 0 76.5 21t46.5 52t24 66t9 64v628q-1 27 -8.5 45.5t-17.5 30t-20.5 16t-17.5 4.5h-1q-8 0 -18.5 -3t-19.5 -9.5
t-15.5 -18t-6.5 -28.5q0 -25 17 -42.5t42 -17.5q10 0 23 5q-8 -20 -26 -32.5t-41 -12.5q-35 0 -55 26t-20 59q0 31 13 50.5t32 30.5t39.5 15.5t35.5 4.5q18 -1 34 -5.5t31.5 -9t31.5 -8.5t34 -4t33.5 4t30.5 8.5t30.5 9t32.5 5.5h205v-27q-37 -15 -55 -51.5t-18 -86.5
q0 -40 12 -84t35 -88q-37 31 -54.5 65t-25 66t-9.5 60.5t-8 50.5t-21 35t-48 14q-41 0 -58 -22.5t-17 -56.5v-601z" />
    <glyph glyph-name="afii10022" unicode="&#x415;" 
d="M507 613q0 -2 -1 -3q-5 -39 4.5 -78t31.5 -69q-39 8 -57.5 29.5t-26 49.5t-8.5 58t-5.5 55t-17 41.5t-42.5 16.5q-22 0 -35.5 -8.5t-21 -20.5t-10 -26t-2.5 -25v-213q13 -2 28.5 -3t29.5 -1q14 2 28.5 10t25.5 17q7 5 13 11l12 12q1 -1 2 -1t2.5 -0.5t3.5 -0.5
q-14 -17 -25 -37q-19 -35 -29 -76t-11 -80q-5 -66 19 -104l-5 1q-1 0 -2.5 3t-2.5 4l-5 8q-2 5 -4 9t-4 9q-7 17 -9.5 35t-4.5 35q-2 19 -2 37t-5 36q-3 10 -7 19t-12 16q-3 4 -14 5t-22 1v-352q0 -14 3.5 -28.5t11.5 -26.5q10 -14 25.5 -20t32.5 -6q1 1 4 1q27 2 38 19
t14.5 41.5t5 54t9 56.5t26 48.5t56.5 30.5q-22 -31 -31.5 -70t-4.5 -78q1 -1 1 -3q3 -23 12.5 -51.5t28.5 -47.5q16 -17 36 -18v-27h-209q-2 1 -8 1l-4 1q-2 0 -12 2q-7 2 -13 3.5t-13 3.5q-8 3 -16.5 5.5t-16.5 4.5q-21 6 -41 6q-18 0 -34 -4t-31.5 -8.5t-31.5 -9t-34 -5.5
v27h1q7 0 17.5 4.5t20.5 16t17.5 30t8.5 45.5v603q-1 28 -8.5 46.5t-17.5 29.5t-20.5 16t-17.5 5h-1q-8 0 -18.5 -3t-19.5 -10t-15.5 -18.5t-6.5 -28.5q0 -25 17 -42t42 -17q15 0 23 4q-8 -20 -26 -32t-41 -12q-39 0 -60 32q-2 3 -3.5 6.5t-3.5 6.5v1q-8 19 -8 38
q0 31 13 50.5t32 31t39.5 16t35.5 4.5q18 -1 34 -5.5t31.5 -9t31.5 -8.5t34 -4t34 4t31 8.5t31 9t34 5.5h203v-27q-20 -3 -36 -18q-19 -19 -28.5 -48t-12.5 -52z" />
    <glyph glyph-name="afii10028" unicode="&#x41a;" 
d="M578 -3q1 -29 10.5 -62.5t28.5 -62.5t50 -48.5t76 -19.5v-24q-44 0 -74 9.5t-51.5 24t-38.5 31t-37 31t-46.5 24t-65.5 9.5v26h1q7 1 17.5 6t20.5 16t17.5 29t8.5 46q-4 105 -24 189q-9 36 -21.5 70t-31.5 61t-44 44t-58 18v-382q1 -28 8.5 -46.5t17.5 -29.5t20.5 -16
t17.5 -5h1v-26q-39 0 -68.5 -9.5t-53.5 -24t-46.5 -31t-48.5 -31t-58.5 -24t-76.5 -9.5v24q52 0 83 26t47 62t21 74.5t5 64.5v604q-1 28 -8.5 46.5t-17.5 29.5t-20.5 15.5t-17.5 4.5h-1q-9 0 -19.5 -3t-19.5 -9.5t-15 -18t-6 -28.5q0 -25 17 -42.5t42 -17.5q11 0 23 5
q-8 -20 -26 -32.5t-41 -12.5q-19 0 -34.5 9t-25.5 24q-4 5 -7 13q-8 19 -8 39q0 31 13 50.5t32 30.5t39.5 15.5t35.5 4.5q18 -1 34 -5t31.5 -9t31.5 -9t34 -4t34 4t31 9t31 9t34 5v-27h-1q-7 0 -17.5 -4.5t-20.5 -15.5t-17.5 -29.5t-8.5 -46.5v-133q23 0 40 14.5t30 36
t24.5 47.5t24.5 50.5t29 44.5t39 30t43.5 16t45.5 6q-22 0 -36.5 -18t-26.5 -46t-24.5 -61.5t-29.5 -65t-42 -56.5t-62 -35q69 -13 108.5 -55t59.5 -105t27 -142t12 -166z" />
    <glyph glyph-name="afii10030" unicode="&#x41c;" horiz-adv-x="910" 
d="M859 732q-7 0 -17.5 -4.5t-20.5 -15.5t-17.5 -29.5t-8.5 -46.5v-603q1 -29 8.5 -47t17.5 -29t20.5 -15.5t17.5 -5.5h1v-26q-18 0 -34 4t-31.5 9t-31.5 9t-34 4t-34 -4t-31 -9t-31 -9t-34 -4v26h1q7 1 17.5 5.5t20.5 15.5t17.5 29t8.5 47v594l-180 -717l-219 657v-518
q1 -7 1.5 -15.5t2.5 -17.5q3 -14 8.5 -28t15.5 -25.5t24 -19t35 -7.5v-26q-41 0 -70 -9.5t-52.5 -24t-45 -31t-47 -31t-58.5 -24t-79 -9.5v24q48 0 96 29t84 84q17 26 27 52q2 6 5.5 13.5t5.5 16.5q5 14 8 32t3 42v554q0 48 -20.5 76t-45.5 28q-9 0 -19.5 -3t-19.5 -9.5
t-15.5 -18t-6.5 -28.5q0 -25 17.5 -42.5t42.5 -17.5q10 0 23 5q-8 -20 -26 -32.5t-41 -12.5q-19 0 -34.5 9t-25.5 24h-1q-2 3 -3.5 6l-3.5 7q-7 15 -7 39q0 31 13 50.5t32 30.5t39.5 15.5t35.5 4.5q15 -1 26 -5.5t20.5 -9t18.5 -8.5t19 -4q13 0 24 3t22 8q5 2 9 3.5t9 3.5
q8 4 18 5l193 -542l135 535l18 -6t18 -5q20 -5 36 -5q18 0 34 4t31.5 8.5t31.5 9t34 5.5v-27h-1z" />
    <glyph glyph-name="afii10031" unicode="&#x41d;" horiz-adv-x="667" 
d="M551 31q0 -26 5 -64.5t21 -74.5t47 -62t83 -26v-24q-45 0 -77 9.5t-58 24t-48.5 31t-46.5 31t-53.5 24t-68.5 9.5v26h1q7 0 17.5 4.5t20.5 16t17.5 30t8.5 46.5v321h-54q2 2 3.5 2.5t3.5 2.5h47v11h-47q-18 -7 -28 -28t-14 -43v-186q2 -9 7.5 -16.5t14.5 -7.5
q-7 0 -12 -4.5t-8 -11t-4 -13.5t-1 -13q0 6 -1 13t-4 13.5t-7.5 11t-11.5 4.5q9 0 14.5 7.5t7.5 16.5v186q-4 22 -14 43t-28 28h-47v-11h47q3 -1 7 -5h-54v-321q1 -28 8.5 -46.5t17.5 -30t20.5 -16t17.5 -4.5h1v-26q-40 0 -69 -9.5t-53.5 -24t-46.5 -31t-48 -31t-58.5 -24
t-76.5 -9.5v24q52 0 83 26t47 62t21 74.5t5 64.5v1v603q-1 28 -8.5 46.5t-17.5 29.5t-20.5 15.5t-17.5 4.5h-1v27q18 -1 34 -5.5t31.5 -9t31.5 -8.5t34 -4t34 4t31 8.5t31 9t34 5.5v-27h-1q-7 0 -17.5 -4.5t-20.5 -15.5t-17.5 -29.5t-8.5 -46.5v-261h47q12 4 20.5 15.5
t13.5 26t7.5 30t2.5 26.5q0 -11 2.5 -26.5t8 -30t14 -26t20.5 -15.5h47v261q-1 28 -8.5 46.5t-17.5 29.5t-20.5 15.5t-17.5 4.5h-1v27q18 -1 34 -5.5t31 -9t31 -8.5t34 -4t34 4t31.5 8.5t31.5 9t34 5.5v-27h-1q-7 0 -17.5 -4.5t-20.5 -15.5t-17.5 -29.5t-8.5 -46.5v-603v-1z
" />
    <glyph glyph-name="afii10032" unicode="&#x41e;" horiz-adv-x="511" 
d="M255 757q36 0 75 -25.5t71.5 -77.5t53.5 -131.5t21 -187.5q0 -109 -21 -188.5t-53.5 -131.5t-71.5 -77.5t-75 -25.5t-75 25.5t-71 77.5t-53 131.5t-21 188.5q0 108 21 187.5t53 131.5t71 77.5t75 25.5zM255 -54q15 0 29.5 31.5t26.5 84.5t19 124t7 149q0 77 -7 146.5
t-18 122.5t-25.5 85t-29.5 34v-280q2 -13 6.5 -26.5t11.5 -24.5t16.5 -18t22.5 -7q-13 0 -22.5 -7t-16.5 -18.5t-11.5 -25t-6.5 -26.5v-209q2 -8 7 -14.5t13 -6.5q-12 0 -17 -13.5t-5 -24.5q0 11 -5 24.5t-17 13.5q8 0 12.5 6.5t6.5 14.5v216q-5 25 -18 47.5t-37 22.5
q24 0 37 22t18 48v285q-15 -3 -29 -35.5t-25 -85t-17.5 -121.5t-6.5 -145q0 -78 7 -149t18.5 -124t26 -84.5t29.5 -31.5z" />
    <glyph glyph-name="afii10033" unicode="&#x41f;" horiz-adv-x="648" 
d="M551 0q1 -28 8.5 -46.5t17.5 -29.5t20.5 -15.5t17.5 -4.5h1v-27q-18 1 -34 5.5t-31 9t-31 8.5t-34 4t-34 -4t-31.5 -8.5t-31.5 -9t-34 -5.5v27h1q7 0 17.5 4.5t20.5 15.5t17.5 29.5t8.5 46.5v635q-5 29 -12 47t-16 29q-11 11 -27.5 17.5t-34.5 6.5v-274q4 -26 17 -50
t37 -26q-24 -2 -37 -26.5t-17 -50.5v-209q2 -8 6 -14t11 -7q-10 -2 -14 -12.5t-5 -21.5q-1 11 -5.5 21.5t-14.5 12.5q7 1 11 7t6 14v216q-5 24 -17.5 46t-35.5 24q23 1 35.5 22.5t17.5 47.5v280q-19 0 -36.5 -7t-28.5 -22q-17 -22 -23 -71v-603q1 -28 8.5 -46.5t17.5 -30
t20.5 -16t17.5 -4.5h1v-26q-40 0 -69 -9.5t-53.5 -24t-46.5 -31t-48 -31t-58.5 -24t-76.5 -9.5v24q52 0 83 26t47 62t21 74.5t5 64.5v604q-1 28 -8.5 46.5t-17.5 29.5t-20.5 15.5t-17.5 4.5h-1v27q18 -1 34 -5.5t31.5 -9t31.5 -8.5t34 -4q21 0 40 4.5t37 9.5t37 9.5t41 4.5
q23 0 42.5 -4.5t38 -9.5t37 -9.5t40.5 -4.5q18 0 34 4t31.5 8.5t31.5 9t34 5.5v-27h-1q-7 0 -17.5 -4.5t-20.5 -15.5t-17.5 -29.5t-8.5 -46.5v-635z" />
    <glyph glyph-name="afii10034" unicode="&#x420;" horiz-adv-x="616" 
d="M316 30q1 -28 8.5 -46t17.5 -29t20.5 -16t17.5 -5h1v-27q-39 0 -68.5 -9.5t-53.5 -24t-46.5 -31t-48.5 -31t-58.5 -24t-76.5 -9.5v25q52 0 83 26t47 62t21 74.5t5 63.5v604q-1 28 -8.5 46.5t-17.5 29.5t-20.5 16t-17.5 5h-1q-12 0 -27.5 -6t-25.5 -22q-7 -14 -7 -32v-3
q1 -23 18 -39.5t41 -16.5h6q5 1 9 1.5t8 2.5q-5 -14 -16.5 -24.5t-25.5 -15.5q-11 -4 -25 -4q-5 0 -10 0.5t-10 1.5q-26 8 -40 30q-2 3 -3.5 6.5t-3.5 6.5v1q-8 18 -8 38q0 13 3 25q5 23 19 38t31.5 23.5t35.5 12t31 3.5q18 -1 34 -5t31.5 -9t31.5 -9t34 -4t34 4t31 9t31 9
t34 5h35q25 0 51.5 -10.5t48.5 -32.5t36 -54.5t14 -76.5q0 -83 -24 -135.5t-61 -83t-81 -42t-84 -11.5v-281zM316 369q40 0 68.5 26.5t44.5 65.5t19.5 84.5t-6.5 83.5t-34 62.5t-62 21.5q-14 -3 -21 -6q-4 -2 -9 -4v-334z" />
    <glyph glyph-name="afii10035" unicode="&#x421;" horiz-adv-x="469" 
d="M332 444q2 -13 6.5 -26t11.5 -23.5t16.5 -17t21.5 -6.5q-12 0 -21.5 -6.5t-16.5 -17t-11.5 -23.5t-6.5 -26v-210q-3 0 -5 -1v211q-2 13 -6.5 26t-11.5 23.5t-16.5 17t-21.5 6.5q12 0 21.5 6.5t16.5 17t11.5 23.5t6.5 26v82q-2 41 -10 76t-20 60.5t-26.5 40.5t-29.5 16h-4
q-15 0 -25 -31.5t-16.5 -85t-9.5 -123.5t-3 -148t3 -148.5t9.5 -124t16.5 -84.5t25 -31q17 0 27.5 36t17.5 98q16 -2 35.5 -1t40 8.5t40.5 22t37 38.5q-3 -17 -7 -33t-9 -28q-17 -45 -38.5 -78t-45.5 -54.5t-49 -32.5t-49 -11q-36 0 -75 25.5t-71 77.5t-53 131.5t-21 188.5
q0 133 30 223t74 140q21 24 45 40l5 3q2 2 4 2q13 8 24 11q8 4 19 6.5t19 1.5q16 -1 28.5 -6.5t32 -9.5t51 -1.5t87.5 17.5v-27q-19 -2 -37.5 -21t-33 -49.5t-23.5 -70t-9 -81.5h-1v-65z" />
    <glyph glyph-name="afii10036" unicode="&#x422;" horiz-adv-x="579" 
d="M579 730q-29 0 -47.5 -24t-29 -59.5t-14.5 -76.5t-4 -75v-51q3 -13 7.5 -26t11 -23.5t16 -17t21.5 -6.5q-12 0 -21.5 -6.5t-16 -17t-11 -23.5t-7.5 -26v-213q3 -8 7.5 -14t12.5 -6q-12 0 -17 -14t-5 -24q0 10 -5 24t-17 14q8 0 12.5 6t6.5 14v213q-2 13 -6.5 26
t-11.5 23.5t-16.5 17t-21.5 6.5q12 0 21.5 6.5t16.5 17t11.5 23.5t6.5 26v53q0 45 -3.5 89.5t-13.5 78.5q-8 27 -24.5 43t-39.5 16q-19 0 -31 -13.5t-12 -44.5v-635q1 -28 8.5 -46.5t17.5 -29.5t20.5 -16t17.5 -5h1v-26q-39 0 -68.5 -9.5t-53.5 -24t-46.5 -31t-48.5 -31
t-58.5 -24t-76.5 -9.5v24q52 0 83 26t47 62t21 74.5t5 64.5v638q-1 29 -12.5 42.5t-30.5 13.5q-23 0 -39.5 -16t-24.5 -43q-10 -34 -13.5 -78.5t-3.5 -89.5v-53q2 -13 6.5 -26t11.5 -23.5t16.5 -17t21.5 -6.5q-12 0 -21.5 -6.5t-16.5 -17t-11.5 -23.5t-6.5 -26v-213
q2 -8 6.5 -14t12.5 -6q-12 0 -17 -14t-5 -24q0 10 -5 24t-17 14q8 0 12.5 6t6.5 14v213q-2 13 -6.5 26t-11.5 23.5t-16.5 17t-21.5 6.5q12 0 21.5 6.5t16.5 17t11.5 23.5t6.5 26v51q0 34 -3.5 75t-14 76.5t-29 59.5t-47.5 24v27h155q20 0 36 -4t30.5 -8.5t28 -8.5t29.5 -5
h21q16 1 29.5 5t28 8.5t30.5 8.5t36 4h155v-27z" />
    <glyph glyph-name="afii10039" unicode="&#x425;" horiz-adv-x="711" 
d="M606 730q15 0 27.5 4t25 9t25 9t27.5 5v-27h-1q-6 0 -22 -7t-36 -20.5t-40.5 -34.5t-35.5 -50l-98 -222l118 -362q11 -32 22 -51.5t21 -30t18.5 -14.5t14.5 -4h3v-26q-17 0 -32.5 4t-30 8.5t-29.5 8.5t-32 5h-14q-17 -1 -32 -5t-29.5 -8.5t-30 -8.5t-32.5 -4v26h2
q7 0 15.5 5t15 16.5t8.5 31.5t-5 51v1l-55 202l-74 -176q-7 -21 -12.5 -45t-3.5 -44q2 -18 12.5 -29.5t33.5 -11.5h2v-27h7q-40 0 -69.5 -10t-54 -24.5t-47 -31t-49 -30.5t-60 -23.5t-79.5 -9.5v25q41 0 84 18t78 56q47 46 77 101t58 119l84 193l-2 5l-121 335
q-12 32 -23 51t-20.5 29.5t-18 14.5t-15.5 4h-2q-8 0 -18.5 -3t-19.5 -9.5t-15.5 -18t-6.5 -28.5q0 -25 17 -42.5t42 -17.5q11 0 24 5q-8 -20 -26 -32.5t-41 -12.5q-20 0 -35.5 9t-25.5 24q-4 5 -7 13q-8 19 -8 39q0 31 13 50.5t32 30.5t39.5 15.5t35.5 4.5q17 -1 32.5 -5
t30 -8.5t29.5 -8t32 -4.5h14q17 1 32 5t29.5 8.5t30 8.5t32.5 4v-27h-2q-7 0 -16.5 -5t-17 -17t-9 -32t8.5 -50l59 -186l80 186q13 27 10 46.5t-13 32.5t-22 19t-18 6v27q15 -1 27.5 -5t25 -9t25 -9t27.5 -4z" />
    <glyph glyph-name="afii10047" unicode="&#x42d;" horiz-adv-x="469" 
d="M124 509q0 42 -9 81.5t-23.5 70t-33 49.5t-37.5 21v27q55 -15 87 -17.5t51.5 1t31.5 9.5t29 7q8 1 19 -1.5t19 -6.5q9 -2 24 -11q2 0 4 -2l5 -3q25 -17 45 -40q44 -50 74 -140t30 -223q0 -109 -19.5 -188.5t-49.5 -132t-67.5 -78t-73.5 -25.5q-24 -1 -37.5 4.5t-30.5 9.5
t-46.5 2.5t-84.5 -16.5v27q19 1 36 18q20 20 28 45.5t12 49.5q5 39 -4.5 78t-31.5 70q38 -9 56.5 -30.5t26 -49t9 -57t5 -54.5t14.5 -42t38 -19q15 0 25 31t16.5 84.5t9.5 124t3 148.5v46q-34 4 -50.5 -1.5t-25.5 -35.5q-5 -18 -5 -36t-2 -37q-2 -17 -4.5 -35t-9.5 -35
q-2 -5 -4 -9t-4 -9l-5 -8q-1 -1 -2.5 -4t-2.5 -3l-5 -1q24 38 19 104q-1 39 -11 80t-29 76q-11 20 -25 37q2 0 3.5 0.5t2.5 0.5t2 1l12 -12t13 -11q28 -23 62.5 -27t69.5 -1q-1 64 -4.5 120t-10 98t-16 66t-22.5 24h-4q-16 -1 -31.5 -20t-27.5 -48.5t-19 -66.5t-6 -74z" />
    <glyph glyph-name="afii10048" unicode="&#x42e;" horiz-adv-x="770" 
d="M526 758q36 0 75 -25.5t71.5 -77.5t53.5 -131.5t21 -187.5q0 -109 -21 -188.5t-53.5 -131.5t-71.5 -77.5t-75 -25.5t-75 25.5t-71 77.5t-53 131.5t-21 188.5q0 26 1 50l-70 -1v-353q1 -28 8.5 -46.5t17.5 -29.5t20.5 -16t17.5 -5h1v-26q-39 0 -68.5 -9.5t-53.5 -24
t-46.5 -31t-48.5 -31t-58.5 -24t-76.5 -9.5v24q52 0 83 26t47 62t21 74.5t5 64.5v604q-1 28 -8.5 46.5t-17.5 29.5t-20.5 15.5t-17.5 4.5h-1v27q18 -1 34 -5t31.5 -9t31.5 -9t34 -4t34 4t31 9t31 9t34 5v-27h-1q-7 0 -17.5 -4.5t-20.5 -15.5t-17.5 -29.5t-8.5 -46.5v-215
l72 -1q5 57 18 104q21 80 53 132t71 77.5t75 25.5zM526 -53q15 0 29.5 31.5t26.5 84.5t19 124t7 149q0 77 -7 146.5t-18 122.5t-25.5 85t-29.5 34v-280q2 -13 6.5 -26.5t11.5 -24.5t16 -18q8 -6 19 -7q-11 -1 -19 -7q-9 -7 -16 -18.5t-11.5 -25t-6.5 -26.5v-209q2 -8 7 -15
q4 -5 10 -6q-10 -2 -14 -14q-5 -13 -5 -24q0 11 -5 24q-5 12 -15 14q6 1 10 6q5 7 7 15v216q-5 25 -18 47q-12 20 -33 23q21 2 33 22q13 22 18 48v285q-15 -3 -29 -35.5t-25 -85t-17.5 -121.5t-6.5 -145q0 -78 7 -149t18.5 -124t26 -84.5t29.5 -31.5z" />
    <glyph glyph-name="afii10049" unicode="&#x42f;" horiz-adv-x="530" 
d="M309 704q-2 1 -4.5 2t-4.5 2q-8 3 -21 6q-38 3 -62 -21.5t-34 -62.5t-6.5 -83.5t19.5 -84.5t44.5 -65.5t68.5 -26.5v334zM309 3v309h-12.5t-13.5 1q-14 1 -29 3.5t-31 7.5q-17 -4 -29 -19t-12 -53q0 -28 1.5 -74t-2 -98.5t-16 -106t-41 -96.5t-76 -70.5t-121.5 -27.5v24
q42 0 70 21t46 56t27.5 79.5t13.5 90.5t4.5 90.5t0.5 78.5q0 31 7.5 52.5t19.5 36.5t27 23.5t30 13.5q-24 13 -44.5 33.5t-36 50t-24.5 68t-9 87.5q0 44 14 76.5t36 54.5t48.5 32.5t51.5 10.5h35q18 -1 34 -5.5t31.5 -9t31.5 -8.5t34 -4t34 4t31 8.5t31 9t34 5.5v-27h-1
q-7 0 -17.5 -5t-20.5 -16t-17.5 -29.5t-8.5 -46.5v-632q1 -28 8.5 -46.5t17.5 -29.5t20.5 -15.5t17.5 -4.5h1v-27q-18 1 -34 5.5t-31 9t-31 8.5t-34 4t-34 -4t-31.5 -8.5t-31.5 -9t-34 -5.5v27h1q7 0 17.5 4.5t20.5 15.5t17.5 29.5t8.5 46.5v1z" />
    <glyph glyph-name="afii10018" unicode="&#x411;" 
d="M494 510q-15 6 -22.5 25t-13 43.5t-11 50.5t-16.5 45.5t-29 29t-48 0.5q-21 -6 -29.5 -26.5t-8.5 -45.5v-173q37 10 78 19t78.5 4t68 -30.5t45.5 -84.5q6 -35 8 -82.5t-1.5 -97.5t-13 -98.5t-25.5 -85.5q-20 -48 -46 -73.5t-50 -39.5q-14 -8 -28.5 -13t-28.5 -7
q-23 17 -52.5 34.5t-58.5 24.5q-8 2 -15.5 3.5t-15.5 1.5q-30 0 -59 -8q-11 -3 -21.5 -6.5t-21.5 -6.5q-22 -5 -37 -5v27h1q7 0 17.5 4.5t20.5 15.5t17.5 29.5t8.5 46.5v603q-1 27 -8.5 45.5t-17.5 30t-20.5 16t-17.5 4.5h-1q-8 0 -18.5 -3t-19.5 -9.5t-15.5 -18t-6.5 -28.5
q0 -25 17 -42.5t42 -17.5q10 0 23 5q-8 -20 -26 -32.5t-41 -12.5q-35 0 -55 26t-20 59q0 31 13 50.5t32 30.5t39.5 15.5t35.5 4.5q18 -1 34 -5.5t31.5 -9t31.5 -8.5t34 -4t33.5 4t30.5 8.5t30.5 9t32.5 5.5h205v-27q-18 -8 -38.5 -28.5t-35.5 -50t-20.5 -66t5.5 -75.5z
M316 -13q11 -2 29.5 -3.5t39 7.5t40.5 33t33 72q5 30 6.5 62.5t1.5 77.5q0 35 -2.5 67.5t-8 59t-14.5 45.5t-23 27q-10 6 -23 6.5t-27 -2t-27.5 -7t-24.5 -8.5v-437z" />
    <glyph glyph-name="afii10021" unicode="&#x414;" horiz-adv-x="599" 
d="M205 -83q-33 2 -51 -12t-27 -36t-13.5 -49t-10 -52t-17 -44.5t-34.5 -25.5q15 37 17.5 76t-4 73t-20.5 58t-32 32l1 27h75q26 36 46.5 88.5t35.5 113.5t26 126.5t17 128t8.5 118.5t1.5 98q-2 54 -22.5 76.5t-45.5 22.5q-9 0 -19.5 -3t-19.5 -9.5t-15.5 -18t-6.5 -28.5
q0 -25 17.5 -42.5t42.5 -17.5q10 0 23 5q-8 -20 -26 -32.5t-41 -12.5q-19 0 -34.5 9t-25.5 24h-1q-2 3 -3.5 6l-3.5 7q-7 15 -7 39q0 31 13 50.5t32 30.5t39.5 15.5t35.5 4.5q15 -1 27 -5.5t23.5 -10t21.5 -9.5t20 -4q32 12 73 12.5t75 -10.5q20 -5 36 -5q18 0 34 4t31 8.5
t31 9t34 5.5v-30l-1 3q-7 0 -17.5 -4.5t-20.5 -15.5t-17.5 -29.5t-8.5 -46.5v-670h82v-27q-18 -8 -32.5 -33.5t-21 -60.5t-5 -73.5t15.5 -71.5q-23 4 -34 22.5t-16 43.5t-8.5 52.5t-12 50.5t-26.5 37.5t-51 12.5zM367 695q-10 12 -25.5 17t-31.5 4.5t-30 -6.5t-21 -17
q5 -72 2 -148.5t-10.5 -151.5t-20 -144.5t-27.5 -127t-32 -99.5t-34 -62h230v735zM312 442q2 -13 6.5 -26t11.5 -23.5t16.5 -17t21.5 -6.5q-12 0 -21.5 -6.5t-16.5 -17t-11.5 -23.5t-6.5 -26h-5q-2 13 -6.5 26t-11.5 23.5t-16.5 17t-21.5 6.5q12 0 21.5 6.5t16.5 17
t11.5 23.5t6.5 26h5z" />
    <glyph glyph-name="afii10024" unicode="&#x416;" horiz-adv-x="801" 
d="M804 -90q-18 1 -32.5 5t-28.5 8.5t-28.5 8t-32.5 3.5t-32.5 -4t-28 -8.5t-27.5 -9t-32 -5.5v26h1q61 18 64 97q-3 31 -7 70t-11.5 79t-19.5 78.5t-31 70.5t-46 54.5t-64 29.5v-382q1 -27 8.5 -45.5t17.5 -30t20.5 -16t17.5 -4.5h1v-27q-18 1 -34 5.5t-31 9t-31 8.5t-34 4
t-34 -4t-31.5 -8.5t-31.5 -9t-34 -5.5v27h1q7 0 17.5 4.5t20.5 16t17.5 30t8.5 45.5h1v384q-38 -6 -65.5 -27.5t-47 -53t-31 -70t-19 -79t-11 -80.5t-5.5 -74q1 -28 8.5 -46t17.5 -29t20.5 -16t17.5 -6h1v-26q-27 0 -46 -4q-27 -6 -46.5 -17.5t-36 -25.5t-32.5 -28.5
t-36.5 -26.5t-48.5 -19.5t-67 -7.5v24q45 0 75.5 19.5t50 48.5t29 62.5t10.5 62.5q5 50 7.5 99.5t8 96.5t16 89.5t32 78t56 62.5t87.5 42q-37 10 -62 35t-42 56t-29.5 65t-24.5 62t-26.5 46t-36.5 18q25 0 45.5 -6t43.5 -16q22 -10 38 -30t29.5 -45t25 -51t25 -47.5
t30 -35.5t39.5 -14v133q-1 28 -8.5 46.5t-17.5 29.5t-20.5 16t-17.5 5h-1v27q18 -1 34 -5.5t31 -9t31 -8.5t34 -4t34 4t31 8.5t31 9t34 5.5v-27h-1q-7 0 -17.5 -5t-20.5 -16t-17.5 -29.5t-8.5 -46.5v-133q23 0 39.5 14t30 35.5t25 47.5t25 51t29.5 45t38 30q23 10 43.5 16
t45.5 6q-22 0 -36.5 -18t-26.5 -46t-24.5 -61.5t-29.5 -65t-42 -56t-62 -34.5q65 -8 100 -39.5t54 -77.5q13 -32 20.5 -69.5t13.5 -76.5t13 -78t19 -74t30.5 -64.5t49.5 -49.5h1v-26z" />
    <glyph glyph-name="afii10025" unicode="&#x417;" horiz-adv-x="530" 
d="M247 -95q-56 -2 -97.5 13.5t-69.5 42.5t-41.5 62.5t-13.5 73.5q0 36 15 68t40.5 52t59.5 24t73 -16q-34 -9 -56 -32t-32.5 -53.5t-8 -64t17.5 -62.5t42.5 -49.5t69.5 -24.5q40 -2 67.5 22t44 62t22 85t1.5 91q-3 31 -10 61t-21 53.5t-36 38t-54 14.5q-15 0 -28.5 -7
t-24.5 -24v100q11 -19 24 -25t27 -4q34 5 56 29t32 57t7.5 69.5t-16 66t-39 47t-61.5 12.5q-33 -5 -53.5 -21.5t-32 -36.5t-16.5 -40.5t-7 -33.5q-5 -34 -21 -60t-57 -37q20 31 28 68t4 76q-2 16 -6.5 34t-12.5 34t-20.5 27.5t-29.5 13.5v27q33 -10 58.5 -14t46 -4t36.5 3
t30 6q36 10 70.5 10.5t71.5 -6.5q44 -7 74.5 -30t47.5 -55t20.5 -69.5t-7 -72.5t-34.5 -64.5t-62 -45.5q34 -7 60 -26t44 -46t28 -61t12 -71q3 -61 -10.5 -113.5t-46 -91t-83.5 -60.5t-122 -22z" />
    <glyph glyph-name="afii10026" unicode="&#x418;" horiz-adv-x="754" 
d="M208 635q-1 28 -8.5 46.5t-17.5 29.5t-20.5 16t-17.5 5h-1q-8 0 -18.5 -3t-19.5 -10t-15.5 -18.5t-6.5 -28.5q0 -25 17 -42t42 -17q15 0 23 4q-8 -20 -26 -32t-41 -12q-39 0 -60 32q-2 3 -3.5 6.5t-3.5 6.5v1q-8 19 -8 38q0 31 13 50.5t32 31t39.5 16t35.5 4.5
q18 -1 34 -5.5t31.5 -9t31.5 -8.5t34 -4t34 4t31 8.5t31 9t34 5.5v-27h-1q-7 0 -17.5 -5t-20.5 -16t-17.5 -29.5t-8.5 -46.5v-510l88 254v278q-3 8 -7 15t-12 9q11 2 16 14t6 23q1 -11 6 -23.5t17 -13.5q-8 -2 -13 -9t-7 -15v-260l88 253q-3 24 -11 39.5t-17.5 24.5t-19 13
t-15.5 4h-1v27q18 -1 34 -5.5t31 -9t31 -8.5t34 -4t34 4t31.5 8.5t31.5 9t34 5.5v-27h-1q-7 0 -17.5 -4.5t-20.5 -15.5t-17.5 -29.5t-8.5 -46.5v-635q1 -28 8.5 -46.5t17.5 -29.5t20.5 -15.5t17.5 -4.5h1v-27q-18 1 -34 5.5t-31 9t-31 8.5t-34 4t-34 -4t-31.5 -8.5t-31.5 -9
t-34 -5.5v27h1q7 0 17.5 4.5t20.5 15.5t17.5 29.5t8.5 46.5v529l-89 -256v-271q2 -8 7 -15t13 -9q-12 -1 -17 -13.5t-6 -23.5q-1 11 -6 23t-16 14q8 2 12 9t7 15v254l-88 -254v-1q1 -28 8.5 -46.5t17.5 -29.5t20.5 -15.5t17.5 -4.5h1v-27q-18 1 -34 5.5t-31 9t-31 8.5t-34 4
t-34 -4t-31.5 -8.5t-31.5 -9t-34 -5.5v27h1q7 0 17.5 4.5t20.5 15.5t17.5 29.5t8.5 46.5v634z" />
    <glyph glyph-name="afii10027" unicode="&#x419;" horiz-adv-x="746" 
d="M208 635q-1 28 -8.5 46.5t-17.5 29.5t-20.5 16t-17.5 5h-1q-8 0 -18.5 -3t-19.5 -10t-15.5 -18.5t-6.5 -28.5q0 -25 17 -42t42 -17q15 0 23 4q-8 -20 -26 -32t-41 -12q-39 0 -60 32q-2 3 -3.5 6.5t-3.5 6.5v1q-8 19 -8 38q0 31 13 50.5t32 31t39.5 16t35.5 4.5
q18 -1 34 -5.5t31.5 -9t31.5 -8.5t34 -4t34 4t31 8.5t31 9t34 5.5v-27h-1q-7 0 -17.5 -5t-20.5 -16t-17.5 -29.5t-8.5 -46.5v-510l88 254v278q-3 8 -7 15t-12 9q11 2 16 14t6 23q1 -11 6 -23.5t17 -13.5q-8 -2 -13 -9t-7 -15v-260l88 253q-3 24 -11 39.5t-17.5 24.5t-19 13
t-15.5 4h-1v27q18 -1 34 -5.5t31 -9t31 -8.5t34 -4t34 4t31.5 8.5t31.5 9t34 5.5v-27h-1q-7 0 -17.5 -4.5t-20.5 -15.5t-17.5 -29.5t-8.5 -46.5v-635q1 -28 8.5 -46.5t17.5 -29.5t20.5 -15.5t17.5 -4.5h1v-27q-18 1 -34 5.5t-31 9t-31 8.5t-34 4t-34 -4t-31.5 -8.5t-31.5 -9
t-34 -5.5v27h1q7 0 17.5 4.5t20.5 15.5t17.5 29.5t8.5 46.5v529l-89 -256v-271q2 -8 7 -15t13 -9q-14 -1 -18.5 -16t-4.5 -26q0 11 -4.5 25.5t-17.5 16.5q8 2 12 9t7 15v254l-88 -254v-1q1 -28 8.5 -46.5t17.5 -29.5t20.5 -15.5t17.5 -4.5h1v-27q-18 1 -34 5.5t-31 9
t-31 8.5t-34 4t-34 -4t-31.5 -8.5t-31.5 -9t-34 -5.5v27h1q7 0 17.5 4.5t20.5 15.5t17.5 29.5t8.5 46.5v634zM550 861q-4 -21 -16 -35t-29 -23t-38 -12.5t-43 -2.5q-23 0 -43.5 5.5t-36 16t-24.5 25t-6 33.5q2 22 17 37.5t38 15.5q16 0 24.5 -9.5t9 -20t-6 -20t-21.5 -9.5
q-17 0 -22 9q-6 -18 5.5 -28.5t31 -15.5t43.5 -4.5t43.5 6.5t29.5 16.5t3 25.5v-1q-8 -8 -21 -8t-19.5 9.5t-6 20t8.5 20t23 9.5q27 0 41.5 -16.5t14.5 -43.5z" />
    <glyph glyph-name="afii10029" unicode="&#x41b;" horiz-adv-x="608" 
d="M385 695q-10 12 -25.5 17t-31.5 4.5t-30 -6.5t-21 -17v-118t-4 -135t-12.5 -142.5t-24.5 -139.5t-41 -125.5t-62 -101.5t-87.5 -66.5t-117.5 -21.5v23q54 -1 98 36t78.5 99.5t60 143.5t41.5 167.5t23 171t5 153.5q-2 54 -22.5 76.5t-45.5 22.5q-9 0 -19.5 -3t-19.5 -9.5
t-15.5 -18t-6.5 -28.5q0 -25 17.5 -42.5t42.5 -17.5q10 0 23 5q-8 -20 -26 -32.5t-41 -12.5q-19 0 -34.5 9t-25.5 24h-1q-2 3 -3.5 6l-3.5 7q-7 15 -7 39q0 31 13 50.5t32 30.5t39.5 15.5t35.5 4.5q15 -1 27 -5.5t23.5 -10t21.5 -9.5t20 -4q16 6 36 9t41 3t41.5 -2.5
t37.5 -7.5q20 -5 36 -5q18 0 34 4t31 8.5t31 9t34 5.5v-30l-1 3q-7 0 -17.5 -4.5t-20.5 -15.5t-17.5 -29.5t-8.5 -46.5v-610q1 -27 8.5 -45.5t17.5 -30t20.5 -16t17.5 -4.5h1v-27q-18 1 -34 5.5t-31 9t-31 8.5t-34 4t-34 -4t-31.5 -8.5t-31.5 -9t-34 -5.5v27h1q7 0 17.5 4.5
t20.5 16t17.5 30t8.5 45.5z" />
    <glyph glyph-name="afii10037" unicode="&#x423;" horiz-adv-x="715" 
d="M318 -89q-18 -2 -38 4t-37 20t-27.5 35t-9.5 50q-1 16 5.5 30t17.5 24.5t25.5 16.5t29.5 5q22 0 38 -12t22 -32q-12 5 -21 5q-23 1 -39.5 -14.5t-17.5 -38.5q0 -15 5.5 -26t14 -17.5t18 -9.5t17.5 -1q26 6 44.5 31.5t34.5 68.5l-183 581q-11 37 -22.5 57t-22.5 29.5
t-20.5 11t-16.5 1.5h-2q-8 0 -18.5 -3t-19.5 -9.5t-15.5 -18t-6.5 -28.5q0 -25 17 -42.5t42 -17.5q9 0 24 5q-8 -20 -26 -32.5t-41 -12.5q-20 0 -35.5 9t-25.5 24q-3 3 -7 13q-8 21 -8 39q0 31 13 50.5t32 30.5t39.5 15.5t35.5 4.5q17 -1 32.5 -5t30 -8t29.5 -8t32 -5h14
q17 1 32 5.5t29.5 9t30 8t32.5 3.5v-27h-2q-7 0 -18 -5t-20 -16.5t-12 -31.5t7 -50l114 -366l108 366q9 30 2.5 50t-19.5 32t-27 17t-21 5h-1l4 27q15 -2 27 -6.5t23.5 -9.5t23.5 -9t27 -4q15 -1 28 2.5t26 7.5t27 8t29 5l-5 -27h-1q-6 0 -20.5 -5.5t-31 -17.5t-32 -31
t-23.5 -46v1l-151 -528q-16 -54 -30.5 -88.5t-30.5 -55t-35 -30t-43 -13.5z" />
    <glyph glyph-name="afii10038" unicode="&#x424;" horiz-adv-x="711" 
d="M287 115q-46 0 -94 22t-87 67.5t-62 114.5t-20 162q2 67 28.5 106t65 55.5t83.5 13t86 -21.5q-1 27 -8.5 45.5t-17.5 30t-20.5 16t-17.5 4.5l-1 27q18 -1 34 -5.5t31.5 -9t31.5 -8.5t34 -4t34 4t31 8.5t31 9t34 5.5l-1 -27q-7 0 -17.5 -4t-20.5 -14.5t-17.5 -28.5
t-8.5 -45q40 18 85.5 21.5t84.5 -13t65.5 -55.5t28.5 -106q3 -93 -20.5 -162t-62 -114.5t-87 -67.5t-94.5 -22v-71q1 -28 8.5 -46.5t17.5 -30t20.5 -16t17.5 -4.5l1 -26q-39 0 -68.5 -9.5t-54 -24t-46.5 -31t-48 -31t-58.5 -24t-76.5 -9.5v24q52 0 83 26t47 62t21 74.5
t5 64.5v1v67zM418 182q34 5 58.5 33.5t40.5 69t23.5 87t7.5 87.5q0 39 -8 71.5t-24 53.5t-40.5 27t-57.5 -10v-419zM287 597q-33 16 -57.5 10t-40 -27t-23.5 -53.5t-8 -71.5q0 -41 7.5 -87.5t23 -87t40 -69t58.5 -33.5v419z" />
    <glyph glyph-name="afii10040" unicode="&#x426;" horiz-adv-x="762" 
d="M216 635q-1 28 -8.5 46.5t-17.5 29.5t-20.5 16t-17.5 5h-1q-8 0 -18.5 -3t-19.5 -10t-15.5 -18.5t-6.5 -28.5q0 -25 17 -42t42 -17q15 0 23 4q-8 -20 -26 -32t-41 -12q-39 0 -60 32q-2 3 -3.5 6.5t-3.5 6.5v1q-8 19 -8 38q0 31 13 50.5t32 31t39.5 16t35.5 4.5
q18 -1 34 -5.5t31.5 -9t31.5 -8.5t34 -4t34 4t31 8.5t31 9t34 5.5v-27h-1q-7 0 -17.5 -5t-20.5 -16t-17.5 -29.5t-8.5 -46.5v-635q6 -49 23 -71q11 -16 30 -23t39 -6v400q-5 24 -18 46t-36 24q23 1 36 22.5t18 47.5v165q-3 8 -7.5 15t-12.5 9q11 2 16 14t6 23q1 -11 6 -23.5
t17 -13.5q-8 -2 -13 -9t-7 -15v-159q4 -26 16 -50t37 -26q-25 -2 -37 -26.5t-16 -50.5v-393q37 2 58 24q9 11 16 29t12 47v635q-1 28 -8.5 46.5t-17.5 29.5t-20.5 15.5t-17.5 4.5h-1v27q18 -1 34 -5.5t31 -9t31 -8.5t34 -4t34 4t31.5 8.5t31.5 9t34 5.5v-27h-1
q-7 0 -17.5 -4.5t-20.5 -15.5t-17.5 -29.5t-8.5 -46.5l1 -690q8 -6 20 -7.5t25 0t25 4.5t21 6q28 10 30.5 0.5t-26.5 -27.5q-24 -17 -38 -42.5t-19 -56t-2 -62.5t14 -61q-28 6 -41 23.5t-18.5 41t-7 48.5t-6.5 45.5t-17 33.5t-38 11q-22 0 -39 -4t-33.5 -9t-34 -9t-40.5 -4
q-22 0 -41 4.5t-37 9.5t-37 9.5t-40 4.5q-18 0 -34 -4t-31.5 -8.5t-31.5 -9t-34 -5.5v27h1q7 0 17.5 4.5t20.5 15.5t17.5 29.5t8.5 46.5v635z" />
    <glyph glyph-name="afii10043" unicode="&#x429;" horiz-adv-x="1071" 
d="M211 635q-1 28 -8.5 46.5t-17.5 29.5t-20.5 16t-17.5 5h-1q-8 0 -18.5 -3t-19.5 -10t-15.5 -18.5t-6.5 -28.5q0 -25 17 -42t42 -17q15 0 23 4q-8 -20 -26 -32t-41 -12q-39 0 -60 32q-2 3 -3.5 6.5t-3.5 6.5v1q-8 19 -8 38q0 31 13 50.5t32 31t39.5 16t35.5 4.5
q18 -1 34 -5.5t31.5 -9t31.5 -8.5t34 -4t34 4t31 8.5t31 9t34 5.5v-27h-1q-7 0 -17.5 -5t-20.5 -16t-17.5 -29.5t-8.5 -46.5v-635q6 -49 23 -71q11 -15 29 -22t38 -7v400q-5 24 -18 46t-36 24q23 1 36 22.5t18 47.5v165q-3 8 -7.5 15t-12.5 9q11 2 16 14t6 23q1 -11 6 -23.5
t17 -13.5q-8 -2 -13 -9t-7 -15v-159q4 -26 16 -50t37 -26q-25 -2 -37 -26.5t-16 -50.5v-393q18 1 34 7t26 17q9 11 16 29t12 47v635q-1 28 -8.5 46.5t-17.5 29.5t-20.5 15.5t-17.5 4.5h-1v27q18 -1 34 -5.5t31.5 -9t31.5 -8.5t34 -4t34 4t31 8.5t31 9t34 5.5v-27h-1
q-7 0 -17.5 -4.5t-20.5 -15.5t-17.5 -29.5t-8.5 -46.5v-635q6 -49 23 -71q11 -16 29.5 -23t38.5 -6v400q-5 24 -18 46t-36 24q23 1 36 22.5t18 47.5v165q-3 8 -7.5 15t-12.5 9q11 2 16 14t6 23q1 -11 6 -23.5t17 -13.5q-8 -2 -13 -9t-7 -15v-159q4 -26 16 -50t37 -26
q-25 -2 -37 -26.5t-16 -50.5v-393q17 1 33 7t26 17q9 11 16 29t12 47v635q-1 28 -8.5 46.5t-17.5 29.5t-20.5 15.5t-17.5 4.5h-1v27q18 -1 34 -5.5t31 -9t31 -8.5t34 -4t34 4t31.5 8.5t31.5 9t34 5.5v-27h-1q-7 0 -17.5 -4.5t-20.5 -15.5t-17.5 -29.5t-8.5 -46.5l1 -690
q8 -6 20 -7.5t25 0t25 4.5t21 6q28 10 30.5 0.5t-26.5 -27.5q-24 -17 -38 -43.5t-19 -57.5t-2 -63.5t14 -61.5q-31 6 -45 24.5t-19.5 42t-6.5 49t-4.5 46.5t-15 34t-37.5 11q-22 0 -39 -4t-33.5 -9t-34 -9t-40.5 -4q-22 0 -41 4t-37.5 9.5t-37.5 9.5t-40 4q-22 0 -40.5 -4
t-37 -9.5t-38 -9.5t-42.5 -4q-22 0 -41 4.5t-37 9.5t-37 9.5t-40 4.5q-18 0 -34 -4t-31.5 -8.5t-31.5 -9t-34 -5.5v27h1q7 0 17.5 4.5t20.5 15.5t17.5 29.5t8.5 46.5v635z" />
    <glyph glyph-name="afii10042" unicode="&#x428;" horiz-adv-x="1065" 
d="M205 635q-1 28 -8.5 46.5t-17.5 29.5t-20.5 16t-17.5 5h-1q-8 0 -18.5 -3t-19.5 -10t-15.5 -18.5t-6.5 -28.5q0 -25 17 -42t42 -17q15 0 23 4q-8 -20 -26 -32t-41 -12q-39 0 -60 32q-2 3 -3.5 6.5t-3.5 6.5v1q-8 19 -8 38q0 31 13 50.5t32 31t39.5 16t35.5 4.5
q18 -1 34 -5.5t31.5 -9t31.5 -8.5t34 -4t34 4t31 8.5t31 9t34 5.5v-27h-1q-7 0 -17.5 -5t-20.5 -16t-17.5 -29.5t-8.5 -46.5v-635q6 -49 23 -71q11 -15 29 -22t38 -7v400q-5 24 -18 46t-36 24q23 1 36 22.5t18 47.5v165q-3 8 -7.5 15t-12.5 9q11 2 16 14t6 23q1 -11 6 -23.5
t17 -13.5q-8 -2 -13 -9t-7 -15v-159q4 -26 16 -50t37 -26q-25 -2 -37 -26.5t-16 -50.5v-393q18 1 34 7t26 17q9 11 16 29t12 47v635q-1 28 -8.5 46.5t-17.5 29.5t-20.5 15.5t-17.5 4.5h-1v27q18 -1 34 -5.5t31.5 -9t31.5 -8.5t34 -4t34 4t31 8.5t31 9t34 5.5v-27h-1
q-7 0 -17.5 -4.5t-20.5 -15.5t-17.5 -29.5t-8.5 -46.5v-635q6 -49 23 -71q12 -17 31.5 -24t40.5 -5v400q-5 24 -18 46t-36 24q23 1 36 22.5t18 47.5v165q-3 8 -7.5 15t-12.5 9q11 2 16 14t6 23q1 -11 6 -23.5t17 -13.5q-8 -2 -13 -9t-7 -15v-159q4 -26 16 -50t37 -26
q-25 -2 -37 -26.5t-16 -50.5v-393q17 2 31.5 8t23.5 16q9 11 16 29t12 47v635q-1 28 -8.5 46.5t-17.5 29.5t-20.5 15.5t-17.5 4.5h-1v27q18 -1 34 -5.5t31 -9t31 -8.5t34 -4t34 4t31.5 8.5t31.5 9t34 5.5v-27h-1q-7 0 -17.5 -4.5t-20.5 -15.5t-17.5 -29.5t-8.5 -46.5v-635
q1 -28 8.5 -46.5t17.5 -29.5t20.5 -15.5t17.5 -4.5h1v-27q-18 1 -35.5 5t-35.5 8.5t-35.5 8t-35.5 3.5q-22 0 -39 -4t-33.5 -9t-34 -9t-40.5 -4q-22 0 -41 4t-37.5 9.5t-37.5 9.5t-40 4q-22 0 -40.5 -4t-37 -9.5t-38 -9.5t-42.5 -4q-22 0 -41 4.5t-37 9.5t-37 9.5t-40 4.5
q-18 0 -34 -4t-31.5 -8.5t-31.5 -9t-34 -5.5v27h1q7 0 17.5 4.5t20.5 15.5t17.5 29.5t8.5 46.5v635z" />
    <glyph glyph-name="afii10041" unicode="&#x427;" horiz-adv-x="738" 
d="M429 -147l-1 391h-6q-78 -8 -131.5 32.5t-73.5 116.5q-9 35 -12 77.5t-3 91.5v72q-1 27 -8.5 45.5t-17.5 29.5t-20.5 16t-17.5 5h-2q-8 0 -18.5 -3t-19.5 -9.5t-15.5 -18t-6.5 -29.5q0 -24 17 -41.5t42 -17.5q9 0 24 5q-8 -20 -26 -32.5t-41 -12.5q-20 0 -35.5 9
t-25.5 23q-4 7 -7 14q-8 21 -8 38q0 31 13 50.5t32 31t39.5 16t35.5 4.5q18 -1 34 -5.5t31.5 -9t31.5 -8.5t34 -4t34 4t31.5 8.5t31.5 9t34 5.5v-27h-2q-7 0 -17.5 -5t-20.5 -16t-17.5 -29.5t-8.5 -45.5v-95q-1 -23 0.5 -50t5.5 -54.5t11 -53.5t18 -46q13 -25 28.5 -36
t32.5 -12v162q-5 24 -18 46t-36 24q23 1 36 22.5t18 47.5v103q-3 8 -7.5 15t-12.5 9q11 2 16 14t6 23q1 -11 6 -23.5t17 -13.5q-8 -2 -13 -9t-7 -15v-97q4 -26 16 -50t37 -26q-25 -2 -37 -26.5t-16 -50.5v-155q18 1 34.5 13.5t29.5 33t20.5 47.5t6.5 57v196q-1 27 -8.5 45.5
t-17.5 30t-20.5 16t-17.5 4.5l-1 27q18 -1 34 -5.5t31.5 -9t31.5 -8.5t34 -4t34 4t31 8.5t31 9t34 5.5l-1 -27q-7 0 -17.5 -4t-20.5 -14.5t-17.5 -28.5t-8.5 -45v-590q1 -28 8.5 -46.5t17.5 -30t20.5 -16t17.5 -4.5l1 -26q-40 0 -69 -9.5t-53.5 -24t-46.5 -31t-48 -31
t-58.5 -24t-76.5 -9.5v24q52 0 83 26t47 62t21 74.5t5 64.5v270q-14 -34 -38 -50.5t-53 -21.5l1 -392h-5z" />
    <glyph glyph-name="afii10046" unicode="&#x42c;" horiz-adv-x="530" 
d="M223 -13q11 -2 29.5 -3.5t39 7.5t40.5 33t33 72q5 30 6.5 62.5t1.5 77.5q0 35 -2.5 67.5t-8 59t-14.5 45.5t-23 27q-10 6 -23 6.5t-27 -2t-27.5 -7t-24.5 -8.5v-437zM92 635q-1 28 -8.5 46.5t-17.5 29.5t-20.5 15.5t-17.5 4.5h-1v27q18 -1 34 -5.5t31 -9t31 -8.5t34 -4
t34 4t31.5 8.5t31.5 9t34 5.5v-27h-1q-7 0 -17.5 -4.5t-20.5 -15.5t-17.5 -29.5t-8.5 -46.5v-176q37 10 78 19t78.5 4t68 -30.5t45.5 -84.5q6 -35 8 -82.5t-1.5 -97.5t-13 -98.5t-25.5 -85.5q-20 -48 -46 -73.5t-50 -39.5q-14 -8 -28.5 -13t-28.5 -7q-23 17 -52.5 34.5
t-58.5 24.5q-8 2 -15.5 3.5t-15.5 1.5q-30 0 -59 -8q-11 -3 -21.5 -6.5t-21.5 -6.5q-22 -5 -37 -5v27h1q7 0 17.5 4.5t20.5 15.5t17.5 29.5t8.5 46.5v606v-2z" />
    <glyph glyph-name="afii10045" unicode="&#x42b;" horiz-adv-x="807" 
d="M223 -13q11 -2 29.5 -3.5t39 7.5t40.5 33t33 72q5 30 6.5 62.5t1.5 77.5q0 35 -2.5 67.5t-8 59t-14.5 45.5t-23 27q-10 6 -23 6.5t-27 -2t-27.5 -7t-24.5 -8.5v-437zM92 635q-1 28 -8.5 46.5t-17.5 29.5t-20.5 15.5t-17.5 4.5h-1v27q18 -1 34 -5.5t31 -9t31 -8.5t34 -4
t34 4t31.5 8.5t31.5 9t34 5.5v-27h-1q-7 0 -17.5 -4.5t-20.5 -15.5t-17.5 -29.5t-8.5 -46.5v-176q37 10 78 19t78.5 4t68 -30.5t45.5 -84.5q6 -35 8 -82.5t-1.5 -97.5t-13 -98.5t-25.5 -85.5q-20 -48 -46 -73.5t-50 -39.5q-14 -8 -28.5 -13t-28.5 -7q-23 17 -52.5 34.5
t-58.5 24.5q-8 2 -15.5 3.5t-15.5 1.5q-30 0 -59 -8q-11 -3 -21.5 -6.5t-21.5 -6.5q-22 -5 -37 -5v27h1q7 0 17.5 4.5t20.5 15.5t17.5 29.5t8.5 46.5v606v-2zM712 0q1 -28 8.5 -46.5t17.5 -29.5t20.5 -15.5t17.5 -4.5h1v-27q-18 1 -34 5.5t-31 9t-31 8.5t-34 4t-34 -4
t-31.5 -8.5t-31.5 -9t-34 -5.5v27h1q7 0 17.5 4.5t20.5 15.5t17.5 29.5t8.5 46.5v635q-1 28 -8.5 46.5t-17.5 29.5t-20.5 15.5t-17.5 4.5h-1v27q18 -1 34 -5.5t31 -9t31 -8.5t34 -4t34 4t31.5 8.5t31.5 9t34 5.5v-27h-1q-7 0 -17.5 -4.5t-20.5 -15.5t-17.5 -29.5t-8.5 -46.5
v-635z" />
    <glyph glyph-name="afii10044" unicode="&#x42a;" horiz-adv-x="674" 
d="M367 -13q11 -2 29.5 -3.5t39 7.5t40.5 33t33 72q5 30 6.5 62.5t1.5 77.5q0 35 -2.5 67.5t-8 59t-14.5 45.5t-23 27q-10 6 -23 6.5t-27 -2t-27.5 -7t-24.5 -8.5v-437zM16 758h155q18 -1 34 -5.5t31 -9t31 -8.5t34 -4t34 4t31.5 8.5t31.5 9t34 5.5v-27h-1q-7 0 -17.5 -4.5
t-20.5 -15.5t-17.5 -29.5t-8.5 -46.5v-176q37 10 78 19t78.5 4t68 -30.5t45.5 -84.5q6 -35 8 -82.5t-1.5 -97.5t-13 -98.5t-25.5 -85.5q-20 -48 -46 -73.5t-50 -39.5q-14 -8 -28.5 -13t-28.5 -7q-23 17 -52.5 34.5t-58.5 24.5q-8 2 -15.5 3.5t-15.5 1.5q-30 0 -59 -8
q-11 -3 -21.5 -6.5t-21.5 -6.5q-22 -5 -37 -5v27h1q7 0 17.5 4.5t20.5 15.5t17.5 29.5t8.5 46.5v606v-4q0 13 -2.5 28t-7.5 26.5t-14.5 16t-22.5 -2.5q-15 -8 -23.5 -25.5t-14 -39t-9 -45t-8 -44t-11 -35.5t-18.5 -20q11 39 5.5 78.5t-20.5 72.5t-35.5 56.5t-38.5 31.5v27z
" />
    <glyph glyph-name="afii10065" unicode="&#x430;" horiz-adv-x="465" 
d="M435 21v-21q-14 0 -26 3.5t-24 7.5t-24 7t-26 3t-26.5 -3t-24 -7t-24 -7.5t-26.5 -3.5v21h4q7 1 14 5.5t12.5 13.5t7.5 22t-1 32l-35 167l-32 -10t-34 -7q-13 -2 -24 -1.5t-21 2.5l-24 -145q-4 -24 3 -39t18 -24t22 -12.5t16 -3.5h1v-21q-11 0 -21 3.5t-19 7.5t-19 7
t-21 3t-21 -3t-19.5 -7t-19.5 -7.5t-21 -3.5v21h1q4 0 15 5t22.5 14.5t21.5 24.5t13 36v-1l26 152q-16 4 -24.5 14t-13 20.5t-5.5 20t-1 12.5q6 -11 18.5 -19t31.5 -11l44 263q4 24 1 39.5t-9 24.5t-13.5 13t-12.5 4h-2v21q27 -2 48 -10.5t47 -10.5h12q26 2 47 10.5t47 10.5
v-21h-1q-5 0 -13 -3.5t-14 -12.5t-8.5 -24.5t3.5 -39.5l-1 4l44 -214q18 3 36.5 -1t33.5 -15t24.5 -28t9.5 -38q-6 8 -17.5 14t-24 9t-26 3t-23.5 -3l42 -203q6 -26 18 -43t37 -17h1zM133 288q32 5 53 15t37 19l-47 226z" />
    <glyph glyph-name="afii10067" unicode="&#x432;" horiz-adv-x="405" 
d="M359 325q2 -68 0 -127t-16.5 -103t-46.5 -69.5t-90 -25.5q-14 0 -26 3.5t-24 7.5t-24 7t-26 3t-26.5 -3t-24.5 -7t-24 -7.5t-26 -3.5v21h1q5 0 13 3.5t16 12t13.5 22.5t6.5 36v464q-1 21 -6.5 35.5t-13.5 22.5t-16 12t-13 4h-1v21q14 -1 26 -4.5l24 -7t24.5 -6.5t26.5 -3
t26 3t24 6.5l24 7t26 4.5h27q21 0 41.5 -3.5t37 -13t26.5 -25.5t10 -41q0 -27 -8.5 -47t-23 -34.5t-33 -23.5t-38.5 -15q17 1 36.5 -2.5t36.5 -16.5t28.5 -38.5t12.5 -68.5zM156 486q36 11 54 30.5t22.5 39t-1 36t-15.5 22.5q-8 5 -18.5 6t-18.5 0q-10 -1 -17 -5l-6 -3v-126
zM156 91q33 -7 53 3.5t31 35t15 61.5t4 85q0 106 -42 132q-15 8 -26 7t-19 -6q-9 -5 -16 -14v-304z" />
    <glyph glyph-name="afii10068" unicode="&#x433;" horiz-adv-x="386" 
d="M356 654v-21q-8 -1 -15 -5t-13 -9q-14 -14 -21.5 -36.5t-9.5 -40.5v-3q-4 -30 3 -59.5t24 -52.5q-36 8 -50.5 31t-19.5 50.5t-7 54.5t-13 42q-5 8 -21 13t-39 -6q-14 -10 -18.5 -26t-4.5 -29v-462q1 -22 7 -36t13.5 -22.5t15.5 -12t13 -3.5h1v-21q-14 0 -26 3.5l-24 7
l-24 7t-26 3.5t-26.5 -3.5t-24.5 -7l-24 -7t-26 -3.5v21h1q5 0 13.5 3.5t16.5 12t13.5 22.5t5.5 36v464q-1 21 -7 35t-13.5 23t-15.5 12.5t-13 3.5h-1v21q14 -1 26 -4.5l24 -7t24.5 -6.5t26.5 -3q27 0 48.5 9.5t48.5 11.5h158z" />
    <glyph glyph-name="afii10070" unicode="&#x435;" horiz-adv-x="387" 
d="M298 542q-1 0 -1 -2q-4 -30 3 -60t24 -53q-30 7 -43.5 24t-19.5 38.5t-7 44t-4.5 41.5t-13 31.5t-32.5 12.5q-17 0 -27.5 -6.5t-16 -16t-7.5 -20t-2 -18.5v-188q14 10 31 17t40 7q9 0 19.5 -2.5t22 -10t23.5 -22.5t24 -40q-24 22 -43.5 23t-38 -8.5t-37.5 -25t-41 -27.5
v-185q0 -11 2.5 -22t8.5 -20q8 -11 20 -15.5t25 -4.5h3l10 1q26 3 41.5 20t21 40.5t3 48.5t-13 44.5t-28 29.5t-40.5 2l5 7q11 16 30 17.5t38.5 1.5t36.5 6.5t25 33.5q6 -12 10 -29t5.5 -35.5t1.5 -37.5t-1 -35q-2 -27 -10.5 -53.5t-26 -48t-45 -34.5t-67.5 -13h-5
q-7 0 -17.5 2t-21 5t-19 5.5t-11.5 3.5q-18 5 -31 5q-14 0 -26.5 -3.5t-24.5 -7l-24 -7t-26 -3.5v21h1q5 0 13 3.5t15.5 12t13.5 22.5t7 36v188q-5 4 -9 7.5t-9 7.5q-14 15 -21 33.5t-11 27.5q5 -6 18.5 -14.5t31.5 -12.5v227q-1 21 -7 35t-13.5 23t-15.5 12.5t-13 3.5h-1
v21q14 -1 26 -4.5l24 -7t24.5 -6.5t26.5 -3t26 3t24 6.5l24 7t26 4.5h156v-21q-8 -1 -15 -5t-13 -9q-14 -14 -21.5 -36.5t-9.5 -40.5z" />
    <glyph glyph-name="afii10078" unicode="&#x43c;" horiz-adv-x="582" 
d="M551 633q-5 0 -13 -4t-16 -12t-13.5 -22.5t-6.5 -35.5v-464q1 -22 6.5 -36t13.5 -22.5t16 -12t13 -3.5h1v-21q-14 0 -26 3.5t-24 7.5t-24.5 7t-26.5 3t-26 -3t-24 -7t-24 -7.5t-26 -3.5v21h1q5 0 13 3.5t16 12t13.5 22.5t6.5 36v445l-101 -281q6 -39 1 -80t-23 -78
q-8 -17 -18.5 -27t-20.5 -15q-11 -6 -23 -8l3 3q5 6 15 22t12 43.5t-11 69t-54 100.5q-15 19 -30 43.5t-27.5 52t-20.5 57.5t-9 62v-403q0 -18 8.5 -32.5t20 -25t22 -16.5t15.5 -6h1v-21q-11 0 -21 3.5t-19.5 7.5t-19.5 7t-21 3t-21 -3t-19 -7t-19 -7.5t-21 -3.5v21
q5 0 16 6t22 16.5t19.5 25t8.5 32.5v452q0 18 -8.5 32.5t-20 25t-22.5 16.5t-15 6v21q11 -1 21 -4.5t19 -7t19 -6.5t21 -3q10 0 19 2.5t17 5.5l10 4t9 3t8 3q0 -17 1 -32t3 -29q8 -59 28.5 -99.5t44.5 -74.5q7 -10 27 -39.5t36 -63.5l1 5l101 294l12 32q6 -2 12.5 -4
t13.5 -4q13 -3 28 -3q28 0 50.5 9.5t50.5 11.5v-21h-1z" />
    <glyph glyph-name="afii10079" unicode="&#x43d;" horiz-adv-x="450" 
d="M419 633q-5 0 -13 -4t-16 -12t-13.5 -22.5t-6.5 -35.5v-187q10 -8 20 -19.5t20 -28.5q-19 14 -40 20v-249q1 -22 6.5 -36t13.5 -22.5t16 -12t13 -3.5h1v-21q-14 0 -26 3.5t-24 7.5t-24.5 7t-26.5 3t-26 -3t-24 -7t-24 -7.5t-26 -3.5v21h1q5 0 13 3.5t16 12t13.5 22.5
t6.5 36v226q-23 -13 -47.5 -26t-53.5 -19q-5 -1 -9 -1t-8 -1v-179q1 -22 6.5 -36t13.5 -22.5t16 -12t13 -3.5h1v-21q-14 0 -26 3.5t-24 7.5t-24 7t-26 3t-26.5 -3t-24.5 -7t-24 -7.5t-26 -3.5v21h1q5 0 13 3.5t16 12t13.5 22.5t6.5 36v205l-4 3q-17 15 -27 33.5t-15 27.5
q5 -5 17 -11t29 -11v217q-1 21 -6.5 35.5t-13.5 22.5t-16 12t-13 4h-1v21q14 -1 26 -4.5l24 -7t24.5 -6.5t26.5 -3t26 3t24 6.5l24 7t26 4.5v-21h-1q-5 0 -13 -4t-16 -12t-13.5 -22.5t-6.5 -35.5v-211q13 6 26.5 13.5t27.5 15t29.5 13t34.5 8.5v161q-1 21 -6.5 35.5
t-13.5 22.5t-16 12t-13 4h-1v21q14 -1 26 -4.5l24 -7t24 -6.5t26 -3q28 0 50.5 9.5t50.5 11.5v-21h-1z" />
    <glyph glyph-name="afii10080" unicode="&#x43e;" horiz-adv-x="408" 
d="M198 662q28 0 59 -20t57 -61.5t42.5 -105t16.5 -149.5t-16.5 -149.5t-42.5 -104.5t-57 -61t-59 -20q-29 0 -60 20t-56.5 61t-42.5 104.5t-17 149.5t17 149.5t42.5 105t56.5 61.5t60 20zM198 19q12 0 23 25t20 67t14.5 97.5t5.5 117.5q0 18 -0.5 35t-1.5 34q-23 -6 -47 1
t-41 31q23 -3 38 6.5t23.5 27t10 39.5t-2.5 45q-9 42 -20 66t-22 24q-12 0 -23.5 -25t-20 -67.5t-14 -98.5t-5.5 -118q0 -29 1 -57.5t3 -54.5q23 9 49.5 3t46.5 -32q-23 3 -38.5 -6.5t-23.5 -27t-10 -40t2 -44.5q8 -23 16 -35.5t17 -12.5z" />
    <glyph glyph-name="afii10081" unicode="&#x43f;" horiz-adv-x="450" 
d="M420 633h-1q-5 0 -13 -3.5t-15.5 -12.5t-13.5 -23t-7 -35v-464q1 -22 7 -36t13.5 -22.5t15.5 -12t13 -3.5h1v-21q-14 0 -26 3.5l-24 7t-24.5 7t-26.5 3.5t-26 -3.5l-24 -7l-24 -7t-26 -3.5v21h1q5 0 13 3.5t15.5 12t13.5 22.5t7 36v464q-1 29 -17 50.5t-46 18.5
q-28 -3 -40.5 -21.5t-14.5 -47.5v-464q1 -22 7 -36t13.5 -22.5t15.5 -12t13 -3.5h1v-21q-14 0 -26 3.5l-24 7l-24 7t-26 3.5t-26.5 -3.5t-24.5 -7l-24 -7t-26 -3.5v21h1q5 0 13 3.5t15.5 12t13.5 22.5t7 36v464q-1 21 -7 35t-13.5 23t-15.5 12.5t-13 3.5h-1v21
q14 -1 26 -4.5l24 -7t24.5 -6.5t26.5 -3q13 0 25 3.5t25 7.5t26.5 7.5t29.5 3.5q17 0 31 -3.5t27 -7.5t26 -7.5t28 -3.5q14 0 26 3t24 6.5t24.5 7t26.5 4.5v-21z" />
    <glyph glyph-name="afii10082" unicode="&#x440;" horiz-adv-x="373" 
d="M343 571q0 -30 -10.5 -49t-27.5 -34q-12 -10 -25.5 -18.5l-27 -17t-27 -17.5t-25.5 -21q-15 -15 -21.5 -28t-8.5 -23v-11.5t2 -10.5q5 -16 13.5 -22.5t16.5 -9.5q-1 0 -2 -1q-2 -2 -4 -2q-13 -3 -24 1.5t-21 12.5v-225q1 -22 7 -36t13.5 -22.5t15.5 -12t13 -3.5h1v-21
q-14 0 -26 3.5l-24 7l-24 7t-26 3.5t-26.5 -3.5t-24.5 -7l-24 -7t-26 -3.5v21h1q5 0 13 3.5t15.5 12t13.5 22.5t7 36v464q-1 21 -7 35t-13.5 23t-15.5 12.5t-13 3.5h-1v21q14 -1 26 -4.5l24 -7t24.5 -6.5t26.5 -3t26 3t24 6.5l24 7t26 4.5h27q20 0 39.5 -3.5t35.5 -12
t26.5 -23t12.5 -36.5zM151 402q3 9 13 25.5t22 36t23.5 41.5t16.5 42.5t2 38t-21 28.5q-8 5 -16.5 6t-16.5 0q-11 -2 -17 -5l-6 -3v-210z" />
    <glyph glyph-name="afii10083" unicode="&#x441;" horiz-adv-x="376" 
d="M266 462v-50q4 -20 14 -38t29 -18q-19 0 -29 -18t-14 -38v-161q-2 0 -4 -1v162q-3 20 -13.5 38t-29.5 18q19 0 29.5 18t13.5 38v64q-1 31 -7 58t-15.5 46.5t-20.5 31t-23 12.5h-3q-12 0 -21 -30q-11 -38 -15.5 -110t-4.5 -159q0 -60 2 -114t7 -95t13 -65t20 -24
t20.5 27.5t13.5 75.5q12 -2 27 -0.5t31 7t31.5 16.5t28.5 29q-2 -13 -5.5 -25t-7.5 -22q-26 -69 -64.5 -102t-74.5 -33q-28 0 -58 19.5t-55 59.5t-41 101.5t-16 144.5q0 103 23.5 172.5t56.5 107.5q21 24 47 37q16 9 26.5 11t15.5 1q12 -1 21.5 -5.5t24.5 -7.5t39.5 -1
t67.5 14v-21q-15 -2 -29 -16.5t-25 -38t-18 -53.5t-7 -63h-1z" />
    <glyph glyph-name="afii10084" unicode="&#x442;" horiz-adv-x="466" 
d="M435 654q-10 -29 -18 -60t-13 -64q-10 -57 -12 -130.5t17 -152.5q-51 78 -70 152.5t-19 134.5q27 9 37.5 29.5t6 38.5t-21.5 26.5t-44 -5.5q-10 -8 -18 -23t-9 -41v-464q1 -22 7 -36t13.5 -22.5t15.5 -12t13 -3.5h1v-21q-14 0 -26 3.5l-24 7l-24 7t-26 3.5t-26.5 -3.5
t-24.5 -7l-24 -7t-26 -3.5v21h1q5 0 13 3.5t15.5 12t13.5 22.5t7 36v464q-1 25 -8 40t-16 23q-28 17 -46 8.5t-22.5 -27t5.5 -39.5t38 -30q0 -60 -19 -134.5t-70 -152.5q18 79 16.5 152.5t-11.5 130.5q-5 33 -13 64t-19 60h132q14 -1 23.5 -4.5t18 -7t18.5 -6.5t24 -3
t26 3.5l24 7t23.5 7t25.5 3.5h115z" />
    <glyph glyph-name="afii10087" unicode="&#x445;" horiz-adv-x="454" 
d="M335 97q9 -25 17 -40t15.5 -23t14.5 -10.5t12 -2.5h1v-21q-26 1 -47.5 10t-47.5 10h-11q-26 -1 -47 -10t-48 -10v21h1q5 0 12 3.5t12 12.5t6.5 24.5t-3.5 39.5l-48 136l-43 -92q-28 -59 -41.5 -99t-14.5 -68t9.5 -47.5t31.5 -38.5q-23 11 -49.5 8.5t-50.5 -14.5
t-43.5 -30.5t-29.5 -38.5l177 370l41 87l-100 283q-9 24 -17.5 39t-16 23t-14 11t-11.5 3h-2v21q26 -2 47.5 -10.5t47.5 -10.5h11q26 2 47.5 10.5t47.5 10.5v-21h-1q-5 0 -12.5 -4.5t-13 -13.5t-6.5 -24.5t7 -37.5l55 -155l49 108q27 59 39.5 99.5t13 68.5t-10.5 47.5
t-32 37.5q23 -11 49 -7.5t50 15.5t43.5 31t28.5 39l-169 -373l-48 -104z" />
    <glyph glyph-name="afii10066" unicode="&#x431;" horiz-adv-x="405" 
d="M357 633q-21 -8 -35 -27t-20 -41.5t-4 -43.5t11 -33q-21 2 -31 12.5t-15 25t-7 31t-6.5 30.5t-14.5 23t-31 9q-16 0 -26 -6.5t-16 -15.5t-8 -20t-2 -20v-120q23 8 50.5 15t53.5 7q27 0 46 -9t31 -32t17.5 -63t5.5 -103q0 -54 -5.5 -100.5t-22 -80t-46.5 -52.5t-80 -19
q-14 0 -26 3.5l-24 7l-24 7t-26 3.5t-26.5 -3.5t-24.5 -7l-24 -7t-26 -3.5l1 21q5 0 13 3.5t15.5 12t13.5 22.5t7 36v464q-1 21 -7 35t-13.5 23t-15.5 12.5t-13 3.5l-1 21q14 -1 26 -4.5l24 -7t24.5 -6.5t26.5 -3q27 0 48.5 9.5t48.5 11.5h158v-21zM152 91q12 -3 23 -3
q25 0 40.5 13.5t24.5 38t12 59t3 77.5q0 28 -3.5 52.5t-11 43t-19 29t-27.5 10.5q-19 0 -42 -16v-304z" />
    <glyph glyph-name="afii10069" unicode="&#x434;" horiz-adv-x="432" 
d="M236 594q-10 12 -22 17t-24 4t-22 -7t-17 -17q3 -113 -4 -202t-21 -156t-33 -114.5t-39 -78.5h182v554zM72 633v21q14 -1 24.5 -4.5t20 -7t20.5 -6.5t25 -3q16 6 28 9t23 3t23 -2.5t29 -7.5q9 -2 10 -3.5t10 -1.5q14 0 26.5 3t24.5 6.5l24 7t26 4.5v-21h-1q-5 0 -13 -3.5
t-15.5 -12.5t-13.5 -23t-7 -35v-511h82v-24q-18 -8 -32.5 -29t-21 -49.5t-5 -62.5t15.5 -67q-23 4 -34 20t-16 37.5t-8.5 45t-12 43t-26.5 31.5t-51 10h-80q-34 2 -51.5 -9.5t-27 -30.5t-13.5 -42t-9.5 -44.5t-17 -38.5t-34.5 -23q15 37 17.5 71.5t-4 62t-20.5 47t-32 27.5
l1 24h55q28 28 50.5 84.5t37.5 128.5t21 152.5t2 157.5q-1 21 -7 34t-14 20t-16 9.5t-12 2.5h-1z" />
    <glyph glyph-name="afii10072" unicode="&#x436;" horiz-adv-x="538" 
d="M316 444v-350q1 -21 7 -35t13.5 -23t15.5 -12.5t13 -3.5h1v-21q-14 1 -26 4.5l-24 7t-24 6.5t-26 3t-26 -3t-24 -6.5l-24 -7t-26 -4.5v21h1q5 0 13 3.5t15.5 12.5t13.5 23t7 35v350h-18q-29 -2 -39 -11t-10 -20v-46q-11 -102 -35.5 -176.5t-53 -123t-56.5 -72t-45 -22.5
q21 4 37.5 27.5t28.5 60.5t21 84t14.5 97t9 99.5t4.5 91.5q2 0 5.5 -1t10.5 -1q8 0 17 3.5t18 8l17 8.5t14 4h21q-41 4 -65 20t-37.5 38t-20 46.5t-12.5 45t-14.5 34t-26.5 13.5q20 0 34.5 -4.5t26.5 -12.5q24 -16 37.5 -41t26.5 -49t29 -41t43 -17h18v71q-1 21 -7 35
t-13.5 23t-15.5 12.5t-13 3.5h-1v21q14 0 26 -3.5l24 -7l24 -7t26 -3.5t26 3.5l24 7l24 7t26 3.5v-21h-1q-5 0 -13 -3.5t-15.5 -12.5t-13.5 -23t-7 -35v-71h15q27 0 43 17t28.5 41t26.5 49t38 41q12 8 26.5 12.5t34.5 4.5q-18 0 -26.5 -13.5t-14.5 -34t-12.5 -45t-20 -46.5
t-37.5 -38t-65 -20h21q6 0 14 -4l17 -8.5t18 -8t17 -3.5q7 0 10.5 1t5.5 1v-10.5t1 -15.5q0 -6 1 -34.5t3.5 -71t7 -95t12 -106.5t18 -105.5t24.5 -93t32 -68t41 -30.5q-21 -1 -57 32t-71 102.5t-61 176t-26 253.5v46q0 11 -10 20t-39 11h-15z" />
    <glyph glyph-name="afii10076" unicode="&#x43a;" horiz-adv-x="379" 
d="M276 407q0 -7 1 -35.5t4 -71t7.5 -94.5t11.5 -105.5t17.5 -105t24.5 -93t32 -68.5t41 -31q-21 -1 -57 32t-71 102.5t-61 176t-26 253.5v46q0 11 -10 20t-39 11v-350q1 -21 6.5 -35.5t13.5 -22.5t16 -12t13 -4h1v-21q-14 1 -26 4t-24 7t-24 7t-26 3t-26.5 -3t-24.5 -7
t-24 -7t-26 -4v21h1q5 0 13 4t16 12t13.5 22.5t6.5 35.5v464q-1 21 -6.5 35.5t-13.5 22.5t-16 12t-13 4h-1v21q14 0 26 -3.5t24 -7.5t24.5 -7t26.5 -3t26 3t24 7t24 7.5t26 3.5v-21h-1q-5 0 -13 -4t-16 -12t-13.5 -22.5t-6.5 -35.5v-71q27 0 43 17.5t28.5 41t26.5 48.5
t38 41q12 8 26.5 12.5t34.5 4.5q-18 0 -26.5 -13.5t-14.5 -34t-12.5 -44.5t-20 -46t-37.5 -38.5t-65 -20.5h21q6 0 14 -4l17 -8.5t18 -8t17 -3.5q7 0 10.5 1t5.5 1v-10.5t1 -15.5z" />
    <glyph glyph-name="afii10073" unicode="&#x437;" horiz-adv-x="382" 
d="M173 -2q-39 -2 -68.5 10t-50 32.5t-30.5 48t-10 57.5q0 29 12 55t32.5 42.5t46.5 20t54 -12.5q-21 -5 -35 -24t-21.5 -44.5t-7.5 -54t8.5 -52t25 -39t41.5 -14.5q32 8 51.5 36.5t28.5 65.5t7.5 78.5t-10.5 76t-26 56.5t-40 22q-5 0 -13 -2.5t-16.5 -7t-16 -11
t-10.5 -13.5v87q3 -8 10.5 -12.5t16 -7.5t16 -3.5t12.5 -0.5q17 2 30 20t20 43.5t7.5 55t-7 55t-23.5 43.5t-41 19q-23 1 -36 -11t-20 -29.5t-9 -36t-4 -28.5q-2 -14 -5 -29t-9 -28.5t-16 -24t-24 -14.5q14 25 20 61t2 67q-1 12 -4 26.5t-9 27.5t-14.5 22t-20.5 11v20
q47 -15 73.5 -13.5t46.5 6.5q24 8 55 8.5t56 -4.5q45 -8 70 -43.5t30 -80.5q2 -24 -3 -47.5t-17.5 -44t-31 -36.5t-43.5 -25q48 -11 78 -50.5t32 -97.5q1 -44 -7 -85t-29.5 -73t-58.5 -52t-95 -21z" />
    <glyph glyph-name="afii10074" unicode="&#x438;" horiz-adv-x="450" 
d="M269 95v363l-118 -374q2 -15 6 -25q6 -14 14 -22.5t16 -12t13 -3.5h1v-21q-14 0 -26 3.5t-24 7.5t-24 7t-26 3t-26.5 -3t-24.5 -7t-24 -7.5t-26 -3.5v21h1q5 0 13 3.5t16 12t13.5 22.5t6.5 36v464q-1 21 -6.5 35.5t-13.5 22.5t-16 12t-13 4h-1v21q14 -1 26 -5l24 -7
q12 -3 24.5 -6t26.5 -3t26 3l24 6l24 7q12 4 26 5v-21h-1q-5 0 -13 -4t-16 -12t-13.5 -22.5t-6.5 -35.5v-359l117 371q-2 13 -6 23q-5 15 -13 23t-16 12t-13 4h-1v21q14 -1 26 -5l24 -7l24 -6t26 -3q28 0 50.5 9.5t50.5 11.5v-21h-1q-5 0 -13 -4t-16 -12t-13.5 -22.5
t-6.5 -35.5v-464q1 -22 6.5 -36t13.5 -22.5t16 -12t13 -3.5h1v-21q-14 0 -26 3.5t-24 7.5t-24.5 7t-26.5 3t-26 -3t-24 -7t-24 -7.5t-26 -3.5v21h1q5 0 13 3.5t16 12t13.5 22.5t6.5 36z" />
    <glyph glyph-name="afii10075" unicode="&#x439;" horiz-adv-x="450" 
d="M269 95v363l-118 -374q1 -14 6 -25q9 -21 22 -29.5t21 -8.5h1v-21q-14 0 -26 3.5l-24 7l-24 7t-26 3.5t-26.5 -3.5t-24.5 -7l-24 -7t-26 -3.5v21h1q5 0 13 3.5t15.5 12t13.5 22.5t7 36v464q-1 21 -7 35t-13.5 23t-15.5 12.5t-13 3.5h-1v21q7 -1 13.5 -2t12.5 -3l24 -7
q12 -3 24.5 -6t26.5 -3t26 3l24 6l24 7q6 2 12.5 3t13.5 2v-21h-1q-5 0 -13 -3.5t-15.5 -12.5t-13.5 -23t-7 -35v-359l117 371q-1 12 -6 23q-8 22 -21 30.5t-21 8.5h-1v21q7 -1 13.5 -2t12.5 -3l24 -7l24 -6t26 -3t26 3t24 6.5t24.5 7t26.5 4.5v-21h-1q-5 0 -13 -3.5
t-15.5 -12.5t-13.5 -23t-7 -35v-464q1 -22 7 -36t13.5 -22.5t15.5 -12t13 -3.5h1v-21q-14 0 -26 3.5l-24 7t-24.5 7t-26.5 3.5t-26 -3.5l-24 -7l-24 -7t-26 -3.5v21h1q5 0 13 3.5t15.5 12t13.5 22.5t7 36zM327 767q-8 -37 -41 -55.5t-76 -16.5q-21 0 -41 6t-35 16.5t-23 25
t-5 31.5q2 20 17.5 34t37.5 14q15 0 23 -8.5t8.5 -18.5t-6 -18.5t-20.5 -8.5q-17 0 -21 9q-6 -15 4.5 -25t28 -15t39 -4.5t39 5.5t27 14.5t3.5 24.5v-1q-8 -8 -20 -8q-13 0 -19 8.5t-5.5 18.5t8 18.5t21.5 8.5q26 0 41 -15t15 -40z" />
    <glyph glyph-name="afii10077" unicode="&#x43b;" horiz-adv-x="440" 
d="M-27 70q-1 20 4.5 35t14.5 24.5t21 13t24 2.5q17 0 25.5 -9.5t13.5 -25.5q-10 6 -19.5 4t-16 -9t-10.5 -17.5t-4 -22.5q2 -18 11 -27t23 -4q17 9 25.5 29.5t16.5 47.5q12 40 20.5 94.5t14.5 111t9 109t3 88.5q0 43 -3.5 68.5t-9.5 39t-14.5 17.5t-18.5 4l-1 21
q14 -1 21.5 -4.5t13.5 -7t13.5 -6.5t21.5 -3q33 12 61 12t59 -10q9 -2 10 -3.5t10 -1.5q14 0 26.5 3t24.5 6.5l24 7t26 4.5l-1 -21q-5 0 -13 -3.5t-15.5 -12.5t-13.5 -23t-7 -35v-461q0 -22 5.5 -36t13.5 -22.5t16.5 -12t13.5 -3.5h1v-21q-14 0 -26 3.5t-24 7.5t-24 7t-26 3
t-26.5 -3t-24.5 -7t-24 -7.5t-26 -3.5v21h1q5 0 13.5 3.5t16.5 12t13.5 22.5t5.5 36l1 -5v504q-9 11 -20.5 16t-23.5 5t-23 -6t-18 -18q1 -33 0 -75.5t-3.5 -89t-6.5 -95t-10 -93.5t-13.5 -84.5t-16.5 -68.5q-5 -15 -11 -32t-15.5 -31t-23 -23t-33.5 -9q-12 -2 -25 2.5
t-23.5 13.5t-17 22.5t-6.5 31.5z" />
    <glyph glyph-name="afii10085" unicode="&#x443;" horiz-adv-x="463" 
d="M64 558q-17 48 -33.5 62t-25.5 14h-5v21q25 -2 47 -10.5t47 -10.5h10q25 2 45 10.5t45 10.5v-21h-1q-5 0 -12 -4t-12.5 -13.5t-6.5 -25t7 -37.5l90 -291l89 292q7 23 1.5 38.5t-15.5 25.5t-21.5 14t-17.5 4l3 21q23 -3 40 -12.5t40 -11.5t43 6.5t44 9.5l-5 -22h-1
q-4 0 -15 -3.5t-24.5 -12.5t-26 -23.5t-18.5 -35.5v1l-124 -419q-15 -48 -28.5 -76.5t-27.5 -43.5q-11 -11 -23.5 -16.5t-26.5 -7.5q-14 -1 -29 4t-27 15.5t-19.5 27.5t-7.5 41q0 13 5.5 24t14.5 19.5t20.5 12.5t23.5 3q17 0 29 -10t17 -26q-4 2 -8 3.5t-9 1.5
q-18 0 -30.5 -11.5t-12.5 -30.5q-2 -26 11 -37.5t24 -7.5q18 3 33 23q10 12 18 30t16 42l-63 168l-87 274v1z" />
    <glyph glyph-name="afii10088" unicode="&#x446;" horiz-adv-x="465" 
d="M370 57q6 -6 16.5 -7.5t21.5 0t21.5 4.5t17.5 6q21 10 23 0.5t-20 -27.5q-19 -17 -29.5 -42.5t-14.5 -56t-1 -62.5t11 -61q-21 6 -31 24t-14.5 42.5t-5.5 50.5t-5 47.5t-13 35t-29 11.5q-17 0 -29.5 -3.5t-25 -8t-26 -8t-30.5 -3.5q-16 0 -29.5 3.5t-26.5 7.5t-25 7.5
t-25 3.5q-14 0 -26.5 -3t-24.5 -6.5l-24 -7t-26 -4.5v21h1q5 0 13 3.5t15.5 12.5t13.5 23t7 35v464q-1 22 -7 36t-13.5 22.5t-15.5 12t-13 3.5h-1v21q14 0 26 -3.5l24 -7t24.5 -7t26.5 -3.5t26 3.5l24 7l24 7t26 3.5v-21h-1q-5 0 -13 -3.5t-15.5 -12t-13.5 -22.5t-7 -36
v-464q2 -29 14.5 -47.5t40.5 -21.5q30 -3 46 18.5t17 50.5v464q-1 22 -7 36t-13.5 22.5t-15.5 12t-13 3.5h-1v21q14 0 26 -3.5l24 -7l24 -7t26 -3.5t26.5 3.5t24.5 7l24 7t26 3.5v-21h-1q-5 0 -13 -3.5t-15.5 -12t-13.5 -22.5t-7 -36v-502z" />
    <glyph glyph-name="afii10089" unicode="&#x447;" horiz-adv-x="471" 
d="M290 349q-11 -27 -30.5 -40t-41.5 -15q-53 -6 -95.5 24.5t-56.5 87.5q-6 27 -7.5 48t-1.5 57v47q0 21 -5.5 35t-13 23t-15.5 12.5t-13 3.5h-1v21q14 -1 26 -4.5l24 -7t24.5 -6.5t26.5 -3t26 3t24 6.5l24 7t26 4.5v-21h-1q-5 0 -13 -3.5t-15.5 -12.5t-13.5 -23t-7 -35v-64
q-1 -34 3.5 -65t19.5 -62q14 -30 32.5 -34.5t35.5 9t28.5 41t10.5 61.5v114q-1 21 -7 35t-13.5 23t-15.5 12.5t-13 3.5h-1v21q14 -1 26 -4.5l24 -7t24.5 -6.5t26.5 -3t26 3t24 6.5l24 7t26 4.5v-21h-1q-5 0 -13 -3.5t-15.5 -12.5t-13.5 -23t-7 -35v-463q0 -22 5.5 -36
t13.5 -22.5t16.5 -12t13.5 -3.5h1v-21q-14 0 -26 3.5l-24 7l-24 7t-26 3.5t-26.5 -3.5t-24.5 -7l-24 -7t-26 -3.5v21h1q5 0 13.5 3.5t16.5 12t13.5 22.5t5.5 36v254z" />
    <glyph glyph-name="afii10086" unicode="&#x444;" horiz-adv-x="512" 
d="M204 95q-31 0 -63.5 19.5t-59 61t-42.5 104t-14 147.5q1 61 19 95t45 47.5t57.5 9t57.5 -20.5q-1 21 -7 35t-13.5 23t-15.5 12.5t-13 3.5h-1v21q14 -1 26 -4.5l24 -7t24 -6.5t26 -3t26 3t24 6.5l24 7t26 4.5v-21h-1q-5 0 -13 -3.5t-15.5 -12.5t-13.5 -23t-7 -35
q27 16 57.5 20.5t57.5 -9t45 -47.5t19 -95q2 -85 -14 -147.5t-42.5 -104t-59 -61t-63.5 -19.5q0 -22 5.5 -36t13.5 -22.5t16.5 -12t13.5 -3.5h1v-21q-14 0 -26 3.5l-24 7l-24 7t-26 3.5t-26 -3.5l-24 -7l-24 -7t-26 -3.5v21h1q5 0 13.5 3.5t16.5 12t13.5 22.5t5.5 36z
M305 143q22 4 37.5 31.5t25.5 65.5t14 81.5t4 80.5q0 36 -4.5 65t-14.5 47t-25 22t-37 -11v-382zM203 525q-22 15 -37.5 11t-25 -22t-14 -47t-4.5 -65q0 -37 4 -80.5t14 -81.5t25 -65.5t38 -31.5v382z" />
    <glyph glyph-name="afii10091" unicode="&#x449;" horiz-adv-x="705" 
d="M340 22q-17 0 -29.5 -3.5t-25 -8t-26 -8t-30.5 -3.5q-16 0 -29.5 3.5t-26.5 7.5t-25 7.5t-25 3.5q-14 0 -26.5 -3t-24.5 -6.5l-24 -7t-26 -4.5v21h1q5 0 13 3.5t15.5 12.5t13.5 23t7 35v464q-1 22 -7 36t-13.5 22.5t-15.5 12t-13 3.5h-1v21q14 0 26 -3.5l24 -7t24.5 -7
t26.5 -3.5t26 3.5l24 7l24 7t26 3.5v-21h-1q-5 0 -13 -3.5t-15.5 -12t-13.5 -22.5t-7 -36v-464q2 -29 14.5 -47.5t40.5 -21.5q30 -3 46 18.5t17 50.5v464q-1 22 -7 36t-13.5 22.5t-15.5 12t-13 3.5h-1v21q14 0 26 -3.5l24 -7l24 -7t26 -3.5t26 3.5l24 7l24 7t26 3.5v-21h-1
q-5 0 -13 -3.5t-15.5 -12t-13.5 -22.5t-7 -36v-464q2 -29 14.5 -47.5t40.5 -21.5q30 -3 46 18.5t17 50.5v464q-1 22 -7 36t-13.5 22.5t-15.5 12t-13 3.5h-1v21q14 0 26 -3.5l24 -7l24 -7t26 -3.5t26.5 3.5t24.5 7l24 7t26 3.5v-21h-1q-5 0 -13 -3.5t-15.5 -12t-13.5 -22.5
t-7 -36v-502q6 -6 16.5 -7.5t21.5 0t21.5 4.5t17.5 6q21 10 23 0.5t-20 -27.5q-19 -17 -29.5 -42.5t-14.5 -56t-1 -62.5t11 -61q-21 6 -31 24t-14.5 42.5t-5.5 50.5t-5 47.5t-13 35t-29 11.5q-17 0 -29.5 -3.5t-25 -8t-26 -8t-30.5 -3.5q-16 0 -29.5 3.5t-26.5 7.5t-25 7.5
t-25 3.5z" />
    <glyph glyph-name="afii10090" unicode="&#x448;" horiz-adv-x="693" 
d="M561 19q-17 0 -30 -3t-25.5 -7t-26 -7t-30.5 -3q-16 0 -29.5 3.5t-26.5 7.5t-25 7.5t-25 3.5l-1 1q-17 0 -29.5 -3.5t-25 -8t-26 -8t-30.5 -3.5q-16 0 -29.5 3.5t-26.5 7.5t-25 7.5t-25 3.5q-14 0 -26.5 -3t-24.5 -6.5l-24 -7t-26 -4.5v21h1q5 0 13 3.5t15.5 12.5
t13.5 23t7 35v464q-1 22 -7 36t-13.5 22.5t-15.5 12t-13 3.5h-1v21q14 0 26 -3.5l24 -7t24.5 -7t26.5 -3.5t26 3.5l24 7l24 7t26 3.5v-21h-1q-5 0 -13 -3.5t-15.5 -12t-13.5 -22.5t-7 -36v-464q2 -29 14.5 -47.5t40.5 -21.5q30 -3 46 18.5t17 50.5v464q-1 22 -7 36
t-13.5 22.5t-15.5 12t-13 3.5h-1v21q14 0 26 -3.5l24 -7l24 -7t26 -3.5t26 3.5l24 7l24 7t26 3.5v-21h-1q-5 0 -13 -3.5t-15.5 -12t-13.5 -22.5t-7 -36v-464q2 -29 14.5 -47.5t40.5 -21.5q30 -3 46 18.5t17 50.5v464q-1 22 -7 36t-13.5 22.5t-15.5 12t-13 3.5h-1v21
q14 0 26 -3.5l24 -7l24 -7t26 -3.5t26.5 3.5t24.5 7l24 7t26 3.5v-21h-1q-5 0 -13 -3.5t-15.5 -12t-13.5 -22.5t-7 -36v-466q1 -22 7 -36t13.5 -22.5t15.5 -12t13 -3.5h1v-21q-14 0 -26 3.5l-24 7t-24.5 7t-26.5 3.5z" />
    <glyph glyph-name="afii10094" unicode="&#x44c;" horiz-adv-x="419" 
d="M174 91q12 -3 23 -3q25 0 40.5 13.5t24.5 38t12 59t3 77.5q0 28 -3.5 52.5t-11 43t-19 29t-27.5 10.5q-19 0 -42 -16v-304zM73 557q-1 21 -7 35t-13.5 23t-15.5 12.5t-13 3.5h-1v21q14 -1 26 -4.5l24 -7t24.5 -6.5t26.5 -3t26 3t24 6.5l24 7t26 4.5v-21h-1q-5 0 -13 -3.5
t-15.5 -12.5t-13.5 -23t-7 -35v-120q23 8 50.5 15t53.5 7q27 0 46 -9t31 -32t17.5 -63t5.5 -103q0 -54 -5.5 -100.5t-22 -80t-46.5 -52.5t-80 -19q-14 0 -26 3.5l-24 7l-24 7t-26 3.5t-26.5 -3.5t-24.5 -7l-24 -7t-26 -3.5l1 21q5 0 13 3.5t15.5 12t13.5 22.5t7 36v464v-2z
" />
    <glyph glyph-name="afii10093" unicode="&#x44b;" horiz-adv-x="648" 
d="M174 91q12 -3 23 -3q25 0 40.5 13.5t24.5 38t12 59t3 77.5q0 28 -3.5 52.5t-11 43t-19 29t-27.5 10.5q-19 0 -42 -16v-304zM73 557q-1 21 -7 35t-13.5 23t-15.5 12.5t-13 3.5h-1v21q14 -1 26 -4.5l24 -7t24.5 -6.5t26.5 -3t26 3t24 6.5l24 7t26 4.5v-21h-1q-5 0 -13 -3.5
t-15.5 -12.5t-13.5 -23t-7 -35v-120q23 8 50.5 15t53.5 7q27 0 46 -9t31 -32t17.5 -63t5.5 -103q0 -54 -5.5 -100.5t-22 -80t-46.5 -52.5t-80 -19q-14 0 -26 3.5l-24 7l-24 7t-26 3.5t-26.5 -3.5t-24.5 -7l-24 -7t-26 -3.5l1 21q5 0 13 3.5t15.5 12t13.5 22.5t7 36v464v-2z
M608 654v-21h-1q-5 0 -13 -4t-16 -12t-13.5 -22.5t-6.5 -35.5v-463q0 -22 5.5 -36t13.5 -22.5t16.5 -12t13.5 -3.5h1v-21q-14 0 -26 3.5t-24 7.5t-24 7t-26 3t-26.5 -3t-24.5 -7t-24 -7.5t-26 -3.5v21h1q5 0 13.5 3.5t16.5 12t13.5 22.5t5.5 36v463q-1 21 -6.5 35.5
t-13.5 22.5t-16 12t-13 4h-1v21q14 -1 26 -4.5l24 -7t24.5 -6.5t26.5 -3t26 3t24 6.5l24 7t26 4.5z" />
    <glyph glyph-name="afii10092" unicode="&#x44a;" horiz-adv-x="509" 
d="M264 91q12 -3 23 -3q25 0 40.5 13.5t24.5 38t12 59t3 77.5q0 28 -3.5 52.5t-11 43t-19 29t-27.5 10.5q-19 0 -42 -16v-304zM135 617q-15 -1 -19 -13t-3.5 -31t1.5 -41.5t-4.5 -44t-21 -38t-47.5 -23.5q17 23 24 53t3 60q0 2 -1 2q-2 18 -9.5 40.5t-21.5 36.5q-6 5 -9 9
t-11 5v21h100q27 -2 48.5 -11.5t48.5 -9.5q14 0 26.5 3t24.5 6.5l24 7t26 4.5l-1 -21q-5 0 -13 -3.5t-15.5 -12.5t-13.5 -23t-7 -35v-121q23 8 50.5 15t53.5 7q27 0 46 -9t31 -32t17.5 -63t5.5 -103q0 -54 -5.5 -100.5t-22 -80t-46.5 -52.5t-80 -19q-14 0 -26 3.5l-24 7
l-24 7t-26 3.5t-26.5 -3.5t-24.5 -7l-24 -7t-26 -3.5l1 21q5 0 13 3.5t15.5 12t13.5 22.5t7 36v465v-4v20t-2.5 20t-8.5 15t-17 6z" />
    <glyph glyph-name="afii10095" unicode="&#x44d;" horiz-adv-x="376" 
d="M266 605q33 -38 56.5 -107.5t23.5 -172.5q0 -83 -16 -144.5t-41 -101.5t-55 -59.5t-58 -19.5q-39 -2 -68.5 10t-50 32.5t-30.5 48t-10 57.5q0 29 12 55t32.5 42.5t46.5 20t54 -12.5q-21 -5 -35 -24t-21.5 -44.5t-7.5 -54t8.5 -52t24.5 -39t42 -14.5q16 7 25.5 32
t13.5 64.5t5 91.5t1 112v33h-57q-5 0 -12.5 -4.5t-15.5 -11t-15 -14.5t-10 -15v109q3 -8 10 -14.5t15 -11t15 -7t12 -2.5h57q-1 68 -5.5 121.5t-13.5 85.5q-9 30 -24 30q-23 1 -36 -11t-20 -29.5t-9 -36t-4 -28.5q-2 -14 -5 -29t-9 -28.5t-16 -24t-24 -14.5q14 25 20 61
t2 67q-1 12 -4 26.5t-9 27.5t-14.5 22t-20.5 11v20q37 -18 60.5 -16.5t43 7.5t40 8t50.5 -15q27 -14 47 -37z" />
    <glyph glyph-name="afii10096" unicode="&#x44e;" horiz-adv-x="603" 
d="M389 665q28 0 59 -20t57 -61.5t42.5 -105t16.5 -149.5t-16.5 -149.5t-42.5 -104.5t-57 -61t-59 -20q-29 0 -59.5 20t-56.5 61t-42.5 104.5t-16.5 149.5v29h-43v-263q1 -22 6.5 -36t13.5 -22.5t16 -12t13 -3.5h1v-21q-14 0 -26 3.5t-24 7.5t-24 7t-26 3t-26.5 -3t-24.5 -7
t-24 -7.5t-26 -3.5v21h1q5 0 13 3.5t16 12t13.5 22.5t6.5 36v464q-1 21 -6.5 35.5t-13.5 22.5t-16 12t-13 4h-1v21q14 -1 26 -5l24 -7q12 -3 24.5 -6t26.5 -3t26 3l24 6l24 7q12 4 26 5v-21h-1q-5 0 -13 -4t-16 -12t-13.5 -22.5t-6.5 -35.5v-172h45q4 50 14 91
q17 64 43 105.5t56.5 61.5t59.5 20zM389 22q12 0 21.5 25t16.5 67t11 97.5t4 117.5t-4 118t-11 98.5t-16.5 67.5t-21.5 25t-22 -25t-16.5 -67.5t-10.5 -98.5t-4 -118t4 -117.5t10.5 -97.5t16.5 -67t22 -25z" />
    <glyph glyph-name="afii10097" unicode="&#x44f;" horiz-adv-x="388" 
d="M86 401q1 5 1 15v18q2 -1 5.5 -1.5t11.5 -0.5t17 3.5t17.5 8t16.5 8.5t14 4h-28q-30 0 -53 10.5t-38.5 27t-23.5 37t-8 40.5q0 25 10 41t26.5 25.5t37 13t41.5 3.5h27q14 -1 26 -4.5l24 -7t24 -6.5t26 -3t26.5 3t24.5 6.5l24 7t26 4.5v-21h-1q-5 0 -13 -3.5t-15.5 -12.5
t-13.5 -23t-7 -35v-464q1 -21 7 -35t13.5 -23t15.5 -12.5t13 -3.5h1v-21q-27 2 -49.5 11.5t-51.5 9.5q-14 0 -26 -3t-24 -6.5l-24 -7t-26 -4.5v21h1q5 0 13 3.5t15.5 12.5t13.5 23t7 35v350q-28 -2 -38 -11t-10 -20v-46q0 -147 -26 -253.5t-61 -176t-71 -102.5t-57 -32
q29 6 51 47.5t37.5 102t25.5 131.5t15.5 135.5t7.5 113.5t2 67zM210 613l-6 3q-3 1 -7.5 2t-9.5 2q-8 1 -16.5 0t-16.5 -6q-10 -6 -16 -22.5t-2.5 -36t21 -38.5t53.5 -31v127z" />
    <glyph glyph-name="afii10023" unicode="&#x401;" 
d="M507 613q0 -2 -1 -3q-5 -39 4.5 -78t31.5 -69q-39 8 -57.5 29.5t-26 49.5t-8.5 58t-5.5 55t-17 41.5t-42.5 16.5q-22 0 -35.5 -8.5t-21 -20.5t-10 -26t-2.5 -25v-213q13 -2 28.5 -3t29.5 -1q14 2 28.5 10t25.5 17q7 5 13 11l12 12q1 -1 2 -1t2.5 -0.5t3.5 -0.5
q-14 -17 -25 -37q-19 -35 -29 -76t-11 -80q-5 -66 19 -104l-5 1q-1 0 -2.5 3t-2.5 4l-5 8q-2 5 -4 9t-4 9q-7 17 -9.5 35t-4.5 35q-2 19 -2 37t-5 36q-3 10 -7 19t-12 16q-3 4 -14 5t-22 1v-352q0 -14 3.5 -28.5t11.5 -26.5q10 -14 25.5 -20t32.5 -6q1 1 4 1q27 2 38 19
t14.5 41.5t5 54t9 56.5t26 48.5t56.5 30.5q-22 -31 -31.5 -70t-4.5 -78q1 -1 1 -3q3 -23 12.5 -51.5t28.5 -47.5q16 -17 36 -18v-27h-209q-2 1 -8 1l-4 1q-2 0 -12 2q-7 2 -13 3.5t-13 3.5q-8 3 -16.5 5.5t-16.5 4.5q-21 6 -41 6q-18 0 -34 -4t-31.5 -8.5t-31.5 -9t-34 -5.5
v27h1q7 0 17.5 4.5t20.5 16t17.5 30t8.5 45.5v603q-1 28 -8.5 46.5t-17.5 29.5t-20.5 16t-17.5 5h-1q-8 0 -18.5 -3t-19.5 -10t-15.5 -18.5t-6.5 -28.5q0 -25 17 -42t42 -17q15 0 23 4q-8 -20 -26 -32t-41 -12q-39 0 -60 32q-2 3 -3.5 6.5t-3.5 6.5v1q-8 19 -8 38
q0 31 13 50.5t32 31t39.5 16t35.5 4.5q18 -1 34 -5.5t31.5 -9t31.5 -8.5t34 -4t34 4t31 8.5t31 9t34 5.5h203v-27q-20 -3 -36 -18q-19 -19 -28.5 -48t-12.5 -52zM283 778q0 11 -3.5 26t-10.5 28.5t-18 22.5t-27 9q16 0 27 9.5t18 23t10.5 28.5t3.5 26q0 -11 3 -26t10 -28.5
t18.5 -23t27.5 -9.5q-16 0 -28.5 -9t-18.5 -22.5t-9 -28.5t-3 -26zM415 778q0 11 -3 26t-10 28.5t-18 22.5t-27 9q16 0 27 9.5t18 23t10 28.5t3 26q0 -11 3 -26t10.5 -28.5t19 -23t27.5 -9.5q-16 0 -27.5 -9t-19 -22.5t-10.5 -28.5t-3 -26z" />
    <glyph glyph-name="afii10071" unicode="&#x451;" horiz-adv-x="407" 
d="M318 542q-1 0 -1 -2q-4 -30 3 -60t24 -53q-30 7 -43.5 24t-19.5 38.5t-7 44t-4.5 41.5t-13 31.5t-32.5 12.5q-17 0 -27.5 -6.5t-16 -16t-7.5 -20t-2 -18.5v-188q14 10 31 17t40 7q9 0 19.5 -2.5t22 -10t23.5 -22.5t24 -40q-24 22 -43.5 23t-38 -8.5t-37.5 -25t-41 -27.5
v-185q0 -11 2.5 -22t8.5 -20q8 -11 20 -15.5t25 -4.5h3l10 1q26 3 41.5 20t21 40.5t3 48.5t-13 44.5t-28 29.5t-40.5 2l5 7q11 16 30 17.5t38.5 1.5t36.5 6.5t25 33.5q6 -12 10 -29t5.5 -35.5t1.5 -37.5t-1 -35q-2 -27 -10.5 -53.5t-26 -48t-45 -34.5t-67.5 -13h-5
q-7 0 -17.5 2t-21 5t-19 5.5t-11.5 3.5q-18 5 -31 5q-14 0 -26.5 -3.5t-24.5 -7l-24 -7t-26 -3.5v21h1q5 0 13 3.5t15.5 12t13.5 22.5t7 36v188q-5 4 -9 7.5t-9 7.5q-14 15 -21 33.5t-11 27.5q5 -6 18.5 -14.5t31.5 -12.5v227q-1 21 -7 35t-13.5 23t-15.5 12.5t-13 3.5h-1
v21q14 -1 26 -4.5l24 -7t24.5 -6.5t26.5 -3t26 3t24 6.5l24 7t26 4.5h156v-21q-8 -1 -15 -5t-13 -9q-14 -14 -21.5 -36.5t-9.5 -40.5zM142 667q0 9 -2.5 21.5t-8.5 23.5t-15 18.5t-22 7.5q13 0 22 7.5t15 18.5t8.5 23.5t2.5 21.5q0 -9 2.5 -21.5t8.5 -23.5t15.5 -18.5
t22.5 -7.5q-13 0 -22.5 -7.5t-15.5 -18.5t-8.5 -23.5t-2.5 -21.5zM250 667q0 9 -2.5 21.5t-8.5 23.5t-15 18.5t-22 7.5q13 0 22 7.5t15 18.5t8.5 23.5t2.5 21.5q0 -9 2.5 -21.5t8.5 -23.5t15.5 -18.5t22.5 -7.5q-13 0 -22.5 -7.5t-15.5 -18.5t-8.5 -23.5t-2.5 -21.5z" />
    <glyph glyph-name="afii61352" unicode="&#x2116;" horiz-adv-x="1036" 
d="M613 733q15 0 27.5 4t25 8.5l25 9t26.5 4.5v-27q-6 0 -20.5 -8t-29 -21.5t-25.5 -32.5t-11 -42v-587q0 -23 11 -42t25.5 -32.5t29 -21.5t20.5 -8v-27q-14 1 -26.5 5t-25 8.5t-25 8.5t-27.5 4t-27.5 -4t-25 -8.5t-25 -8.5t-27.5 -5v27h1q8 0 29 13.5t38 36.5q12 20 5.5 52
t-19.5 62q-15 35 -39 74l-258 405v-531q0 -7 1 -15.5t3 -17.5q3 -14 8.5 -28t15.5 -25t24 -18.5t35 -7.5v-27h-1q-41 0 -70 -9.5t-52.5 -24t-45 -31t-46.5 -31t-58 -24t-79 -9.5v25q48 0 96 28.5t83 83.5q16 23 28 52q2 6 5 13.5t6 16.5q5 14 8 32.5t3 41.5v554
q0 47 -20.5 76t-45.5 29q-9 0 -19.5 -3t-19.5 -10t-15.5 -18.5t-6.5 -28.5q0 -25 17.5 -42.5t42.5 -17.5q11 0 23 5q-8 -20 -26 -32.5t-41 -12.5q-19 0 -35 9t-26 24l-7 13v1q-8 18 -8 38q0 31 13.5 50.5t32 30.5t39.5 15.5t36 4.5q14 0 25 -4.5t21 -9t19 -8.5t19 -4
q26 0 49 10t33 13l265 -420v292q0 23 -11 42t-25.5 32.5t-28.5 21.5t-20 8q-1 0 -1 1v26q15 0 27.5 -4.5l25 -9t25 -8.5t27.5 -4zM987 243h-261v43h261v-43zM859 752q20 0 41.5 -12.5t39.5 -39t29.5 -66.5t11.5 -94q0 -55 -11.5 -95t-29.5 -66.5t-39.5 -39t-41.5 -12.5
t-41.5 12.5t-39.5 39t-29.5 66.5t-11.5 95q0 54 11.5 94t29.5 66.5t39.5 39t41.5 12.5zM859 362q11 0 20 14.5t15.5 38.5t10 56.5t3.5 68.5t-3.5 68t-10 56t-15.5 38.5t-20 14.5t-20 -14.5t-15.5 -38.5t-10 -56t-3.5 -68t3.5 -68.5t10 -56.5t15.5 -38.5t20 -14.5z" />
    <glyph glyph-name="uni0406" unicode="&#x406;" horiz-adv-x="431" 
d="M380 731q-7 0 -17.5 -5t-20.5 -16t-17.5 -29.5t-8.5 -46.5v-603q1 -27 8.5 -45.5t17.5 -30t20.5 -16t17.5 -4.5h1v-27q-18 1 -34 5.5t-31 9t-31 8.5t-34 4t-34 -4t-31.5 -8.5t-31.5 -9t-34 -5.5v27h1q7 0 17.5 4.5t20.5 16t17.5 30t8.5 45.5v603q-1 28 -8.5 46.5
t-17.5 29.5t-20.5 16t-17.5 5h-1q-8 0 -18.5 -3t-19.5 -10t-15.5 -18.5t-6.5 -28.5q0 -25 17 -42t42 -17q15 0 23 4q-8 -20 -26 -32t-41 -12q-39 0 -60 32q-2 3 -3.5 6.5t-3.5 6.5v1q-8 19 -8 38q0 31 13 50.5t32 31t39.5 16t35.5 4.5q18 -1 34 -5.5t31.5 -9t31.5 -8.5
t34 -4t34 4t31 8.5t31 9t34 5.5v-27h-1z" />
    <glyph glyph-name="afii10103" unicode="&#x456;" horiz-adv-x="231" 
d="M100 653q0 11 -2.5 25.5t-8.5 27t-15 21.5t-22 9q13 0 22 9t15 21.5t8.5 27t2.5 25.5q0 -11 2.5 -25.5t8.5 -27t15.5 -21.5t22.5 -9q-13 0 -22.5 -9t-15.5 -21.5t-8.5 -27t-2.5 -25.5zM201 653v-21h-1q-5 0 -13 -4t-16 -12t-13.5 -22.5t-6.5 -35.5v-463q0 -22 5.5 -36
t13.5 -22.5t16.5 -12t13.5 -3.5h1v-21q-14 0 -26 3.5t-24 7.5t-24 7t-26 3t-26.5 -3t-24.5 -7t-24 -7.5t-26 -3.5v21h1q5 0 13.5 3.5t16.5 12t13.5 22.5t5.5 36v463q-1 21 -6.5 35.5t-13.5 22.5t-16 12t-13 4h-1v21q14 -1 26 -4.5l24 -7t24.5 -6.5t26.5 -3t26 3t24 6.5l24 7
t26 4.5z" />
    <glyph glyph-name="afii10053" unicode="&#x404;" horiz-adv-x="447" 
d="M328 510q1 37 -6 74t-19 66.5t-27.5 48.5t-31.5 20h-4q-13 0 -22.5 -24t-16 -66t-10 -98t-4.5 -120q35 -3 69.5 1t62.5 27q7 5 13 11l12 12q1 -1 2 -1t2.5 -0.5t3.5 -0.5q-14 -17 -25 -37q-19 -35 -29 -76t-11 -80q-5 -66 19 -104l-5 1q-1 0 -2.5 3t-2.5 4l-5 8
q-2 5 -4 9t-4 9q-7 17 -9.5 35t-4.5 35q-2 19 -2 37t-5 36q-9 30 -25.5 35.5t-50.5 1.5v-46q0 -78 3 -148.5t9.5 -124t16.5 -84.5t25 -31q27 2 38 19t14.5 42t5 54.5t9 57t26 49t56.5 30.5q-22 -31 -31.5 -70t-4.5 -78q4 -24 12 -49.5t28 -45.5q16 -17 36 -18v-27
q-37 10 -61.5 13.5t-41.5 3.5t-28 -3t-21 -6t-20.5 -5.5t-26.5 -2.5q-36 0 -73.5 25.5t-67.5 78t-49.5 132t-19.5 188.5q0 133 30 223t74 140q20 23 45 40l5 3q2 2 4 2q15 9 24 11q8 4 19 6.5t19 1.5q16 -1 28.5 -7t32 -9.5t51 -1t87.5 17.5v-27q-19 -2 -37.5 -21t-33 -49.5
t-23.5 -70t-9 -81.5z" />
    <glyph glyph-name="afii10056" unicode="&#x407;" horiz-adv-x="431" 
d="M380 731q-7 0 -17.5 -5t-20.5 -16t-17.5 -29.5t-8.5 -46.5v-603q1 -27 8.5 -45.5t17.5 -30t20.5 -16t17.5 -4.5h1v-27q-18 1 -34 5.5t-31 9t-31 8.5t-34 4t-34 -4t-31.5 -8.5t-31.5 -9t-34 -5.5v27h1q7 0 17.5 4.5t20.5 16t17.5 30t8.5 45.5v603q-1 28 -8.5 46.5
t-17.5 29.5t-20.5 16t-17.5 5h-1q-8 0 -18.5 -3t-19.5 -10t-15.5 -18.5t-6.5 -28.5q0 -25 17 -42t42 -17q15 0 23 4q-8 -20 -26 -32t-41 -12q-39 0 -60 32q-2 3 -3.5 6.5t-3.5 6.5v1q-8 19 -8 38q0 31 13 50.5t32 31t39.5 16t35.5 4.5q18 -1 34 -5.5t31.5 -9t31.5 -8.5
t34 -4t34 4t31 8.5t31 9t34 5.5v-27h-1zM181 778q0 11 -3.5 26t-10.5 28.5t-18 22.5t-27 9q16 0 27 9.5t18 23t10.5 28.5t3.5 26q0 -11 3 -26t10 -28.5t18.5 -23t27.5 -9.5q-16 0 -28.5 -9t-18.5 -22.5t-9 -28.5t-3 -26zM313 778q0 11 -3 26t-10 28.5t-18 22.5t-27 9
q16 0 27 9.5t18 23t10 28.5t3 26q0 -11 3 -26t10.5 -28.5t19 -23t27.5 -9.5q-16 0 -27.5 -9t-19 -22.5t-10.5 -28.5t-3 -26z" />
    <glyph glyph-name="afii10104" unicode="&#x457;" horiz-adv-x="248" 
d="M210 653v-21h-1q-5 0 -13 -4t-16 -12t-13.5 -22.5t-6.5 -35.5v-463q0 -22 5.5 -36t13.5 -22.5t16.5 -12t13.5 -3.5h1v-21q-14 0 -26 3.5t-24 7.5t-24 7t-26 3t-26.5 -3t-24.5 -7t-24 -7.5t-26 -3.5v21h1q5 0 13.5 3.5t16.5 12t13.5 22.5t5.5 36v463q-1 21 -6.5 35.5
t-13.5 22.5t-16 12t-13 4h-1v21q14 -1 26 -4.5l24 -7t24.5 -6.5t26.5 -3t26 3t24 6.5l24 7t26 4.5zM57 678q0 10 -3.5 24.5t-10 27.5t-17.5 21.5t-26 8.5q15 0 26 9t17.5 22t10 27.5t3.5 24.5q0 -10 3 -24.5t9.5 -27.5t17.5 -22t27 -9q-16 0 -28 -8.5t-17.5 -21.5
t-8.5 -27.5t-3 -24.5zM172 678q0 10 -3 24.5t-9.5 27.5t-17 21.5t-26.5 8.5q16 0 26.5 9t17 22t9.5 27.5t3 24.5q0 -10 3 -24.5t10 -27.5t18.5 -22t26.5 -9q-15 0 -26.5 -8.5t-18.5 -21.5t-10 -27.5t-3 -24.5z" />
    <glyph glyph-name="afii10062" unicode="&#x40e;" horiz-adv-x="715" 
d="M318 -89q-18 -2 -38 4t-37 20t-27.5 35t-9.5 50q-1 16 5.5 30t17.5 24.5t25.5 16.5t29.5 5q22 0 38 -12t22 -32q-12 5 -21 5q-23 1 -39.5 -14.5t-17.5 -38.5q0 -15 5.5 -26t14 -17.5t18 -9.5t17.5 -1q26 6 44.5 31.5t34.5 68.5l-183 581q-11 37 -22.5 57t-22.5 29.5
t-20.5 11t-16.5 1.5h-2q-8 0 -18.5 -3t-19.5 -9.5t-15.5 -18t-6.5 -28.5q0 -25 17 -42.5t42 -17.5q9 0 24 5q-8 -20 -26 -32.5t-41 -12.5q-20 0 -35.5 9t-25.5 24q-3 3 -7 13q-8 21 -8 39q0 31 13 50.5t32 30.5t39.5 15.5t35.5 4.5q17 -1 32.5 -5t30 -8t29.5 -8t32 -5h14
q17 1 32 5.5t29.5 9t30 8t32.5 3.5v-27h-2q-7 0 -18 -5t-20 -16.5t-12 -31.5t7 -50l114 -366l108 366q9 30 2.5 50t-19.5 32t-27 17t-21 5h-1l4 27q15 -2 27 -6.5t23.5 -9.5t23.5 -9t27 -4q15 -1 28 2.5t26 7.5t27 8t29 5l-5 -27h-1q-6 0 -20.5 -5.5t-31 -17.5t-32 -31
t-23.5 -46v1l-151 -528q-16 -54 -30.5 -88.5t-30.5 -55t-35 -30t-43 -13.5zM551 861q-4 -21 -16 -35t-29 -23t-38 -12.5t-43 -2.5q-23 0 -43.5 5.5t-36 16t-24.5 25t-6 33.5q2 22 17 37.5t38 15.5q16 0 24.5 -9.5t9 -20t-6 -20t-21.5 -9.5q-17 0 -22 9q-6 -18 5.5 -28.5
t31 -15.5t43.5 -4.5t43.5 6.5t29.5 16.5t3 25.5v-1q-8 -8 -21 -8t-19.5 9.5t-6 20t8.5 20t23 9.5q27 0 41.5 -16.5t14.5 -43.5z" />
    <glyph glyph-name="afii10110" unicode="&#x45e;" horiz-adv-x="463" 
d="M64 558q-17 48 -33.5 62t-25.5 14h-5v21q25 -2 47 -10.5t47 -10.5h10q25 2 45 10.5t45 10.5v-21h-1q-5 0 -12 -4t-12.5 -13.5t-6.5 -25t7 -37.5l90 -291l89 292q7 23 1.5 38.5t-15.5 25.5t-21.5 14t-17.5 4l3 21q23 -3 40 -12.5t40 -11.5t43 6.5t44 9.5l-5 -22h-1
q-4 0 -15 -3.5t-24.5 -12.5t-26 -23.5t-18.5 -35.5v1l-124 -419q-15 -48 -28.5 -76.5t-27.5 -43.5q-11 -11 -23.5 -16.5t-26.5 -7.5q-14 -1 -29 4t-27 15.5t-19.5 27.5t-7.5 41q0 13 5.5 24t14.5 19.5t20.5 12.5t23.5 3q17 0 29 -10t17 -26q-4 2 -8 3.5t-9 1.5
q-18 0 -30.5 -11.5t-12.5 -30.5q-2 -26 11 -37.5t24 -7.5q18 3 33 23q10 12 18 30t16 42l-63 168l-87 274v1zM352 767q-8 -37 -40.5 -54t-75.5 -15q-21 0 -41 5.5t-35.5 15.5t-23.5 24t-5 31q2 20 17.5 34t37.5 14q15 0 23 -8.5t8.5 -18.5t-6 -18.5t-20.5 -8.5q-17 0 -21 9
q-5 -18 5 -29.5t28 -17t39.5 -5t39 6t26.5 17t3 28.5v-1q-8 -8 -20 -8q-13 0 -19 8.5t-5.5 18.5t8 18.5t21.5 8.5q26 0 41 -15t15 -40z" />
    <glyph glyph-name="afii10050" unicode="&#x490;" horiz-adv-x="583" 
d="M417 757q19 8 25 29l14 49t26.5 60t61.5 62q-21 -32 -31.5 -64.5t-10.5 -61.5q0 -36 16 -62.5t49 -37.5v-14l-35 -1h-141q-41 0 -58 -25t-17 -59v-601q1 -28 8.5 -46.5t17.5 -30t20.5 -16t17.5 -4.5h2v-26h-4q-29 0 -52.5 -6t-43 -15t-37 -21t-34.5 -24t-35 -23.5
t-39.5 -20t-48 -14t-59.5 -5.5v24q47 0 76.5 21t46.5 52t24 66t9 64v628q-1 27 -8.5 45.5t-17.5 30t-20.5 16t-17.5 4.5h-1q-8 0 -18.5 -3t-19.5 -9.5t-15.5 -18t-6.5 -28.5q0 -25 17 -42.5t42 -17.5q10 0 23 5q-8 -20 -26 -32.5t-41 -12.5q-35 0 -55 26t-20 59
q0 31 13 50.5t32 30.5t39.5 15.5t35.5 4.5q18 -1 34 -5.5t31.5 -9t31.5 -8.5t34 -4t30 3t28 7.5t40.5 9t67.5 7.5z" />
    <glyph glyph-name="afii10098" unicode="&#x491;" horiz-adv-x="384" 
d="M236 654q11 15 13 43t7.5 57t20 53t50.5 32q-17 -23 -24 -52.5t-3 -59.5v-3q2 -18 9.5 -40.5t21.5 -36.5q6 -5 13 -9t15 -5v-21h-134q-27 1 -42 -5t-22 -15t-8.5 -19t-1.5 -16v-462q1 -22 7 -36t13.5 -22.5t15.5 -12t13 -3.5h1v-21q-14 0 -26 3.5l-24 7l-24 7t-26 3.5
t-26.5 -3.5t-24.5 -7l-24 -7t-26 -3.5v21h1q5 0 13.5 3.5t16.5 12t13.5 22.5t5.5 36v464q-1 21 -7 35t-13.5 23t-15.5 12.5t-13 3.5h-1v21q14 -1 26 -4.5l24 -7t24.5 -6.5t26.5 -3q13 0 23 3t23.5 6.5t33.5 7t55 4.5z" />
    <glyph glyph-name="afii10101" unicode="&#x454;" horiz-adv-x="376" 
d="M101 605q20 23 47 37q30 17 50.5 15t40 -8t43 -7.5t60.5 16.5v-20q-12 -2 -20.5 -11t-14.5 -22t-9 -27.5t-4 -26.5q-4 -31 2 -67t20 -61q-14 4 -24 14.5t-16 24t-9.5 28.5t-4.5 29q-2 10 -4 28.5t-9 36t-20 29.5t-36 11q-15 0 -24 -30q-9 -32 -13.5 -85.5t-5.5 -121.5h57
q4 0 11.5 2.5t15.5 7t15 11t10 14.5v-109q-3 7 -10 15t-15 14.5t-16 11t-12 4.5h-57v-33q0 -60 1 -112t5 -91.5t13 -64.5t26 -32q25 -1 41.5 14.5t25 39t8.5 52t-7.5 54t-21.5 44.5t-35 24q28 16 54 12.5t46 -20t32.5 -42.5t12.5 -55q0 -30 -10 -57.5t-30.5 -48t-50 -32.5
t-68.5 -10q-28 0 -58 19.5t-55 59.5t-41 101.5t-16 144.5q0 103 23.5 172.5t56.5 107.5z" />
    <glyph glyph-name="afii10146" unicode="&#x462;" horiz-adv-x="621" 
d="M183 616q-27 2 -40.5 -6t-19.5 -21.5t-8 -29.5t-6.5 -31t-13.5 -25.5t-29 -13.5q19 68 2 100t-60 40v27l173 -1q-3 22 -11 36.5t-17 23.5t-18.5 12.5t-15.5 3.5h-1v27q18 -1 34 -5.5t31 -9t31 -8.5t34 -4t34 4t31.5 8.5t31.5 9t34 5.5v-27h-1q-6 0 -15.5 -3.5
t-18.5 -12.5t-17 -23.5t-11 -36.5l172 1v-27q-22 -4 -37 -13t-23 -24.5t-7.5 -39.5t10.5 -58q-22 1 -31.5 11.5t-13.5 24.5t-6 29.5t-8 28.5t-19 21.5t-39 6.5v-182q37 10 78 19t78.5 4t68 -30.5t45.5 -84.5q6 -35 8 -78.5t-1.5 -89t-13 -90t-25.5 -81.5q-20 -48 -46 -73.5
t-50 -39.5q-14 -8 -28.5 -13t-28.5 -7q-23 17 -52.5 34.5t-58.5 24.5q-8 2 -15.5 3.5t-15.5 1.5q-30 0 -59 -8q-11 -3 -21.5 -6.5t-21.5 -6.5q-22 -5 -37 -5v27h1q7 0 17.5 4.5t20.5 15.5t17.5 29.5t8.5 46.5v585zM314 -13q23 -16 43 -12.5t36.5 20.5t29.5 43.5t22 56.5
t14 60.5t5 55.5q0 35 -2.5 67.5t-8 59t-14.5 45.5t-23 27q-10 6 -23 6.5t-27 -2t-27.5 -7t-24.5 -8.5v-412z" />
    <glyph glyph-name="afii10194" unicode="&#x463;" horiz-adv-x="500" 
d="M154 542q-21 1 -31.5 -5t-15 -16.5t-6.5 -23.5t-5 -24.5t-10 -20t-23 -10.5q15 54 2 79t-47 32v21l134 -1q-5 32 -21.5 45t-25.5 13h-1v21q14 -1 26 -4.5l24 -7t24.5 -6.5t26.5 -3t26 3t24 6.5l24 7t26 4.5v-21h-1q-10 0 -26 -13t-22 -45l134 1v-21q-34 -7 -46.5 -30
t2.5 -77q-25 2 -31 18t-9 34t-11.5 32t-39.5 12v-137q23 8 50.5 15t53.5 7q27 0 46 -7.5t31 -29.5t17.5 -60.5t5.5 -101.5q0 -54 -5.5 -96.5t-22 -72t-46.5 -44.5t-80 -15q-14 0 -26 3.5l-24 7l-24 7t-26 3.5t-26.5 -3.5t-24.5 -7l-24 -7t-26 -3.5l1 21q5 0 13 3.5t15.5 12
t13.5 22.5t7 36v447zM255 91q12 -3 23 -3q25 0 40.5 9.5t24.5 29.5t12 51t3 74q0 56 -14.5 91.5t-46.5 35.5q-19 0 -42 -16v-272z" />
    <glyph glyph-name="afii10147" unicode="&#x472;" horiz-adv-x="511" 
d="M255 757q36 0 75 -25.5t71.5 -77.5t53.5 -131.5t21 -187.5q0 -109 -21 -188.5t-53.5 -131.5t-71.5 -77.5t-75 -25.5t-75 25.5t-71 77.5t-53 131.5t-21 188.5q0 108 21 187.5t53 131.5t71 77.5t75 25.5zM255 -54q15 0 29.5 31.5t26.5 84.5t19 124t7 149v12h-163v-12
q0 -78 7 -149t18.5 -124t26 -84.5t29.5 -31.5zM257 723l-5 -1q-14 -3 -27.5 -31.5t-24 -75t-17.5 -108.5t-9 -131h162q-2 70 -9.5 132.5t-18 109.5t-24 75t-27.5 30z" />
    <glyph glyph-name="afii10195" unicode="&#x473;" horiz-adv-x="418" 
d="M197 662q28 0 59 -20t57 -61.5t42.5 -105t16.5 -149.5t-16.5 -149.5t-42.5 -104.5t-57 -61t-59 -20q-29 0 -59.5 20t-56.5 61t-42.5 104.5t-16.5 149.5t16.5 149.5t42.5 105t56.5 61.5t59.5 20zM197 19q12 0 21.5 25t16.5 67t11 97.5t4 117.5v6h-106v-6q0 -62 4 -117.5
t10.5 -97.5t16.5 -67t22 -25zM246 444q-4 56 -11 98.5t-16.5 67.5t-21.5 25t-22 -25t-16.5 -67.5t-10.5 -98.5q-3 -40 -4 -83h106q-1 43 -4 83z" />
    <glyph glyph-name="space" unicode=" " horiz-adv-x="300" 
 />
    </font>
</defs>
</svg>
